<?xml version="1.0" encoding="UTF-8" standalone="no"?><svg xmlns="http://www.w3.org/2000/svg" xmlns:xlink="http://www.w3.org/1999/xlink" contentScriptType="application/ecmascript" contentStyleType="text/css" height="807px" preserveAspectRatio="none" style="width:1986px;height:807px;background:#FFFFFF;" version="1.1" viewBox="0 0 1986 807" width="1986px" zoomAndPan="magnify"><defs><filter height="300%" id="f19bg89zu6wb5r" width="300%" x="-1" y="-1"><feGaussianBlur result="blurOut" stdDeviation="2.0"/><feColorMatrix in="blurOut" result="blurOut2" type="matrix" values="0 0 0 0 0 0 0 0 0 0 0 0 0 0 0 0 0 0 .4 0"/><feOffset dx="4.0" dy="4.0" in="blurOut2" result="blurOut3"/><feBlend in="SourceGraphic" in2="blurOut3" mode="normal"/></filter></defs><g><rect fill="#FFFFFF" filter="url(#f19bg89zu6wb5r)" height="595.125" style="stroke:#A80036;stroke-width:1.0;" width="10" x="623" y="119.4297"/><rect fill="#FFFFFF" filter="url(#f19bg89zu6wb5r)" height="565.9922" style="stroke:#A80036;stroke-width:1.0;" width="10" x="895" y="148.5625"/><rect fill="#FFFFFF" filter="url(#f19bg89zu6wb5r)" height="29.1328" style="stroke:#A80036;stroke-width:1.0;" width="10" x="1135.5" y="177.6953"/><rect fill="#FFFFFF" filter="url(#f19bg89zu6wb5r)" height="29.1328" style="stroke:#A80036;stroke-width:1.0;" width="10" x="1135.5" y="412.4922"/><rect fill="#FFFFFF" filter="url(#f19bg89zu6wb5r)" height="59.1328" style="stroke:#A80036;stroke-width:1.0;" width="10" x="1307.5" y="206.8281"/><rect fill="#FFFFFF" filter="url(#f19bg89zu6wb5r)" height="59.1328" style="stroke:#A80036;stroke-width:1.0;" width="10" x="1307.5" y="441.625"/><rect fill="#FFFFFF" filter="url(#f19bg89zu6wb5r)" height="30" style="stroke:#A80036;stroke-width:1.0;" width="10" x="1477.5" y="235.9609"/><rect fill="#FFFFFF" filter="url(#f19bg89zu6wb5r)" height="30" style="stroke:#A80036;stroke-width:1.0;" width="10" x="1477.5" y="295.0938"/><rect fill="#FFFFFF" filter="url(#f19bg89zu6wb5r)" height="30" style="stroke:#A80036;stroke-width:1.0;" width="10" x="1659.5" y="470.7578"/><rect fill="#FFFFFF" filter="url(#f19bg89zu6wb5r)" height="30" style="stroke:#A80036;stroke-width:1.0;" width="10" x="1659.5" y="529.8906"/><line style="stroke:#A80036;stroke-width:1.0;stroke-dasharray:5.0,5.0;" x1="111" x2="111" y1="88.2969" y2="723.5547"/><line style="stroke:#A80036;stroke-width:1.0;stroke-dasharray:5.0,5.0;" x1="628" x2="628" y1="88.2969" y2="723.5547"/><line style="stroke:#A80036;stroke-width:1.0;stroke-dasharray:5.0,5.0;" x1="900" x2="900" y1="88.2969" y2="723.5547"/><line style="stroke:#A80036;stroke-width:1.0;stroke-dasharray:5.0,5.0;" x1="1140" x2="1140" y1="88.2969" y2="723.5547"/><line style="stroke:#A80036;stroke-width:1.0;stroke-dasharray:5.0,5.0;" x1="1312" x2="1312" y1="88.2969" y2="723.5547"/><line style="stroke:#A80036;stroke-width:1.0;stroke-dasharray:5.0,5.0;" x1="1482" x2="1482" y1="88.2969" y2="723.5547"/><line style="stroke:#A80036;stroke-width:1.0;stroke-dasharray:5.0,5.0;" x1="1664" x2="1664" y1="88.2969" y2="723.5547"/><line style="stroke:#A80036;stroke-width:1.0;stroke-dasharray:5.0,5.0;" x1="1870" x2="1870" y1="88.2969" y2="723.5547"/><text fill="#000000" font-family="sans-serif" font-size="14" lengthAdjust="spacing" textLength="206" x="5" y="84.9951">Gestor de Serviços Helpdesk</text><ellipse cx="111" cy="15" fill="#FEFECE" filter="url(#f19bg89zu6wb5r)" rx="8" ry="8" style="stroke:#A80036;stroke-width:2.0;"/><path d="M111,23 L111,50 M98,31 L124,31 M111,50 L98,65 M111,50 L124,65 " fill="none" filter="url(#f19bg89zu6wb5r)" style="stroke:#A80036;stroke-width:2.0;"/><text fill="#000000" font-family="sans-serif" font-size="14" lengthAdjust="spacing" textLength="206" x="5" y="735.5498">Gestor de Serviços Helpdesk</text><ellipse cx="111" cy="748.8516" fill="#FEFECE" filter="url(#f19bg89zu6wb5r)" rx="8" ry="8" style="stroke:#A80036;stroke-width:2.0;"/><path d="M111,756.8516 L111,783.8516 M98,764.8516 L124,764.8516 M111,783.8516 L98,798.8516 M111,783.8516 L124,798.8516 " fill="none" filter="url(#f19bg89zu6wb5r)" style="stroke:#A80036;stroke-width:2.0;"/><rect fill="#FEFECE" filter="url(#f19bg89zu6wb5r)" height="30.2969" style="stroke:#A80036;stroke-width:1.5;" width="228" x="512" y="53"/><text fill="#000000" font-family="sans-serif" font-size="14" lengthAdjust="spacing" textLength="210" x="523" y="72.9951">AtribuirCriticidadeCatalogoUI</text><rect fill="#FEFECE" filter="url(#f19bg89zu6wb5r)" height="30.2969" style="stroke:#A80036;stroke-width:1.5;" width="228" x="512" y="722.5547"/><text fill="#000000" font-family="sans-serif" font-size="14" lengthAdjust="spacing" textLength="210" x="523" y="742.5498">AtribuirCriticidadeCatalogoUI</text><rect fill="#FEFECE" filter="url(#f19bg89zu6wb5r)" height="30.2969" style="stroke:#A80036;stroke-width:1.5;" width="288" x="754" y="53"/><text fill="#000000" font-family="sans-serif" font-size="14" lengthAdjust="spacing" textLength="270" x="765" y="72.9951">AtribuirCriticidadeCatalogoController</text><rect fill="#FEFECE" filter="url(#f19bg89zu6wb5r)" height="30.2969" style="stroke:#A80036;stroke-width:1.5;" width="288" x="754" y="722.5547"/><text fill="#000000" font-family="sans-serif" font-size="14" lengthAdjust="spacing" textLength="270" x="765" y="742.5498">AtribuirCriticidadeCatalogoController</text><rect fill="#FEFECE" filter="url(#f19bg89zu6wb5r)" height="30.2969" style="stroke:#A80036;stroke-width:1.5;" width="165" x="1056" y="53"/><text fill="#000000" font-family="sans-serif" font-size="14" lengthAdjust="spacing" textLength="143" x="1067" y="72.9951">PersistenceContext</text><rect fill="#FEFECE" filter="url(#f19bg89zu6wb5r)" height="30.2969" style="stroke:#A80036;stroke-width:1.5;" width="165" x="1056" y="722.5547"/><text fill="#000000" font-family="sans-serif" font-size="14" lengthAdjust="spacing" textLength="143" x="1067" y="742.5498">PersistenceContext</text><rect fill="#FEFECE" filter="url(#f19bg89zu6wb5r)" height="30.2969" style="stroke:#A80036;stroke-width:1.5;" width="151" x="1235" y="53"/><text fill="#000000" font-family="sans-serif" font-size="14" lengthAdjust="spacing" textLength="133" x="1246" y="72.9951">RepositoryFactory</text><rect fill="#FEFECE" filter="url(#f19bg89zu6wb5r)" height="30.2969" style="stroke:#A80036;stroke-width:1.5;" width="151" x="1235" y="722.5547"/><text fill="#000000" font-family="sans-serif" font-size="14" lengthAdjust="spacing" textLength="133" x="1246" y="742.5498">RepositoryFactory</text><rect fill="#FEFECE" filter="url(#f19bg89zu6wb5r)" height="30.2969" style="stroke:#A80036;stroke-width:1.5;" width="161" x="1400" y="53"/><text fill="#000000" font-family="sans-serif" font-size="14" lengthAdjust="spacing" textLength="143" x="1411" y="72.9951">CatalogoRepository</text><rect fill="#FEFECE" filter="url(#f19bg89zu6wb5r)" height="30.2969" style="stroke:#A80036;stroke-width:1.5;" width="161" x="1400" y="722.5547"/><text fill="#000000" font-family="sans-serif" font-size="14" lengthAdjust="spacing" textLength="143" x="1411" y="742.5498">CatalogoRepository</text><rect fill="#FEFECE" filter="url(#f19bg89zu6wb5r)" height="30.2969" style="stroke:#A80036;stroke-width:1.5;" width="175" x="1575" y="53"/><text fill="#000000" font-family="sans-serif" font-size="14" lengthAdjust="spacing" textLength="157" x="1586" y="72.9951">CriticidadeRepository</text><rect fill="#FEFECE" filter="url(#f19bg89zu6wb5r)" height="30.2969" style="stroke:#A80036;stroke-width:1.5;" width="175" x="1575" y="722.5547"/><text fill="#000000" font-family="sans-serif" font-size="14" lengthAdjust="spacing" textLength="157" x="1586" y="742.5498">CriticidadeRepository</text><rect fill="#FEFECE" filter="url(#f19bg89zu6wb5r)" height="30.2969" style="stroke:#A80036;stroke-width:1.5;" width="208" x="1764" y="53"/><text fill="#000000" font-family="sans-serif" font-size="14" lengthAdjust="spacing" textLength="194" x="1771" y="72.9951">catalgoEscolhido: Catalogo</text><rect fill="#FEFECE" filter="url(#f19bg89zu6wb5r)" height="30.2969" style="stroke:#A80036;stroke-width:1.5;" width="208" x="1764" y="722.5547"/><text fill="#000000" font-family="sans-serif" font-size="14" lengthAdjust="spacing" textLength="194" x="1771" y="742.5498">catalgoEscolhido: Catalogo</text><rect fill="#FFFFFF" filter="url(#f19bg89zu6wb5r)" height="595.125" style="stroke:#A80036;stroke-width:1.0;" width="10" x="623" y="119.4297"/><rect fill="#FFFFFF" filter="url(#f19bg89zu6wb5r)" height="565.9922" style="stroke:#A80036;stroke-width:1.0;" width="10" x="895" y="148.5625"/><rect fill="#FFFFFF" filter="url(#f19bg89zu6wb5r)" height="29.1328" style="stroke:#A80036;stroke-width:1.0;" width="10" x="1135.5" y="177.6953"/><rect fill="#FFFFFF" filter="url(#f19bg89zu6wb5r)" height="29.1328" style="stroke:#A80036;stroke-width:1.0;" width="10" x="1135.5" y="412.4922"/><rect fill="#FFFFFF" filter="url(#f19bg89zu6wb5r)" height="59.1328" style="stroke:#A80036;stroke-width:1.0;" width="10" x="1307.5" y="206.8281"/><rect fill="#FFFFFF" filter="url(#f19bg89zu6wb5r)" height="59.1328" style="stroke:#A80036;stroke-width:1.0;" width="10" x="1307.5" y="441.625"/><rect fill="#FFFFFF" filter="url(#f19bg89zu6wb5r)" height="30" style="stroke:#A80036;stroke-width:1.0;" width="10" x="1477.5" y="235.9609"/><rect fill="#FFFFFF" filter="url(#f19bg89zu6wb5r)" height="30" style="stroke:#A80036;stroke-width:1.0;" width="10" x="1477.5" y="295.0938"/><rect fill="#FFFFFF" filter="url(#f19bg89zu6wb5r)" height="30" style="stroke:#A80036;stroke-width:1.0;" width="10" x="1659.5" y="470.7578"/><rect fill="#FFFFFF" filter="url(#f19bg89zu6wb5r)" height="30" style="stroke:#A80036;stroke-width:1.0;" width="10" x="1659.5" y="529.8906"/><polygon fill="#A80036" points="611,115.4297,621,119.4297,611,123.4297,615,119.4297" style="stroke:#A80036;stroke-width:1.0;"/><line style="stroke:#A80036;stroke-width:1.0;" x1="111" x2="617" y1="119.4297" y2="119.4297"/><text fill="#000000" font-family="sans-serif" font-size="13" font-weight="bold" lengthAdjust="spacing" textLength="9" x="118" y="114.3638">1</text><text fill="#000000" font-family="sans-serif" font-size="13" lengthAdjust="spacing" textLength="480" x="131" y="114.3638">começa o processo de atribuição de um nível de criticidade a um catálogo.</text><polygon fill="#A80036" points="883,144.5625,893,148.5625,883,152.5625,887,148.5625" style="stroke:#A80036;stroke-width:1.0;"/><line style="stroke:#A80036;stroke-width:1.0;" x1="633" x2="889" y1="148.5625" y2="148.5625"/><text fill="#000000" font-family="sans-serif" font-size="13" font-weight="bold" lengthAdjust="spacing" textLength="9" x="640" y="143.4966">2</text><text fill="#000000" font-family="sans-serif" font-size="13" lengthAdjust="spacing" textLength="85" x="653" y="143.4966">getCatalogos</text><polygon fill="#A80036" points="1123.5,173.6953,1133.5,177.6953,1123.5,181.6953,1127.5,177.6953" style="stroke:#A80036;stroke-width:1.0;"/><line style="stroke:#A80036;stroke-width:1.0;" x1="905" x2="1129.5" y1="177.6953" y2="177.6953"/><text fill="#000000" font-family="sans-serif" font-size="13" font-weight="bold" lengthAdjust="spacing" textLength="8" x="912" y="172.6294">3</text><text fill="#000000" font-family="sans-serif" font-size="13" lengthAdjust="spacing" textLength="85" x="924" y="172.6294">repositories()</text><polygon fill="#A80036" points="1295.5,202.8281,1305.5,206.8281,1295.5,210.8281,1299.5,206.8281" style="stroke:#A80036;stroke-width:1.0;"/><line style="stroke:#A80036;stroke-width:1.0;" x1="1140.5" x2="1301.5" y1="206.8281" y2="206.8281"/><text fill="#000000" font-family="sans-serif" font-size="13" font-weight="bold" lengthAdjust="spacing" textLength="9" x="1147.5" y="201.7622">4</text><text fill="#000000" font-family="sans-serif" font-size="13" lengthAdjust="spacing" textLength="41" x="1160.5" y="201.7622">create</text><polygon fill="#A80036" points="1465.5,231.9609,1475.5,235.9609,1465.5,239.9609,1469.5,235.9609" style="stroke:#A80036;stroke-width:1.0;"/><line style="stroke:#A80036;stroke-width:1.0;" x1="1317.5" x2="1471.5" y1="235.9609" y2="235.9609"/><text fill="#000000" font-family="sans-serif" font-size="13" font-weight="bold" lengthAdjust="spacing" textLength="9" x="1324.5" y="230.895">5</text><text fill="#000000" font-family="sans-serif" font-size="13" lengthAdjust="spacing" textLength="41" x="1337.5" y="230.895">create</text><polygon fill="#A80036" points="1465.5,291.0938,1475.5,295.0938,1465.5,299.0938,1469.5,295.0938" style="stroke:#A80036;stroke-width:1.0;"/><line style="stroke:#A80036;stroke-width:1.0;" x1="905" x2="1471.5" y1="295.0938" y2="295.0938"/><text fill="#000000" font-family="sans-serif" font-size="13" font-weight="bold" lengthAdjust="spacing" textLength="9" x="912" y="290.0278">6</text><text fill="#000000" font-family="sans-serif" font-size="13" lengthAdjust="spacing" textLength="39" x="925" y="290.0278">findAll</text><polygon fill="#A80036" points="122,350.2266,112,354.2266,122,358.2266,118,354.2266" style="stroke:#A80036;stroke-width:1.0;"/><line style="stroke:#A80036;stroke-width:1.0;" x1="116" x2="622" y1="354.2266" y2="354.2266"/><text fill="#000000" font-family="sans-serif" font-size="13" font-weight="bold" lengthAdjust="spacing" textLength="9" x="128" y="349.1606">7</text><text fill="#000000" font-family="sans-serif" font-size="13" lengthAdjust="spacing" textLength="301" x="141" y="349.1606">mostra os catalogos e solicita a escolha de um</text><polygon fill="#A80036" points="611,379.3594,621,383.3594,611,387.3594,615,383.3594" style="stroke:#A80036;stroke-width:1.0;"/><line style="stroke:#A80036;stroke-width:1.0;" x1="111" x2="617" y1="383.3594" y2="383.3594"/><text fill="#000000" font-family="sans-serif" font-size="13" font-weight="bold" lengthAdjust="spacing" textLength="9" x="118" y="378.2935">8</text><text fill="#000000" font-family="sans-serif" font-size="13" lengthAdjust="spacing" textLength="390" x="131" y="378.2935">escolhe o catálogo a que deseja atribuir o nível de criticidade</text><polygon fill="#A80036" points="1123.5,408.4922,1133.5,412.4922,1123.5,416.4922,1127.5,412.4922" style="stroke:#A80036;stroke-width:1.0;"/><line style="stroke:#A80036;stroke-width:1.0;" x1="905" x2="1129.5" y1="412.4922" y2="412.4922"/><text fill="#000000" font-family="sans-serif" font-size="13" font-weight="bold" lengthAdjust="spacing" textLength="9" x="912" y="407.4263">9</text><text fill="#000000" font-family="sans-serif" font-size="13" lengthAdjust="spacing" textLength="85" x="925" y="407.4263">repositories()</text><polygon fill="#A80036" points="1295.5,437.625,1305.5,441.625,1295.5,445.625,1299.5,441.625" style="stroke:#A80036;stroke-width:1.0;"/><line style="stroke:#A80036;stroke-width:1.0;" x1="1140.5" x2="1301.5" y1="441.625" y2="441.625"/><text fill="#000000" font-family="sans-serif" font-size="13" font-weight="bold" lengthAdjust="spacing" textLength="19" x="1147.5" y="436.5591">10</text><text fill="#000000" font-family="sans-serif" font-size="13" lengthAdjust="spacing" textLength="41" x="1170.5" y="436.5591">create</text><polygon fill="#A80036" points="1647.5,466.7578,1657.5,470.7578,1647.5,474.7578,1651.5,470.7578" style="stroke:#A80036;stroke-width:1.0;"/><line style="stroke:#A80036;stroke-width:1.0;" x1="1317.5" x2="1653.5" y1="470.7578" y2="470.7578"/><text fill="#000000" font-family="sans-serif" font-size="13" font-weight="bold" lengthAdjust="spacing" textLength="18" x="1324.5" y="465.6919">11</text><text fill="#000000" font-family="sans-serif" font-size="13" lengthAdjust="spacing" textLength="41" x="1346.5" y="465.6919">create</text><polygon fill="#A80036" points="1647.5,525.8906,1657.5,529.8906,1647.5,533.8906,1651.5,529.8906" style="stroke:#A80036;stroke-width:1.0;"/><line style="stroke:#A80036;stroke-width:1.0;" x1="905" x2="1653.5" y1="529.8906" y2="529.8906"/><text fill="#000000" font-family="sans-serif" font-size="13" font-weight="bold" lengthAdjust="spacing" textLength="18" x="912" y="524.8247">12</text><text fill="#000000" font-family="sans-serif" font-size="13" lengthAdjust="spacing" textLength="39" x="934" y="524.8247">findAll</text><polygon fill="#A80036" points="122,585.0234,112,589.0234,122,593.0234,118,589.0234" style="stroke:#A80036;stroke-width:1.0;"/><line style="stroke:#A80036;stroke-width:1.0;" x1="116" x2="622" y1="589.0234" y2="589.0234"/><text fill="#000000" font-family="sans-serif" font-size="13" font-weight="bold" lengthAdjust="spacing" textLength="17" x="128" y="583.9575">13</text><text fill="#000000" font-family="sans-serif" font-size="13" lengthAdjust="spacing" textLength="365" x="149" y="583.9575">mostra os níveis de criticidade e solicita a escolha de um</text><polygon fill="#A80036" points="611,614.1563,621,618.1563,611,622.1563,615,618.1563" style="stroke:#A80036;stroke-width:1.0;"/><line style="stroke:#A80036;stroke-width:1.0;" x1="111" x2="617" y1="618.1563" y2="618.1563"/><text fill="#000000" font-family="sans-serif" font-size="13" font-weight="bold" lengthAdjust="spacing" textLength="18" x="118" y="613.0903">14</text><text fill="#000000" font-family="sans-serif" font-size="13" lengthAdjust="spacing" textLength="402" x="140" y="613.0903">escolhe o nível de criticidade a que deseja associar o catálogo.</text><polygon fill="#A80036" points="883,643.2891,893,647.2891,883,651.2891,887,647.2891" style="stroke:#A80036;stroke-width:1.0;"/><line style="stroke:#A80036;stroke-width:1.0;" x1="633" x2="889" y1="647.2891" y2="647.2891"/><text fill="#000000" font-family="sans-serif" font-size="13" font-weight="bold" lengthAdjust="spacing" textLength="18" x="640" y="642.2231">15</text><text fill="#000000" font-family="sans-serif" font-size="13" lengthAdjust="spacing" textLength="128" x="662" y="642.2231">associateCriticidade</text><polygon fill="#A80036" points="1858,672.4219,1868,676.4219,1858,680.4219,1862,676.4219" style="stroke:#A80036;stroke-width:1.0;"/><line style="stroke:#A80036;stroke-width:1.0;" x1="905" x2="1864" y1="676.4219" y2="676.4219"/><text fill="#000000" font-family="sans-serif" font-size="13" font-weight="bold" lengthAdjust="spacing" textLength="18" x="912" y="671.356">16</text><text fill="#000000" font-family="sans-serif" font-size="13" lengthAdjust="spacing" textLength="193" x="934" y="671.356">associate(critcidadeEscolhida)</text><polygon fill="#A80036" points="122,701.5547,112,705.5547,122,709.5547,118,705.5547" style="stroke:#A80036;stroke-width:1.0;"/><line style="stroke:#A80036;stroke-width:1.0;" x1="116" x2="622" y1="705.5547" y2="705.5547"/><text fill="#000000" font-family="sans-serif" font-size="13" font-weight="bold" lengthAdjust="spacing" textLength="18" x="128" y="700.4888">17</text><text fill="#000000" font-family="sans-serif" font-size="13" lengthAdjust="spacing" textLength="222" x="150" y="700.4888">demonstra o sucesso da operação</text><!--MD5=[ec4cf9859bef39c88c811b7c6090799c]
@startuml
autonumber
actor "Gestor de Serviços Helpdesk" as GSH

participant " AtribuirCriticidadeCatalogoUI" as UI
participant " AtribuirCriticidadeCatalogoController" as CTRL
participant " PersistenceContext " as PC
participant " RepositoryFactory" as RF
participant " CatalogoRepository" as CR
participant " CriticidadeRepository" as CRIR
participant "catalgoEscolhido: Catalogo" as CAL

GSH -> UI : começa o processo de atribuição de um nível de criticidade a um catálogo.
activate UI
UI -> CTRL : getCatalogos
activate CTRL
CTRL-> PC : repositories()
activate PC
PC -> RF : create
deactivate PC
activate RF
RF ->CR : create 
activate CR
deactivate RF

deactivate CR
CTRL -> CR : findAll
activate CR
deactivate CR
UI -> GSH : mostra os catalogos e solicita a escolha de um
GSH -> UI : escolhe o catálogo a que deseja atribuir o nível de criticidade
CTRL-> PC : repositories()
activate PC
PC -> RF : create
deactivate PC
activate RF
RF -> CRIR : create
activate CRIR
deactivate RF
deactivate CRIR

CTRL-> CRIR :findAll
activate CRIR
deactivate CRIR
UI -> GSH :mostra os níveis de criticidade e solicita a escolha de um
GSH -> UI : escolhe o nível de criticidade a que deseja associar o catálogo.
UI -> CTRL : associateCriticidade
CTRL -> CAL : associate(critcidadeEscolhida)
UI-> GSH : demonstra o sucesso da operação
@enduml

PlantUML version 1.2021.7beta2(Unknown compile time)
(GPL source distribution)
Java Runtime: Java(TM) SE Runtime Environment
JVM: Java HotSpot(TM) 64-Bit Server VM
Default Encoding: UTF-8
Language: en
Country: US
--></g></svg>