<?xml version="1.0" encoding="UTF-8" standalone="no"?><svg xmlns="http://www.w3.org/2000/svg" xmlns:xlink="http://www.w3.org/1999/xlink" contentScriptType="application/ecmascript" contentStyleType="text/css" height="809px" preserveAspectRatio="none" style="width:2061px;height:809px;background:#FFFFFF;" version="1.1" viewBox="0 0 2061 809" width="2061px" zoomAndPan="magnify"><defs><filter height="300%" id="f6sa9lr7y08b" width="300%" x="-1" y="-1"><feGaussianBlur result="blurOut" stdDeviation="2.0"/><feColorMatrix in="blurOut" result="blurOut2" type="matrix" values="0 0 0 0 0 0 0 0 0 0 0 0 0 0 0 0 0 0 .4 0"/><feOffset dx="4.0" dy="4.0" in="blurOut2" result="blurOut3"/><feBlend in="SourceGraphic" in2="blurOut3" mode="normal"/></filter></defs><g><text fill="#000000" font-family="sans-serif" font-size="18" lengthAdjust="spacing" textLength="195" x="930.5" y="28.708">SD - Solicitar Pedidos</text><rect fill="#FFFFFF" filter="url(#f6sa9lr7y08b)" height="662.6563" style="stroke:#A80036;stroke-width:1.0;" width="10" x="72" y="85.25"/><rect fill="#FFFFFF" filter="url(#f6sa9lr7y08b)" height="662.6563" style="stroke:#A80036;stroke-width:1.0;" width="10" x="558" y="85.25"/><rect fill="#FFFFFF" filter="url(#f6sa9lr7y08b)" height="30" style="stroke:#A80036;stroke-width:1.0;" width="10" x="1812.5" y="281.1797"/><rect fill="#FFFFFF" filter="url(#f6sa9lr7y08b)" height="14" style="stroke:#A80036;stroke-width:1.0;" width="10" x="1812.5" y="340.3125"/><rect fill="#FFFFFF" filter="url(#f6sa9lr7y08b)" height="30" style="stroke:#A80036;stroke-width:1.0;" width="10" x="1972" y="499.9766"/><rect fill="#FFFFFF" filter="url(#f6sa9lr7y08b)" height="14" style="stroke:#A80036;stroke-width:1.0;" width="10" x="1972" y="559.1094"/><line style="stroke:#A80036;stroke-width:1.0;stroke-dasharray:5.0,5.0;" x1="77" x2="77" y1="75.25" y2="765.9063"/><line style="stroke:#A80036;stroke-width:1.0;stroke-dasharray:5.0,5.0;" x1="563" x2="563" y1="75.25" y2="765.9063"/><line style="stroke:#A80036;stroke-width:1.0;stroke-dasharray:5.0,5.0;" x1="1275" x2="1275" y1="75.25" y2="765.9063"/><line style="stroke:#A80036;stroke-width:1.0;stroke-dasharray:5.0,5.0;" x1="1355" x2="1355" y1="75.25" y2="765.9063"/><line style="stroke:#A80036;stroke-width:1.0;stroke-dasharray:5.0,5.0;" x1="1483" x2="1483" y1="75.25" y2="765.9063"/><line style="stroke:#A80036;stroke-width:1.0;stroke-dasharray:5.0,5.0;" x1="1654" x2="1654" y1="75.25" y2="765.9063"/><line style="stroke:#A80036;stroke-width:1.0;stroke-dasharray:5.0,5.0;" x1="1817" x2="1817" y1="75.25" y2="765.9063"/><line style="stroke:#A80036;stroke-width:1.0;stroke-dasharray:5.0,5.0;" x1="1977" x2="1977" y1="75.25" y2="765.9063"/><rect fill="#FEFECE" filter="url(#f6sa9lr7y08b)" height="30.2969" style="stroke:#A80036;stroke-width:1.5;" width="140" x="5" y="39.9531"/><text fill="#000000" font-family="sans-serif" font-size="14" lengthAdjust="spacing" textLength="126" x="12" y="59.9482">:SolicitarPedidoUI</text><rect fill="#FEFECE" filter="url(#f6sa9lr7y08b)" height="30.2969" style="stroke:#A80036;stroke-width:1.5;" width="140" x="5" y="764.9063"/><text fill="#000000" font-family="sans-serif" font-size="14" lengthAdjust="spacing" textLength="126" x="12" y="784.9014">:SolicitarPedidoUI</text><rect fill="#FEFECE" filter="url(#f6sa9lr7y08b)" height="30.2969" style="stroke:#A80036;stroke-width:1.5;" width="200" x="461" y="39.9531"/><text fill="#000000" font-family="sans-serif" font-size="14" lengthAdjust="spacing" textLength="186" x="468" y="59.9482">:SolicitarPedidoController</text><rect fill="#FEFECE" filter="url(#f6sa9lr7y08b)" height="30.2969" style="stroke:#A80036;stroke-width:1.5;" width="200" x="461" y="764.9063"/><text fill="#000000" font-family="sans-serif" font-size="14" lengthAdjust="spacing" textLength="186" x="468" y="784.9014">:SolicitarPedidoController</text><rect fill="#FEFECE" filter="url(#f6sa9lr7y08b)" height="30.2969" style="stroke:#A80036;stroke-width:1.5;" width="68" x="1239" y="39.9531"/><text fill="#000000" font-family="sans-serif" font-size="14" lengthAdjust="spacing" textLength="54" x="1246" y="59.9482">:Pedido</text><rect fill="#FEFECE" filter="url(#f6sa9lr7y08b)" height="30.2969" style="stroke:#A80036;stroke-width:1.5;" width="68" x="1239" y="764.9063"/><text fill="#000000" font-family="sans-serif" font-size="14" lengthAdjust="spacing" textLength="54" x="1246" y="784.9014">:Pedido</text><rect fill="#FEFECE" filter="url(#f6sa9lr7y08b)" height="30.2969" style="stroke:#A80036;stroke-width:1.5;" width="65" x="1321" y="39.9531"/><text fill="#000000" font-family="sans-serif" font-size="14" lengthAdjust="spacing" textLength="51" x="1328" y="59.9482">:Tarefa</text><rect fill="#FEFECE" filter="url(#f6sa9lr7y08b)" height="30.2969" style="stroke:#A80036;stroke-width:1.5;" width="65" x="1321" y="764.9063"/><text fill="#000000" font-family="sans-serif" font-size="14" lengthAdjust="spacing" textLength="51" x="1328" y="784.9014">:Tarefa</text><rect fill="#FEFECE" filter="url(#f6sa9lr7y08b)" height="30.2969" style="stroke:#A80036;stroke-width:1.5;" width="162" x="1400" y="39.9531"/><text fill="#000000" font-family="sans-serif" font-size="14" lengthAdjust="spacing" textLength="148" x="1407" y="59.9482">:PersistenceContext</text><rect fill="#FEFECE" filter="url(#f6sa9lr7y08b)" height="30.2969" style="stroke:#A80036;stroke-width:1.5;" width="162" x="1400" y="764.9063"/><text fill="#000000" font-family="sans-serif" font-size="14" lengthAdjust="spacing" textLength="148" x="1407" y="784.9014">:PersistenceContext</text><rect fill="#FEFECE" filter="url(#f6sa9lr7y08b)" height="30.2969" style="stroke:#A80036;stroke-width:1.5;" width="152" x="1576" y="39.9531"/><text fill="#000000" font-family="sans-serif" font-size="14" lengthAdjust="spacing" textLength="138" x="1583" y="59.9482">:RepositoryFactory</text><rect fill="#FEFECE" filter="url(#f6sa9lr7y08b)" height="30.2969" style="stroke:#A80036;stroke-width:1.5;" width="152" x="1576" y="764.9063"/><text fill="#000000" font-family="sans-serif" font-size="14" lengthAdjust="spacing" textLength="138" x="1583" y="784.9014">:RepositoryFactory</text><rect fill="#FEFECE" filter="url(#f6sa9lr7y08b)" height="30.2969" style="stroke:#A80036;stroke-width:1.5;" width="147" x="1742" y="39.9531"/><text fill="#000000" font-family="sans-serif" font-size="14" lengthAdjust="spacing" textLength="133" x="1749" y="59.9482">:PedidoRepository</text><rect fill="#FEFECE" filter="url(#f6sa9lr7y08b)" height="30.2969" style="stroke:#A80036;stroke-width:1.5;" width="147" x="1742" y="764.9063"/><text fill="#000000" font-family="sans-serif" font-size="14" lengthAdjust="spacing" textLength="133" x="1749" y="784.9014">:PedidoRepository</text><rect fill="#FEFECE" filter="url(#f6sa9lr7y08b)" height="30.2969" style="stroke:#A80036;stroke-width:1.5;" width="144" x="1903" y="39.9531"/><text fill="#000000" font-family="sans-serif" font-size="14" lengthAdjust="spacing" textLength="130" x="1910" y="59.9482">:TarefaRepository</text><rect fill="#FEFECE" filter="url(#f6sa9lr7y08b)" height="30.2969" style="stroke:#A80036;stroke-width:1.5;" width="144" x="1903" y="764.9063"/><text fill="#000000" font-family="sans-serif" font-size="14" lengthAdjust="spacing" textLength="130" x="1910" y="784.9014">:TarefaRepository</text><rect fill="#FFFFFF" filter="url(#f6sa9lr7y08b)" height="662.6563" style="stroke:#A80036;stroke-width:1.0;" width="10" x="72" y="85.25"/><rect fill="#FFFFFF" filter="url(#f6sa9lr7y08b)" height="662.6563" style="stroke:#A80036;stroke-width:1.0;" width="10" x="558" y="85.25"/><rect fill="#FFFFFF" filter="url(#f6sa9lr7y08b)" height="30" style="stroke:#A80036;stroke-width:1.0;" width="10" x="1812.5" y="281.1797"/><rect fill="#FFFFFF" filter="url(#f6sa9lr7y08b)" height="14" style="stroke:#A80036;stroke-width:1.0;" width="10" x="1812.5" y="340.3125"/><rect fill="#FFFFFF" filter="url(#f6sa9lr7y08b)" height="30" style="stroke:#A80036;stroke-width:1.0;" width="10" x="1972" y="499.9766"/><rect fill="#FFFFFF" filter="url(#f6sa9lr7y08b)" height="14" style="stroke:#A80036;stroke-width:1.0;" width="10" x="1972" y="559.1094"/><rect fill="#FFFFFF" filter="url(#f6sa9lr7y08b)" height="40.2656" style="stroke:#000000;stroke-width:2.0;" width="1890" x="2" y="85.25"/><polygon fill="#EEEEEE" points="2,85.25,70,85.25,70,92.25,60,102.25,2,102.25,2,85.25" style="stroke:#000000;stroke-width:2.0;"/><text fill="#000000" font-family="sans-serif" font-size="13" font-weight="bold" lengthAdjust="spacing" textLength="23" x="15" y="99.3169">ref</text><text fill="#000000" font-family="sans-serif" font-size="13" lengthAdjust="spacing" textLength="575" x="661.5" y="118.3169">Referência ao Caso De Uso 3002 - Listagem de todos os catálogos e respectivos serviços</text><line style="stroke:#A80036;stroke-width:1.0;" x1="82" x2="124" y1="151.6484" y2="151.6484"/><line style="stroke:#A80036;stroke-width:1.0;" x1="124" x2="124" y1="151.6484" y2="164.6484"/><line style="stroke:#A80036;stroke-width:1.0;" x1="83" x2="124" y1="164.6484" y2="164.6484"/><polygon fill="#A80036" points="93,160.6484,83,164.6484,93,168.6484,89,164.6484" style="stroke:#A80036;stroke-width:1.0;"/><text fill="#000000" font-family="sans-serif" font-size="13" lengthAdjust="spacing" textLength="61" x="89" y="146.5825">doShow()</text><polygon fill="#A80036" points="546,189.7813,556,193.7813,546,197.7813,550,193.7813" style="stroke:#A80036;stroke-width:1.0;"/><line style="stroke:#A80036;stroke-width:1.0;" x1="82" x2="552" y1="193.7813" y2="193.7813"/><text fill="#000000" font-family="sans-serif" font-size="13" lengthAdjust="spacing" textLength="41" x="89" y="188.7153">create</text><polygon fill="#A80036" points="1471,218.9141,1481,222.9141,1471,226.9141,1475,222.9141" style="stroke:#A80036;stroke-width:1.0;"/><line style="stroke:#A80036;stroke-width:1.0;" x1="568" x2="1477" y1="222.9141" y2="222.9141"/><text fill="#000000" font-family="sans-serif" font-size="13" lengthAdjust="spacing" textLength="85" x="575" y="217.8481">repositories()</text><polygon fill="#A80036" points="1642,248.0469,1652,252.0469,1642,256.0469,1646,252.0469" style="stroke:#A80036;stroke-width:1.0;"/><line style="stroke:#A80036;stroke-width:1.0;" x1="1483" x2="1648" y1="252.0469" y2="252.0469"/><text fill="#000000" font-family="sans-serif" font-size="13" lengthAdjust="spacing" textLength="41" x="1490" y="246.981">create</text><polygon fill="#A80036" points="1800.5,277.1797,1810.5,281.1797,1800.5,285.1797,1804.5,281.1797" style="stroke:#A80036;stroke-width:1.0;"/><line style="stroke:#A80036;stroke-width:1.0;" x1="1654" x2="1806.5" y1="281.1797" y2="281.1797"/><text fill="#000000" font-family="sans-serif" font-size="13" lengthAdjust="spacing" textLength="41" x="1661" y="276.1138">create</text><polygon fill="#A80036" points="1800.5,336.3125,1810.5,340.3125,1800.5,344.3125,1804.5,340.3125" style="stroke:#A80036;stroke-width:1.0;"/><line style="stroke:#A80036;stroke-width:1.0;" x1="568" x2="1806.5" y1="340.3125" y2="340.3125"/><text fill="#000000" font-family="sans-serif" font-size="13" lengthAdjust="spacing" textLength="96" x="575" y="335.2466">list = pedidos()</text><polygon fill="#A80036" points="579,350.3125,569,354.3125,579,358.3125,575,354.3125" style="stroke:#A80036;stroke-width:1.0;"/><line style="stroke:#A80036;stroke-width:1.0;stroke-dasharray:2.0,2.0;" x1="573" x2="1816.5" y1="354.3125" y2="354.3125"/><polygon fill="#A80036" points="93,379.4453,83,383.4453,93,387.4453,89,383.4453" style="stroke:#A80036;stroke-width:1.0;"/><line style="stroke:#A80036;stroke-width:1.0;stroke-dasharray:2.0,2.0;" x1="87" x2="557" y1="383.4453" y2="383.4453"/><text fill="#000000" font-family="sans-serif" font-size="13" lengthAdjust="spacing" textLength="18" x="99" y="378.3794">list</text><polygon fill="#A80036" points="546,408.5781,556,412.5781,546,416.5781,550,412.5781" style="stroke:#A80036;stroke-width:1.0;"/><line style="stroke:#A80036;stroke-width:1.0;" x1="82" x2="552" y1="412.5781" y2="412.5781"/><text fill="#000000" font-family="sans-serif" font-size="13" lengthAdjust="spacing" textLength="41" x="89" y="407.5122">create</text><polygon fill="#A80036" points="1471,437.7109,1481,441.7109,1471,445.7109,1475,441.7109" style="stroke:#A80036;stroke-width:1.0;"/><line style="stroke:#A80036;stroke-width:1.0;" x1="568" x2="1477" y1="441.7109" y2="441.7109"/><text fill="#000000" font-family="sans-serif" font-size="13" lengthAdjust="spacing" textLength="85" x="575" y="436.645">repositories()</text><polygon fill="#A80036" points="1642,466.8438,1652,470.8438,1642,474.8438,1646,470.8438" style="stroke:#A80036;stroke-width:1.0;"/><line style="stroke:#A80036;stroke-width:1.0;" x1="1483" x2="1648" y1="470.8438" y2="470.8438"/><text fill="#000000" font-family="sans-serif" font-size="13" lengthAdjust="spacing" textLength="41" x="1490" y="465.7778">create</text><polygon fill="#A80036" points="1960,495.9766,1970,499.9766,1960,503.9766,1964,499.9766" style="stroke:#A80036;stroke-width:1.0;"/><line style="stroke:#A80036;stroke-width:1.0;" x1="1654" x2="1966" y1="499.9766" y2="499.9766"/><text fill="#000000" font-family="sans-serif" font-size="13" lengthAdjust="spacing" textLength="41" x="1661" y="494.9106">create</text><polygon fill="#A80036" points="1960,555.1094,1970,559.1094,1960,563.1094,1964,559.1094" style="stroke:#A80036;stroke-width:1.0;"/><line style="stroke:#A80036;stroke-width:1.0;" x1="568" x2="1966" y1="559.1094" y2="559.1094"/><text fill="#000000" font-family="sans-serif" font-size="13" lengthAdjust="spacing" textLength="92" x="575" y="554.0435">list = tarefas()</text><polygon fill="#A80036" points="579,569.1094,569,573.1094,579,577.1094,575,573.1094" style="stroke:#A80036;stroke-width:1.0;"/><line style="stroke:#A80036;stroke-width:1.0;stroke-dasharray:2.0,2.0;" x1="573" x2="1816.5" y1="573.1094" y2="573.1094"/><polygon fill="#A80036" points="93,598.2422,83,602.2422,93,606.2422,89,602.2422" style="stroke:#A80036;stroke-width:1.0;"/><line style="stroke:#A80036;stroke-width:1.0;stroke-dasharray:2.0,2.0;" x1="87" x2="557" y1="602.2422" y2="602.2422"/><text fill="#000000" font-family="sans-serif" font-size="13" lengthAdjust="spacing" textLength="18" x="99" y="597.1763">list</text><polygon fill="#A80036" points="546,627.375,556,631.375,546,635.375,550,631.375" style="stroke:#A80036;stroke-width:1.0;"/><line style="stroke:#A80036;stroke-width:1.0;" x1="82" x2="552" y1="631.375" y2="631.375"/><text fill="#000000" font-family="sans-serif" font-size="13" lengthAdjust="spacing" textLength="452" x="89" y="626.3091">criarPedido(urgencia, dataLimiteResolucao, servico, dadosFormulario);</text><polygon fill="#A80036" points="1263,656.5078,1273,660.5078,1263,664.5078,1267,660.5078" style="stroke:#A80036;stroke-width:1.0;"/><line style="stroke:#A80036;stroke-width:1.0;" x1="568" x2="1269" y1="660.5078" y2="660.5078"/><text fill="#000000" font-family="sans-serif" font-size="13" lengthAdjust="spacing" textLength="683" x="575" y="655.4419">novoPedido  = novoPedido(urgencia, dataLimiteResolucao, servico, identificadorPedido, dadosFormulario);</text><polygon fill="#A80036" points="1805.5,685.6406,1815.5,689.6406,1805.5,693.6406,1809.5,689.6406" style="stroke:#A80036;stroke-width:1.0;"/><line style="stroke:#A80036;stroke-width:1.0;" x1="568" x2="1811.5" y1="689.6406" y2="689.6406"/><text fill="#000000" font-family="sans-serif" font-size="13" lengthAdjust="spacing" textLength="116" x="575" y="684.5747">save(novoPedido)</text><polygon fill="#A80036" points="1343.5,714.7734,1353.5,718.7734,1343.5,722.7734,1347.5,718.7734" style="stroke:#A80036;stroke-width:1.0;"/><line style="stroke:#A80036;stroke-width:1.0;" x1="568" x2="1349.5" y1="718.7734" y2="718.7734"/><text fill="#000000" font-family="sans-serif" font-size="13" lengthAdjust="spacing" textLength="325" x="575" y="713.7075">novaTarefaAprovacao = novaTarefa(novoPedido);</text><polygon fill="#A80036" points="1965,743.9063,1975,747.9063,1965,751.9063,1969,747.9063" style="stroke:#A80036;stroke-width:1.0;"/><line style="stroke:#A80036;stroke-width:1.0;" x1="563" x2="1971" y1="747.9063" y2="747.9063"/><text fill="#000000" font-family="sans-serif" font-size="13" lengthAdjust="spacing" textLength="184" x="570" y="742.8403">save(novaTarefaAprovacao)</text><!--MD5=[b6d156d2d6e7b10dd9c791569be5aeb8]
@startuml
title SD - Solicitar Pedidos

    participant ":SolicitarPedidoUI" as lui
    participant ":SolicitarPedidoController" as ctrl
    participant ":Pedido" as pdd
    participant ":Tarefa" as tarefa
    participant ":PersistenceContext" as pc
    participant ":RepositoryFactory" as rf
    participant ":PedidoRepository" as repo
    participant ":TarefaRepository" as repo3

    ref over  lui , ctrl, pc, rf, repo, pdd : Referência ao Caso De Uso 3002 - Listagem de todos os catálogos e respectivos serviços
        activate lui
        activate ctrl
        
    lui->lui:doShow()    
    lui->ctrl:create
    ctrl->pc:repositories()
    pc->rf:create
    rf->repo:create
    activate repo
    deactivate repo

    ctrl->repo: list = pedidos()
	activate repo
	repo- ->ctrl:
	deactivate repo
	ctrl- ->lui: list

    lui->ctrl:create
    ctrl->pc:repositories()
    pc->rf:create
    rf->repo3:create
    activate repo3
    deactivate repo3
    
    ctrl->repo3: list = tarefas()
	activate repo3
	repo- ->ctrl:
	deactivate repo3
		ctrl- ->lui: list

    lui->ctrl :criarPedido(urgencia, dataLimiteResolucao, servico, dadosFormulario);
    ctrl->pdd :novoPedido  = novoPedido(urgencia, dataLimiteResolucao, servico, identificadorPedido, dadosFormulario);
    ctrl->repo:save(novoPedido)
    
     ctrl->tarefa :novaTarefaAprovacao = novaTarefa(novoPedido);
    ctrl->repo3:save(novaTarefaAprovacao)
    deactivate ctrl
       deactivate lui
@enduml

PlantUML version 1.2021.7(Sun May 23 12:40:07 UTC 2021)
(GPL source distribution)
Java Runtime: Java(TM) SE Runtime Environment
JVM: Java HotSpot(TM) 64-Bit Server VM
Default Encoding: UTF-8
Language: en
Country: US
--></g></svg>