<?xml version="1.0" encoding="UTF-8" standalone="no"?><svg xmlns="http://www.w3.org/2000/svg" xmlns:xlink="http://www.w3.org/1999/xlink" contentScriptType="application/ecmascript" contentStyleType="text/css" height="1639px" preserveAspectRatio="none" style="width:1745px;height:1639px;" version="1.1" viewBox="0 0 1745 1639" width="1745px" zoomAndPan="magnify"><defs><filter height="300%" id="f10qgidxh3p8ep" width="300%" x="-1" y="-1"><feGaussianBlur result="blurOut" stdDeviation="2.0"/><feColorMatrix in="blurOut" result="blurOut2" type="matrix" values="0 0 0 0 0 0 0 0 0 0 0 0 0 0 0 0 0 0 .4 0"/><feOffset dx="4.0" dy="4.0" in="blurOut2" result="blurOut3"/><feBlend in="SourceGraphic" in2="blurOut3" mode="normal"/></filter></defs><g><rect fill="#FFFFFF" filter="url(#f10qgidxh3p8ep)" height="1498.25" style="stroke:#A80036;stroke-width:1.0;" width="10" x="109" y="69.2188"/><rect fill="#FFFFFF" filter="url(#f10qgidxh3p8ep)" height="1475.8984" style="stroke:#A80036;stroke-width:1.0;" width="10" x="606" y="91.5703"/><rect fill="#FFFFFF" filter="url(#f10qgidxh3p8ep)" height="30" style="stroke:#A80036;stroke-width:1.0;" width="10" x="832" y="152.2734"/><rect fill="#FFFFFF" filter="url(#f10qgidxh3p8ep)" height="30" style="stroke:#A80036;stroke-width:1.0;" width="10" x="972" y="212.625"/><rect fill="#FFFFFF" filter="url(#f10qgidxh3p8ep)" height="60.3516" style="stroke:#A80036;stroke-width:1.0;" width="10" x="1108" y="272.9766"/><rect fill="#FFFFFF" filter="url(#f10qgidxh3p8ep)" height="30" style="stroke:#A80036;stroke-width:1.0;" width="10" x="1263" y="303.3281"/><rect fill="#FFFFFF" filter="url(#f10qgidxh3p8ep)" height="30" style="stroke:#A80036;stroke-width:1.0;" width="10" x="1406" y="462.7344"/><rect fill="#FFFFFF" filter="url(#f10qgidxh3p8ep)" height="30" style="stroke:#A80036;stroke-width:1.0;" width="10" x="1406" y="1190.3594"/><rect fill="#FFFFFF" filter="url(#f10qgidxh3p8ep)" height="30" style="stroke:#A80036;stroke-width:1.0;" width="10" x="1566.5" y="523.0859"/><rect fill="#FFFFFF" filter="url(#f10qgidxh3p8ep)" height="30" style="stroke:#A80036;stroke-width:1.0;" width="10" x="1566.5" y="1036.9531"/><rect fill="#FFFFFF" filter="url(#f10qgidxh3p8ep)" height="30" style="stroke:#A80036;stroke-width:1.0;" width="10" x="1566.5" y="1250.7109"/><rect fill="#FFFFFF" filter="url(#f10qgidxh3p8ep)" height="30" style="stroke:#A80036;stroke-width:1.0;" width="10" x="1566.5" y="1522.4688"/><rect fill="#FFFFFF" filter="url(#f10qgidxh3p8ep)" height="30" style="stroke:#A80036;stroke-width:1.0;" width="10" x="1674.5" y="644.1406"/><rect fill="#FFFFFF" filter="url(#f10qgidxh3p8ep)" height="30" style="stroke:#A80036;stroke-width:1.0;" width="10" x="1674.5" y="704.4922"/><rect fill="#FFFFFF" filter="url(#f10qgidxh3p8ep)" height="30" style="stroke:#A80036;stroke-width:1.0;" width="10" x="1674.5" y="833.5469"/><rect fill="#FFFFFF" filter="url(#f10qgidxh3p8ep)" height="30" style="stroke:#A80036;stroke-width:1.0;" width="10" x="1674.5" y="969.6016"/><rect fill="#FFFFFF" filter="url(#f10qgidxh3p8ep)" height="30" style="stroke:#A80036;stroke-width:1.0;" width="10" x="1674.5" y="1341.4141"/><rect fill="#FFFFFF" filter="url(#f10qgidxh3p8ep)" height="30" style="stroke:#A80036;stroke-width:1.0;" width="10" x="1674.5" y="1401.7656"/><rect fill="#FFFFFF" filter="url(#f10qgidxh3p8ep)" height="30" style="stroke:#A80036;stroke-width:1.0;" width="10" x="1674.5" y="1462.1172"/><rect fill="#FFFFFF" filter="url(#f10qgidxh3p8ep)" height="683.2734" style="stroke:#000000;stroke-width:2.0;" width="1721.5" x="10" y="391.6797"/><rect fill="#FFFFFF" filter="url(#f10qgidxh3p8ep)" height="122.0547" style="stroke:#000000;stroke-width:2.0;" width="1287.5" x="434" y="749.4922"/><rect fill="#FFFFFF" filter="url(#f10qgidxh3p8ep)" height="122.0547" style="stroke:#000000;stroke-width:2.0;" width="1292.5" x="429" y="885.5469"/><rect fill="#FFFFFF" filter="url(#f10qgidxh3p8ep)" height="471.5156" style="stroke:#000000;stroke-width:2.0;" width="1711.5" x="10" y="1088.9531"/><line style="stroke:#A80036;stroke-width:1.0;stroke-dasharray:5.0,5.0;" x1="114" x2="114" y1="59.2188" y2="1577.4688"/><line style="stroke:#A80036;stroke-width:1.0;stroke-dasharray:5.0,5.0;" x1="611" x2="611" y1="59.2188" y2="1577.4688"/><line style="stroke:#A80036;stroke-width:1.0;stroke-dasharray:5.0,5.0;" x1="836.5" x2="836.5" y1="59.2188" y2="1577.4688"/><line style="stroke:#A80036;stroke-width:1.0;stroke-dasharray:5.0,5.0;" x1="976.5" x2="976.5" y1="59.2188" y2="1577.4688"/><line style="stroke:#A80036;stroke-width:1.0;stroke-dasharray:5.0,5.0;" x1="1112.5" x2="1112.5" y1="59.2188" y2="1577.4688"/><line style="stroke:#A80036;stroke-width:1.0;stroke-dasharray:5.0,5.0;" x1="1267.5" x2="1267.5" y1="59.2188" y2="1577.4688"/><line style="stroke:#A80036;stroke-width:1.0;stroke-dasharray:5.0,5.0;" x1="1410.5" x2="1410.5" y1="59.2188" y2="1577.4688"/><line style="stroke:#A80036;stroke-width:1.0;stroke-dasharray:5.0,5.0;" x1="1571.5" x2="1571.5" y1="59.2188" y2="1577.4688"/><line style="stroke:#A80036;stroke-width:1.0;stroke-dasharray:5.0,5.0;" x1="1679.5" x2="1679.5" y1="59.2188" y2="1577.4688"/><rect fill="#FEFECE" filter="url(#f10qgidxh3p8ep)" height="31.6094" style="stroke:#A80036;stroke-width:1.5;" width="184" x="20" y="22.6094"/><text fill="#000000" font-family="sans-serif" font-size="14" lengthAdjust="spacing" textLength="170" x="27" y="44.1426">:RealizarTarefaPendenteUI</text><rect fill="#FEFECE" filter="url(#f10qgidxh3p8ep)" height="31.6094" style="stroke:#A80036;stroke-width:1.5;" width="184" x="20" y="1576.4688"/><text fill="#000000" font-family="sans-serif" font-size="14" lengthAdjust="spacing" textLength="170" x="27" y="1598.002">:RealizarTarefaPendenteUI</text><rect fill="#FEFECE" filter="url(#f10qgidxh3p8ep)" height="31.6094" style="stroke:#A80036;stroke-width:1.5;" width="234" x="492" y="22.6094"/><text fill="#000000" font-family="sans-serif" font-size="14" lengthAdjust="spacing" textLength="220" x="499" y="44.1426">:RealizarTarefaPendenteController</text><rect fill="#FEFECE" filter="url(#f10qgidxh3p8ep)" height="31.6094" style="stroke:#A80036;stroke-width:1.5;" width="234" x="492" y="1576.4688"/><text fill="#000000" font-family="sans-serif" font-size="14" lengthAdjust="spacing" textLength="220" x="499" y="1598.002">:RealizarTarefaPendenteController</text><rect fill="#FEFECE" filter="url(#f10qgidxh3p8ep)" height="31.6094" style="stroke:#A80036;stroke-width:1.5;" width="105" x="782.5" y="22.6094"/><text fill="#000000" font-family="sans-serif" font-size="14" lengthAdjust="spacing" textLength="91" x="789.5" y="44.1426">:AuthzRegistry</text><rect fill="#FEFECE" filter="url(#f10qgidxh3p8ep)" height="31.6094" style="stroke:#A80036;stroke-width:1.5;" width="105" x="782.5" y="1576.4688"/><text fill="#000000" font-family="sans-serif" font-size="14" lengthAdjust="spacing" textLength="91" x="789.5" y="1598.002">:AuthzRegistry</text><rect fill="#FEFECE" filter="url(#f10qgidxh3p8ep)" height="49.2188" style="stroke:#A80036;stroke-width:1.5;" width="147" x="901.5" y="5"/><text fill="#000000" font-family="sans-serif" font-size="14" lengthAdjust="spacing" textLength="34" x="958" y="26.5332">authz</text><text fill="#000000" font-family="sans-serif" font-size="14" lengthAdjust="spacing" textLength="133" x="908.5" y="44.1426">:AuthorizationService</text><rect fill="#FEFECE" filter="url(#f10qgidxh3p8ep)" height="49.2188" style="stroke:#A80036;stroke-width:1.5;" width="147" x="901.5" y="1576.4688"/><text fill="#000000" font-family="sans-serif" font-size="14" lengthAdjust="spacing" textLength="34" x="958" y="1598.002">authz</text><text fill="#000000" font-family="sans-serif" font-size="14" lengthAdjust="spacing" textLength="133" x="908.5" y="1615.6113">:AuthorizationService</text><rect fill="#FEFECE" filter="url(#f10qgidxh3p8ep)" height="49.2188" style="stroke:#A80036;stroke-width:1.5;" width="97" x="1062.5" y="5"/><text fill="#000000" font-family="sans-serif" font-size="14" lengthAdjust="spacing" textLength="15" x="1103.5" y="26.5332">us</text><text fill="#000000" font-family="sans-serif" font-size="14" lengthAdjust="spacing" textLength="83" x="1069.5" y="44.1426">:UserSession</text><rect fill="#FEFECE" filter="url(#f10qgidxh3p8ep)" height="49.2188" style="stroke:#A80036;stroke-width:1.5;" width="97" x="1062.5" y="1576.4688"/><text fill="#000000" font-family="sans-serif" font-size="14" lengthAdjust="spacing" textLength="15" x="1103.5" y="1598.002">us</text><text fill="#000000" font-family="sans-serif" font-size="14" lengthAdjust="spacing" textLength="83" x="1069.5" y="1615.6113">:UserSession</text><rect fill="#FEFECE" filter="url(#f10qgidxh3p8ep)" height="49.2188" style="stroke:#A80036;stroke-width:1.5;" width="93" x="1219.5" y="5"/><text fill="#000000" font-family="sans-serif" font-size="14" lengthAdjust="spacing" textLength="15" x="1258.5" y="26.5332">su</text><text fill="#000000" font-family="sans-serif" font-size="14" lengthAdjust="spacing" textLength="79" x="1226.5" y="44.1426">:SystemUser</text><rect fill="#FEFECE" filter="url(#f10qgidxh3p8ep)" height="49.2188" style="stroke:#A80036;stroke-width:1.5;" width="93" x="1219.5" y="1576.4688"/><text fill="#000000" font-family="sans-serif" font-size="14" lengthAdjust="spacing" textLength="15" x="1258.5" y="1598.002">su</text><text fill="#000000" font-family="sans-serif" font-size="14" lengthAdjust="spacing" textLength="79" x="1226.5" y="1615.6113">:SystemUser</text><rect fill="#FEFECE" filter="url(#f10qgidxh3p8ep)" height="31.6094" style="stroke:#A80036;stroke-width:1.5;" width="165" x="1326.5" y="22.6094"/><text fill="#000000" font-family="sans-serif" font-size="14" lengthAdjust="spacing" textLength="151" x="1333.5" y="44.1426">:ColaboradorRepository</text><rect fill="#FEFECE" filter="url(#f10qgidxh3p8ep)" height="31.6094" style="stroke:#A80036;stroke-width:1.5;" width="165" x="1326.5" y="1576.4688"/><text fill="#000000" font-family="sans-serif" font-size="14" lengthAdjust="spacing" textLength="151" x="1333.5" y="1598.002">:ColaboradorRepository</text><rect fill="#FEFECE" filter="url(#f10qgidxh3p8ep)" height="31.6094" style="stroke:#A80036;stroke-width:1.5;" width="128" x="1505.5" y="22.6094"/><text fill="#000000" font-family="sans-serif" font-size="14" lengthAdjust="spacing" textLength="114" x="1512.5" y="44.1426">:TarefaRepository</text><rect fill="#FEFECE" filter="url(#f10qgidxh3p8ep)" height="31.6094" style="stroke:#A80036;stroke-width:1.5;" width="128" x="1505.5" y="1576.4688"/><text fill="#000000" font-family="sans-serif" font-size="14" lengthAdjust="spacing" textLength="114" x="1512.5" y="1598.002">:TarefaRepository</text><rect fill="#FEFECE" filter="url(#f10qgidxh3p8ep)" height="31.6094" style="stroke:#A80036;stroke-width:1.5;" width="60" x="1647.5" y="22.6094"/><text fill="#000000" font-family="sans-serif" font-size="14" lengthAdjust="spacing" textLength="46" x="1654.5" y="44.1426">:Tarefa</text><rect fill="#FEFECE" filter="url(#f10qgidxh3p8ep)" height="31.6094" style="stroke:#A80036;stroke-width:1.5;" width="60" x="1647.5" y="1576.4688"/><text fill="#000000" font-family="sans-serif" font-size="14" lengthAdjust="spacing" textLength="46" x="1654.5" y="1598.002">:Tarefa</text><rect fill="#FFFFFF" filter="url(#f10qgidxh3p8ep)" height="1498.25" style="stroke:#A80036;stroke-width:1.0;" width="10" x="109" y="69.2188"/><rect fill="#FFFFFF" filter="url(#f10qgidxh3p8ep)" height="1475.8984" style="stroke:#A80036;stroke-width:1.0;" width="10" x="606" y="91.5703"/><rect fill="#FFFFFF" filter="url(#f10qgidxh3p8ep)" height="30" style="stroke:#A80036;stroke-width:1.0;" width="10" x="832" y="152.2734"/><rect fill="#FFFFFF" filter="url(#f10qgidxh3p8ep)" height="30" style="stroke:#A80036;stroke-width:1.0;" width="10" x="972" y="212.625"/><rect fill="#FFFFFF" filter="url(#f10qgidxh3p8ep)" height="60.3516" style="stroke:#A80036;stroke-width:1.0;" width="10" x="1108" y="272.9766"/><rect fill="#FFFFFF" filter="url(#f10qgidxh3p8ep)" height="30" style="stroke:#A80036;stroke-width:1.0;" width="10" x="1263" y="303.3281"/><rect fill="#FFFFFF" filter="url(#f10qgidxh3p8ep)" height="30" style="stroke:#A80036;stroke-width:1.0;" width="10" x="1406" y="462.7344"/><rect fill="#FFFFFF" filter="url(#f10qgidxh3p8ep)" height="30" style="stroke:#A80036;stroke-width:1.0;" width="10" x="1406" y="1190.3594"/><rect fill="#FFFFFF" filter="url(#f10qgidxh3p8ep)" height="30" style="stroke:#A80036;stroke-width:1.0;" width="10" x="1566.5" y="523.0859"/><rect fill="#FFFFFF" filter="url(#f10qgidxh3p8ep)" height="30" style="stroke:#A80036;stroke-width:1.0;" width="10" x="1566.5" y="1036.9531"/><rect fill="#FFFFFF" filter="url(#f10qgidxh3p8ep)" height="30" style="stroke:#A80036;stroke-width:1.0;" width="10" x="1566.5" y="1250.7109"/><rect fill="#FFFFFF" filter="url(#f10qgidxh3p8ep)" height="30" style="stroke:#A80036;stroke-width:1.0;" width="10" x="1566.5" y="1522.4688"/><rect fill="#FFFFFF" filter="url(#f10qgidxh3p8ep)" height="30" style="stroke:#A80036;stroke-width:1.0;" width="10" x="1674.5" y="644.1406"/><rect fill="#FFFFFF" filter="url(#f10qgidxh3p8ep)" height="30" style="stroke:#A80036;stroke-width:1.0;" width="10" x="1674.5" y="704.4922"/><rect fill="#FFFFFF" filter="url(#f10qgidxh3p8ep)" height="30" style="stroke:#A80036;stroke-width:1.0;" width="10" x="1674.5" y="833.5469"/><rect fill="#FFFFFF" filter="url(#f10qgidxh3p8ep)" height="30" style="stroke:#A80036;stroke-width:1.0;" width="10" x="1674.5" y="969.6016"/><rect fill="#FFFFFF" filter="url(#f10qgidxh3p8ep)" height="30" style="stroke:#A80036;stroke-width:1.0;" width="10" x="1674.5" y="1341.4141"/><rect fill="#FFFFFF" filter="url(#f10qgidxh3p8ep)" height="30" style="stroke:#A80036;stroke-width:1.0;" width="10" x="1674.5" y="1401.7656"/><rect fill="#FFFFFF" filter="url(#f10qgidxh3p8ep)" height="30" style="stroke:#A80036;stroke-width:1.0;" width="10" x="1674.5" y="1462.1172"/><polygon fill="#A80036" points="594,87.5703,604,91.5703,594,95.5703,598,91.5703" style="stroke:#A80036;stroke-width:1.0;"/><line style="stroke:#A80036;stroke-width:1.0;" x1="119" x2="600" y1="91.5703" y2="91.5703"/><text fill="#000000" font-family="sans-serif" font-size="13" font-weight="bold" lengthAdjust="spacing" textLength="7" x="126" y="86.7139">1</text><text fill="#000000" font-family="sans-serif" font-size="13" lengthAdjust="spacing" textLength="36" x="137" y="86.7139">create</text><polygon fill="#A80036" points="594,117.9219,604,121.9219,594,125.9219,598,121.9219" style="stroke:#A80036;stroke-width:1.0;"/><line style="stroke:#A80036;stroke-width:1.0;" x1="119" x2="600" y1="121.9219" y2="121.9219"/><text fill="#000000" font-family="sans-serif" font-size="13" font-weight="bold" lengthAdjust="spacing" textLength="7" x="126" y="117.0654">2</text><text fill="#000000" font-family="sans-serif" font-size="13" lengthAdjust="spacing" textLength="230" x="137" y="117.0654">username=obterUsernameColaborador()</text><polygon fill="#A80036" points="820,148.2734,830,152.2734,820,156.2734,824,152.2734" style="stroke:#A80036;stroke-width:1.0;"/><line style="stroke:#A80036;stroke-width:1.0;" x1="616" x2="826" y1="152.2734" y2="152.2734"/><text fill="#000000" font-family="sans-serif" font-size="13" font-weight="bold" lengthAdjust="spacing" textLength="7" x="623" y="147.417">3</text><text fill="#000000" font-family="sans-serif" font-size="13" lengthAdjust="spacing" textLength="164" x="634" y="147.417">authz=authorizationService()</text><polygon fill="#A80036" points="960,208.625,970,212.625,960,216.625,964,212.625" style="stroke:#A80036;stroke-width:1.0;"/><line style="stroke:#A80036;stroke-width:1.0;" x1="616" x2="966" y1="212.625" y2="212.625"/><text fill="#000000" font-family="sans-serif" font-size="13" font-weight="bold" lengthAdjust="spacing" textLength="7" x="623" y="207.7686">4</text><text fill="#000000" font-family="sans-serif" font-size="13" lengthAdjust="spacing" textLength="75" x="634" y="207.7686">us=session()</text><polygon fill="#A80036" points="1096,268.9766,1106,272.9766,1096,276.9766,1100,272.9766" style="stroke:#A80036;stroke-width:1.0;"/><line style="stroke:#A80036;stroke-width:1.0;" x1="616" x2="1102" y1="272.9766" y2="272.9766"/><text fill="#000000" font-family="sans-serif" font-size="13" font-weight="bold" lengthAdjust="spacing" textLength="7" x="623" y="268.1201">5</text><text fill="#000000" font-family="sans-serif" font-size="13" lengthAdjust="spacing" textLength="135" x="634" y="268.1201">su=authenticatedUser()</text><polygon fill="#A80036" points="1251,299.3281,1261,303.3281,1251,307.3281,1255,303.3281" style="stroke:#A80036;stroke-width:1.0;"/><line style="stroke:#A80036;stroke-width:1.0;" x1="1118" x2="1257" y1="303.3281" y2="303.3281"/><text fill="#000000" font-family="sans-serif" font-size="13" font-weight="bold" lengthAdjust="spacing" textLength="7" x="1125" y="298.4717">6</text><text fill="#000000" font-family="sans-serif" font-size="13" lengthAdjust="spacing" textLength="115" x="1136" y="298.4717">username=identity()</text><line style="stroke:#A80036;stroke-width:1.0;" x1="119" x2="161" y1="363.6797" y2="363.6797"/><line style="stroke:#A80036;stroke-width:1.0;" x1="161" x2="161" y1="363.6797" y2="376.6797"/><line style="stroke:#A80036;stroke-width:1.0;" x1="120" x2="161" y1="376.6797" y2="376.6797"/><polygon fill="#A80036" points="130,372.6797,120,376.6797,130,380.6797,126,376.6797" style="stroke:#A80036;stroke-width:1.0;"/><text fill="#000000" font-family="sans-serif" font-size="13" font-weight="bold" lengthAdjust="spacing" textLength="7" x="126" y="358.8232">7</text><text fill="#000000" font-family="sans-serif" font-size="13" lengthAdjust="spacing" textLength="54" x="137" y="358.8232">doShow()</text><path d="M10,391.6797 L75,391.6797 L75,399.6797 L65,409.6797 L10,409.6797 L10,391.6797 " fill="#EEEEEE" style="stroke:#000000;stroke-width:1.0;"/><rect fill="none" height="683.2734" style="stroke:#000000;stroke-width:2.0;" width="1721.5" x="10" y="391.6797"/><text fill="#000000" font-family="sans-serif" font-size="13" font-weight="bold" lengthAdjust="spacing" textLength="20" x="25" y="406.1748">opt</text><polygon fill="#A80036" points="594,428.3828,604,432.3828,594,436.3828,598,432.3828" style="stroke:#A80036;stroke-width:1.0;"/><line style="stroke:#A80036;stroke-width:1.0;" x1="119" x2="600" y1="432.3828" y2="432.3828"/><text fill="#000000" font-family="sans-serif" font-size="13" font-weight="bold" lengthAdjust="spacing" textLength="7" x="126" y="427.5264">8</text><text fill="#000000" font-family="sans-serif" font-size="13" lengthAdjust="spacing" textLength="226" x="137" y="427.5264">tarefasAprovacaoPendentes(username)</text><polygon fill="#A80036" points="1394,458.7344,1404,462.7344,1394,466.7344,1398,462.7344" style="stroke:#A80036;stroke-width:1.0;"/><line style="stroke:#A80036;stroke-width:1.0;" x1="616" x2="1400" y1="462.7344" y2="462.7344"/><text fill="#000000" font-family="sans-serif" font-size="13" font-weight="bold" lengthAdjust="spacing" textLength="7" x="623" y="457.8779">9</text><text fill="#000000" font-family="sans-serif" font-size="13" lengthAdjust="spacing" textLength="235" x="634" y="457.8779">colaborador=findByUsername(username)</text><polygon fill="#A80036" points="1554.5,519.0859,1564.5,523.0859,1554.5,527.0859,1558.5,523.0859" style="stroke:#A80036;stroke-width:1.0;"/><line style="stroke:#A80036;stroke-width:1.0;" x1="616" x2="1560.5" y1="523.0859" y2="523.0859"/><text fill="#000000" font-family="sans-serif" font-size="13" font-weight="bold" lengthAdjust="spacing" textLength="14" x="623" y="518.2295">10</text><text fill="#000000" font-family="sans-serif" font-size="13" lengthAdjust="spacing" textLength="330" x="641" y="518.2295">findTarefasAprovacaoPendentesColaborador(Colaborador)</text><polygon fill="#A80036" points="130,579.4375,120,583.4375,130,587.4375,126,583.4375" style="stroke:#A80036;stroke-width:1.0;"/><line style="stroke:#A80036;stroke-width:1.0;" x1="124" x2="605" y1="583.4375" y2="583.4375"/><text fill="#000000" font-family="sans-serif" font-size="13" font-weight="bold" lengthAdjust="spacing" textLength="14" x="136" y="578.5811">11</text><text fill="#000000" font-family="sans-serif" font-size="13" lengthAdjust="spacing" textLength="42" x="154" y="578.5811">Tarefas</text><polygon fill="#A80036" points="594,609.7891,604,613.7891,594,617.7891,598,613.7891" style="stroke:#A80036;stroke-width:1.0;"/><line style="stroke:#A80036;stroke-width:1.0;" x1="119" x2="600" y1="613.7891" y2="613.7891"/><text fill="#000000" font-family="sans-serif" font-size="13" font-weight="bold" lengthAdjust="spacing" textLength="14" x="126" y="608.9326">12</text><text fill="#000000" font-family="sans-serif" font-size="13" lengthAdjust="spacing" textLength="445" x="144" y="608.9326">realizarTarefaAprovacaoPendente(Tarefa, dadosFormulario, isTarefaAprovada)</text><polygon fill="#A80036" points="1662.5,640.1406,1672.5,644.1406,1662.5,648.1406,1666.5,644.1406" style="stroke:#A80036;stroke-width:1.0;"/><line style="stroke:#A80036;stroke-width:1.0;" x1="616" x2="1668.5" y1="644.1406" y2="644.1406"/><text fill="#000000" font-family="sans-serif" font-size="13" font-weight="bold" lengthAdjust="spacing" textLength="14" x="623" y="639.2842">13</text><text fill="#000000" font-family="sans-serif" font-size="13" lengthAdjust="spacing" textLength="238" x="641" y="639.2842">validarDadosFormulario(dadosFormulario)</text><polygon fill="#A80036" points="1662.5,700.4922,1672.5,704.4922,1662.5,708.4922,1666.5,704.4922" style="stroke:#A80036;stroke-width:1.0;"/><line style="stroke:#A80036;stroke-width:1.0;" x1="616" x2="1668.5" y1="704.4922" y2="704.4922"/><text fill="#000000" font-family="sans-serif" font-size="13" font-weight="bold" lengthAdjust="spacing" textLength="14" x="623" y="699.6357">14</text><text fill="#000000" font-family="sans-serif" font-size="13" lengthAdjust="spacing" textLength="251" x="641" y="699.6357">atualizarDadosFormulario(dadosFormulario)</text><path d="M434,749.4922 L499,749.4922 L499,757.4922 L489,767.4922 L434,767.4922 L434,749.4922 " fill="#EEEEEE" style="stroke:#000000;stroke-width:1.0;"/><rect fill="none" height="122.0547" style="stroke:#000000;stroke-width:2.0;" width="1287.5" x="434" y="749.4922"/><text fill="#000000" font-family="sans-serif" font-size="13" font-weight="bold" lengthAdjust="spacing" textLength="20" x="449" y="763.9873">opt</text><line style="stroke:#A80036;stroke-width:1.0;" x1="616" x2="658" y1="790.1953" y2="790.1953"/><line style="stroke:#A80036;stroke-width:1.0;" x1="658" x2="658" y1="790.1953" y2="803.1953"/><line style="stroke:#A80036;stroke-width:1.0;" x1="617" x2="658" y1="803.1953" y2="803.1953"/><polygon fill="#A80036" points="627,799.1953,617,803.1953,627,807.1953,623,803.1953" style="stroke:#A80036;stroke-width:1.0;"/><text fill="#000000" font-family="sans-serif" font-size="13" font-weight="bold" lengthAdjust="spacing" textLength="14" x="623" y="785.3389">15</text><text fill="#000000" font-family="sans-serif" font-size="13" lengthAdjust="spacing" textLength="178" x="641" y="785.3389">criarTarefasFluxoValido(Tarefa)</text><path d="M444,774.3438 L444,800.3438 L597,800.3438 L597,784.3438 L587,774.3438 L444,774.3438 " fill="#FBFB77" filter="url(#f10qgidxh3p8ep)" style="stroke:#A80036;stroke-width:1.0;"/><path d="M587,774.3438 L587,784.3438 L597,784.3438 L587,774.3438 " fill="#FBFB77" style="stroke:#A80036;stroke-width:1.0;"/><text fill="#000000" font-family="sans-serif" font-size="13" lengthAdjust="spacing" textLength="132" x="450" y="792.8389">isTarefaAprovada : true</text><polygon fill="#A80036" points="1662.5,829.5469,1672.5,833.5469,1662.5,837.5469,1666.5,833.5469" style="stroke:#A80036;stroke-width:1.0;"/><line style="stroke:#A80036;stroke-width:1.0;" x1="616" x2="1668.5" y1="833.5469" y2="833.5469"/><text fill="#000000" font-family="sans-serif" font-size="13" font-weight="bold" lengthAdjust="spacing" textLength="14" x="623" y="828.6904">16</text><text fill="#000000" font-family="sans-serif" font-size="13" lengthAdjust="spacing" textLength="193" x="641" y="828.6904">alterarEstadoTarefa(FINALIZADA)</text><path d="M429,885.5469 L494,885.5469 L494,893.5469 L484,903.5469 L429,903.5469 L429,885.5469 " fill="#EEEEEE" style="stroke:#000000;stroke-width:1.0;"/><rect fill="none" height="122.0547" style="stroke:#000000;stroke-width:2.0;" width="1292.5" x="429" y="885.5469"/><text fill="#000000" font-family="sans-serif" font-size="13" font-weight="bold" lengthAdjust="spacing" textLength="20" x="444" y="900.042">opt</text><line style="stroke:#A80036;stroke-width:1.0;" x1="616" x2="658" y1="926.25" y2="926.25"/><line style="stroke:#A80036;stroke-width:1.0;" x1="658" x2="658" y1="926.25" y2="939.25"/><line style="stroke:#A80036;stroke-width:1.0;" x1="617" x2="658" y1="939.25" y2="939.25"/><polygon fill="#A80036" points="627,935.25,617,939.25,627,943.25,623,939.25" style="stroke:#A80036;stroke-width:1.0;"/><text fill="#000000" font-family="sans-serif" font-size="13" font-weight="bold" lengthAdjust="spacing" textLength="14" x="623" y="921.3936">17</text><text fill="#000000" font-family="sans-serif" font-size="13" lengthAdjust="spacing" textLength="184" x="641" y="921.3936">criarTarefasFluxoInvalido(Tarefa)</text><path d="M439,910.3984 L439,936.3984 L597,936.3984 L597,920.3984 L587,910.3984 L439,910.3984 " fill="#FBFB77" filter="url(#f10qgidxh3p8ep)" style="stroke:#A80036;stroke-width:1.0;"/><path d="M587,910.3984 L587,920.3984 L597,920.3984 L587,910.3984 " fill="#FBFB77" style="stroke:#A80036;stroke-width:1.0;"/><text fill="#000000" font-family="sans-serif" font-size="13" lengthAdjust="spacing" textLength="137" x="445" y="928.8936">isTarefaAprovada : false</text><polygon fill="#A80036" points="1662.5,965.6016,1672.5,969.6016,1662.5,973.6016,1666.5,969.6016" style="stroke:#A80036;stroke-width:1.0;"/><line style="stroke:#A80036;stroke-width:1.0;" x1="616" x2="1668.5" y1="969.6016" y2="969.6016"/><text fill="#000000" font-family="sans-serif" font-size="13" font-weight="bold" lengthAdjust="spacing" textLength="14" x="623" y="964.7451">18</text><text fill="#000000" font-family="sans-serif" font-size="13" lengthAdjust="spacing" textLength="190" x="641" y="964.7451">alterarEstadoTarefa(REJEITADA)</text><polygon fill="#A80036" points="1554.5,1032.9531,1564.5,1036.9531,1554.5,1040.9531,1558.5,1036.9531" style="stroke:#A80036;stroke-width:1.0;"/><line style="stroke:#A80036;stroke-width:1.0;" x1="616" x2="1560.5" y1="1036.9531" y2="1036.9531"/><text fill="#000000" font-family="sans-serif" font-size="13" font-weight="bold" lengthAdjust="spacing" textLength="14" x="623" y="1032.0967">19</text><text fill="#000000" font-family="sans-serif" font-size="13" lengthAdjust="spacing" textLength="69" x="641" y="1032.0967">save(Tarefa)</text><path d="M10,1088.9531 L75,1088.9531 L75,1096.9531 L65,1106.9531 L10,1106.9531 L10,1088.9531 " fill="#EEEEEE" style="stroke:#000000;stroke-width:1.0;"/><rect fill="none" height="471.5156" style="stroke:#000000;stroke-width:2.0;" width="1711.5" x="10" y="1088.9531"/><text fill="#000000" font-family="sans-serif" font-size="13" font-weight="bold" lengthAdjust="spacing" textLength="20" x="25" y="1103.4482">opt</text><polygon fill="#A80036" points="594,1125.6563,604,1129.6563,594,1133.6563,598,1129.6563" style="stroke:#A80036;stroke-width:1.0;"/><line style="stroke:#A80036;stroke-width:1.0;" x1="119" x2="600" y1="1129.6563" y2="1129.6563"/><text fill="#000000" font-family="sans-serif" font-size="13" font-weight="bold" lengthAdjust="spacing" textLength="14" x="126" y="1124.7998">20</text><text fill="#000000" font-family="sans-serif" font-size="13" lengthAdjust="spacing" textLength="340" x="144" y="1124.7998">realizarTarefaResolucaoPendente(Tarefa, dadosFormulario)</text><polygon fill="#A80036" points="594,1156.0078,604,1160.0078,594,1164.0078,598,1160.0078" style="stroke:#A80036;stroke-width:1.0;"/><line style="stroke:#A80036;stroke-width:1.0;" x1="119" x2="600" y1="1160.0078" y2="1160.0078"/><text fill="#000000" font-family="sans-serif" font-size="13" font-weight="bold" lengthAdjust="spacing" textLength="14" x="126" y="1155.1514">21</text><text fill="#000000" font-family="sans-serif" font-size="13" lengthAdjust="spacing" textLength="227" x="144" y="1155.1514">tarefasResolucaoPendentes(username)</text><polygon fill="#A80036" points="1394,1186.3594,1404,1190.3594,1394,1194.3594,1398,1190.3594" style="stroke:#A80036;stroke-width:1.0;"/><line style="stroke:#A80036;stroke-width:1.0;" x1="616" x2="1400" y1="1190.3594" y2="1190.3594"/><text fill="#000000" font-family="sans-serif" font-size="13" font-weight="bold" lengthAdjust="spacing" textLength="14" x="623" y="1185.5029">22</text><text fill="#000000" font-family="sans-serif" font-size="13" lengthAdjust="spacing" textLength="235" x="641" y="1185.5029">colaborador=findByUsername(username)</text><polygon fill="#A80036" points="1554.5,1246.7109,1564.5,1250.7109,1554.5,1254.7109,1558.5,1250.7109" style="stroke:#A80036;stroke-width:1.0;"/><line style="stroke:#A80036;stroke-width:1.0;" x1="616" x2="1560.5" y1="1250.7109" y2="1250.7109"/><text fill="#000000" font-family="sans-serif" font-size="13" font-weight="bold" lengthAdjust="spacing" textLength="14" x="623" y="1245.8545">23</text><text fill="#000000" font-family="sans-serif" font-size="13" lengthAdjust="spacing" textLength="331" x="641" y="1245.8545">findTarefasResolucaoPendentesColaborador(Colaborador)</text><polygon fill="#A80036" points="130,1307.0625,120,1311.0625,130,1315.0625,126,1311.0625" style="stroke:#A80036;stroke-width:1.0;"/><line style="stroke:#A80036;stroke-width:1.0;" x1="124" x2="605" y1="1311.0625" y2="1311.0625"/><text fill="#000000" font-family="sans-serif" font-size="13" font-weight="bold" lengthAdjust="spacing" textLength="14" x="136" y="1306.2061">24</text><text fill="#000000" font-family="sans-serif" font-size="13" lengthAdjust="spacing" textLength="42" x="154" y="1306.2061">Tarefas</text><polygon fill="#A80036" points="1662.5,1337.4141,1672.5,1341.4141,1662.5,1345.4141,1666.5,1341.4141" style="stroke:#A80036;stroke-width:1.0;"/><line style="stroke:#A80036;stroke-width:1.0;" x1="616" x2="1668.5" y1="1341.4141" y2="1341.4141"/><text fill="#000000" font-family="sans-serif" font-size="13" font-weight="bold" lengthAdjust="spacing" textLength="14" x="623" y="1336.5576">25</text><text fill="#000000" font-family="sans-serif" font-size="13" lengthAdjust="spacing" textLength="238" x="641" y="1336.5576">validarDadosFormulario(dadosFormulario)</text><polygon fill="#A80036" points="1662.5,1397.7656,1672.5,1401.7656,1662.5,1405.7656,1666.5,1401.7656" style="stroke:#A80036;stroke-width:1.0;"/><line style="stroke:#A80036;stroke-width:1.0;" x1="616" x2="1668.5" y1="1401.7656" y2="1401.7656"/><text fill="#000000" font-family="sans-serif" font-size="13" font-weight="bold" lengthAdjust="spacing" textLength="14" x="623" y="1396.9092">26</text><text fill="#000000" font-family="sans-serif" font-size="13" lengthAdjust="spacing" textLength="251" x="641" y="1396.9092">atualizarDadosFormulario(dadosFormulario)</text><polygon fill="#A80036" points="1662.5,1458.1172,1672.5,1462.1172,1662.5,1466.1172,1666.5,1462.1172" style="stroke:#A80036;stroke-width:1.0;"/><line style="stroke:#A80036;stroke-width:1.0;" x1="616" x2="1668.5" y1="1462.1172" y2="1462.1172"/><text fill="#000000" font-family="sans-serif" font-size="13" font-weight="bold" lengthAdjust="spacing" textLength="14" x="623" y="1457.2607">27</text><text fill="#000000" font-family="sans-serif" font-size="13" lengthAdjust="spacing" textLength="193" x="641" y="1457.2607">alterarEstadoTarefa(FINALIZADA)</text><polygon fill="#A80036" points="1554.5,1518.4688,1564.5,1522.4688,1554.5,1526.4688,1558.5,1522.4688" style="stroke:#A80036;stroke-width:1.0;"/><line style="stroke:#A80036;stroke-width:1.0;" x1="616" x2="1560.5" y1="1522.4688" y2="1522.4688"/><text fill="#000000" font-family="sans-serif" font-size="13" font-weight="bold" lengthAdjust="spacing" textLength="14" x="623" y="1517.6123">28</text><text fill="#000000" font-family="sans-serif" font-size="13" lengthAdjust="spacing" textLength="69" x="641" y="1517.6123">save(Tarefa)</text><!--MD5=[99c484ac7295da500535ac98244ae375]
@startuml
autonumber


participant ":RealizarTarefaPendenteUI" as UI
participant ":RealizarTarefaPendenteController" as CTRL
participant ":AuthzRegistry" as AR
participant "authz\n:AuthorizationService" as AS
participant "us\n:UserSession" as US
participant "su\n:SystemUser" as SU
participant ":ColaboradorRepository" as CR
participant ":TarefaRepository" as TR
participant ":Tarefa" as T

activate UI
UI -> CTRL : create
activate CTRL
UI -> CTRL : username=obterUsernameColaborador()
CTRL -> AR : authz=authorizationService()
activate AR
deactivate AR
CTRL -> AS : us=session()
activate AS
deactivate AS
CTRL -> US : su=authenticatedUser()
activate US
US -> SU : username=identity()
activate SU
deactivate SU
deactivate US
UI -> UI : doShow()
opt
UI -> CTRL : tarefasAprovacaoPendentes(username)
CTRL -> CR : colaborador=findByUsername(username)
activate CR
deactivate CR
CTRL -> TR : findTarefasAprovacaoPendentesColaborador(Colaborador)
activate TR
deactivate TR
CTRL -> UI : Tarefas
UI -> CTRL : realizarTarefaAprovacaoPendente(Tarefa, dadosFormulario, isTarefaAprovada)
CTRL -> T : validarDadosFormulario(dadosFormulario)
activate T
deactivate T
CTRL -> T : atualizarDadosFormulario(dadosFormulario)
activate T
deactivate T
opt
CTRL -> CTRL : criarTarefasFluxoValido(Tarefa)
note left : isTarefaAprovada : true
CTRL -> T : alterarEstadoTarefa(FINALIZADA)
activate T
deactivate T
end opt
opt
CTRL -> CTRL : criarTarefasFluxoInvalido(Tarefa)
note left : isTarefaAprovada : false
CTRL -> T : alterarEstadoTarefa(REJEITADA)
activate T
deactivate T
end opt
CTRL -> TR : save(Tarefa)
activate TR
deactivate TR
end opt
opt
UI -> CTRL : realizarTarefaResolucaoPendente(Tarefa, dadosFormulario)
UI -> CTRL : tarefasResolucaoPendentes(username)
CTRL -> CR : colaborador=findByUsername(username)
activate CR
deactivate CR
CTRL -> TR : findTarefasResolucaoPendentesColaborador(Colaborador)
activate TR
deactivate TR
CTRL -> UI : Tarefas
CTRL -> T : validarDadosFormulario(dadosFormulario)
activate T
deactivate T
CTRL -> T : atualizarDadosFormulario(dadosFormulario)
activate T
deactivate T
CTRL -> T : alterarEstadoTarefa(FINALIZADA)
activate T
deactivate T
CTRL -> TR : save(Tarefa)
activate TR
deactivate TR
end opt
deactivate CTRL
deactivate UI

@enduml

PlantUML version 1.2021.4(Sun Apr 04 09:49:39 BST 2021)
(GPL source distribution)
Java Runtime: OpenJDK Runtime Environment
JVM: Dynamic Code Evolution 64-Bit Server VM
Default Encoding: Cp1252
Language: pt
Country: PT
--></g></svg>