<?xml version="1.0" encoding="UTF-8" standalone="no"?><svg xmlns="http://www.w3.org/2000/svg" xmlns:xlink="http://www.w3.org/1999/xlink" contentScriptType="application/ecmascript" contentStyleType="text/css" height="1126px" preserveAspectRatio="none" style="width:4123px;height:1126px;background:#FFFFFF;" version="1.1" viewBox="0 0 4123 1126" width="4123px" zoomAndPan="magnify"><defs><filter height="300%" id="fq3w9cp2e80og" width="300%" x="-1" y="-1"><feGaussianBlur result="blurOut" stdDeviation="2.0"/><feColorMatrix in="blurOut" result="blurOut2" type="matrix" values="0 0 0 0 0 0 0 0 0 0 0 0 0 0 0 0 0 0 .4 0"/><feOffset dx="4.0" dy="4.0" in="blurOut2" result="blurOut3"/><feBlend in="SourceGraphic" in2="blurOut3" mode="normal"/></filter></defs><g><rect fill="#FFFFFF" filter="url(#fq3w9cp2e80og)" height="926.25" style="stroke:#A80036;stroke-width:1.0;" width="10" x="131.5" y="98.2969"/><rect fill="#FFFFFF" filter="url(#fq3w9cp2e80og)" height="905.1172" style="stroke:#A80036;stroke-width:1.0;" width="10" x="938.5" y="119.4297"/><rect fill="#FFFFFF" filter="url(#fq3w9cp2e80og)" height="699.1875" style="stroke:#A80036;stroke-width:1.0;" width="10" x="1857.5" y="296.2266"/><rect fill="#FFFFFF" filter="url(#fq3w9cp2e80og)" height="58.2656" style="stroke:#A80036;stroke-width:1.0;" width="10" x="3098.5" y="471.0234"/><rect fill="#FFFFFF" filter="url(#fq3w9cp2e80og)" height="58.2656" style="stroke:#A80036;stroke-width:1.0;" width="10" x="3098.5" y="733.2188"/><rect fill="#FFFFFF" filter="url(#fq3w9cp2e80og)" height="58.2656" style="stroke:#A80036;stroke-width:1.0;" width="10" x="3270.5" y="558.4219"/><rect fill="#FFFFFF" filter="url(#fq3w9cp2e80og)" height="58.2656" style="stroke:#A80036;stroke-width:1.0;" width="10" x="3270.5" y="820.6172"/><rect fill="#FFFFFF" filter="url(#fq3w9cp2e80og)" height="46.2656" style="stroke:#000000;stroke-width:2.0;" width="1044.5" x="10" y="221.8281"/><line style="stroke:#A80036;stroke-width:1.0;stroke-dasharray:5.0,5.0;" x1="136" x2="136" y1="88.2969" y2="1042.5469"/><line style="stroke:#A80036;stroke-width:1.0;stroke-dasharray:5.0,5.0;" x1="943.5" x2="943.5" y1="88.2969" y2="1042.5469"/><line style="stroke:#A80036;stroke-width:1.0;stroke-dasharray:5.0,5.0;" x1="1862.5" x2="1862.5" y1="88.2969" y2="1042.5469"/><line style="stroke:#A80036;stroke-width:1.0;stroke-dasharray:5.0,5.0;" x1="2091.5" x2="2091.5" y1="88.2969" y2="1042.5469"/><line style="stroke:#A80036;stroke-width:1.0;stroke-dasharray:5.0,5.0;" x1="2906" x2="2906" y1="88.2969" y2="1042.5469"/><line style="stroke:#A80036;stroke-width:1.0;stroke-dasharray:5.0,5.0;" x1="3103" x2="3103" y1="88.2969" y2="1042.5469"/><line style="stroke:#A80036;stroke-width:1.0;stroke-dasharray:5.0,5.0;" x1="3275" x2="3275" y1="88.2969" y2="1042.5469"/><line style="stroke:#A80036;stroke-width:1.0;stroke-dasharray:5.0,5.0;" x1="3457" x2="3457" y1="88.2969" y2="1042.5469"/><line style="stroke:#A80036;stroke-width:1.0;stroke-dasharray:5.0,5.0;" x1="3655" x2="3655" y1="88.2969" y2="1042.5469"/><line style="stroke:#A80036;stroke-width:1.0;stroke-dasharray:5.0,5.0;" x1="3835" x2="3835" y1="88.2969" y2="1042.5469"/><line style="stroke:#A80036;stroke-width:1.0;stroke-dasharray:5.0,5.0;" x1="4017" x2="4017" y1="88.2969" y2="1042.5469"/><text fill="#000000" font-family="sans-serif" font-size="14" lengthAdjust="spacing" textLength="227" x="20" y="84.9951">Responsável Recursos Humanos</text><ellipse cx="136.5" cy="15" fill="#FEFECE" filter="url(#fq3w9cp2e80og)" rx="8" ry="8" style="stroke:#A80036;stroke-width:2.0;"/><path d="M136.5,23 L136.5,50 M123.5,31 L149.5,31 M136.5,50 L123.5,65 M136.5,50 L149.5,65 " fill="none" filter="url(#fq3w9cp2e80og)" style="stroke:#A80036;stroke-width:2.0;"/><text fill="#000000" font-family="sans-serif" font-size="14" lengthAdjust="spacing" textLength="227" x="20" y="1054.542">Responsável Recursos Humanos</text><ellipse cx="136.5" cy="1067.8438" fill="#FEFECE" filter="url(#fq3w9cp2e80og)" rx="8" ry="8" style="stroke:#A80036;stroke-width:2.0;"/><path d="M136.5,1075.8438 L136.5,1102.8438 M123.5,1083.8438 L149.5,1083.8438 M136.5,1102.8438 L123.5,1117.8438 M136.5,1102.8438 L149.5,1117.8438 " fill="none" filter="url(#fq3w9cp2e80og)" style="stroke:#A80036;stroke-width:2.0;"/><rect fill="#FEFECE" filter="url(#fq3w9cp2e80og)" height="30.2969" style="stroke:#A80036;stroke-width:1.5;" width="198" x="842.5" y="53"/><text fill="#000000" font-family="sans-serif" font-size="14" lengthAdjust="spacing" textLength="180" x="853.5" y="72.9951">EspecificarColaboradorUI</text><rect fill="#FEFECE" filter="url(#fq3w9cp2e80og)" height="30.2969" style="stroke:#A80036;stroke-width:1.5;" width="198" x="842.5" y="1041.5469"/><text fill="#000000" font-family="sans-serif" font-size="14" lengthAdjust="spacing" textLength="180" x="853.5" y="1061.542">EspecificarColaboradorUI</text><rect fill="#FEFECE" filter="url(#fq3w9cp2e80og)" height="30.2969" style="stroke:#A80036;stroke-width:1.5;" width="258" x="1731.5" y="53"/><text fill="#000000" font-family="sans-serif" font-size="14" lengthAdjust="spacing" textLength="240" x="1742.5" y="72.9951">EspecificarColaboradorController</text><rect fill="#FEFECE" filter="url(#fq3w9cp2e80og)" height="30.2969" style="stroke:#A80036;stroke-width:1.5;" width="258" x="1731.5" y="1041.5469"/><text fill="#000000" font-family="sans-serif" font-size="14" lengthAdjust="spacing" textLength="240" x="1742.5" y="1061.542">EspecificarColaboradorController</text><rect fill="#FEFECE" filter="url(#fq3w9cp2e80og)" height="30.2969" style="stroke:#A80036;stroke-width:1.5;" width="173" x="2003.5" y="53"/><text fill="#000000" font-family="sans-serif" font-size="14" lengthAdjust="spacing" textLength="155" x="2014.5" y="72.9951">BuscarEquipasService</text><rect fill="#FEFECE" filter="url(#fq3w9cp2e80og)" height="30.2969" style="stroke:#A80036;stroke-width:1.5;" width="173" x="2003.5" y="1041.5469"/><text fill="#000000" font-family="sans-serif" font-size="14" lengthAdjust="spacing" textLength="155" x="2014.5" y="1061.542">BuscarEquipasService</text><rect fill="#FEFECE" filter="url(#fq3w9cp2e80og)" height="30.2969" style="stroke:#A80036;stroke-width:1.5;" width="201" x="2804" y="53"/><text fill="#000000" font-family="sans-serif" font-size="14" lengthAdjust="spacing" textLength="183" x="2815" y="72.9951">colaborador :Colaborador</text><rect fill="#FEFECE" filter="url(#fq3w9cp2e80og)" height="30.2969" style="stroke:#A80036;stroke-width:1.5;" width="201" x="2804" y="1041.5469"/><text fill="#000000" font-family="sans-serif" font-size="14" lengthAdjust="spacing" textLength="183" x="2815" y="1061.542">colaborador :Colaborador</text><rect fill="#FEFECE" filter="url(#fq3w9cp2e80og)" height="30.2969" style="stroke:#A80036;stroke-width:1.5;" width="165" x="3019" y="53"/><text fill="#000000" font-family="sans-serif" font-size="14" lengthAdjust="spacing" textLength="143" x="3030" y="72.9951">PersistenceContext</text><rect fill="#FEFECE" filter="url(#fq3w9cp2e80og)" height="30.2969" style="stroke:#A80036;stroke-width:1.5;" width="165" x="3019" y="1041.5469"/><text fill="#000000" font-family="sans-serif" font-size="14" lengthAdjust="spacing" textLength="143" x="3030" y="1061.542">PersistenceContext</text><rect fill="#FEFECE" filter="url(#fq3w9cp2e80og)" height="30.2969" style="stroke:#A80036;stroke-width:1.5;" width="151" x="3198" y="53"/><text fill="#000000" font-family="sans-serif" font-size="14" lengthAdjust="spacing" textLength="133" x="3209" y="72.9951">RepositoryFactory</text><rect fill="#FEFECE" filter="url(#fq3w9cp2e80og)" height="30.2969" style="stroke:#A80036;stroke-width:1.5;" width="151" x="3198" y="1041.5469"/><text fill="#000000" font-family="sans-serif" font-size="14" lengthAdjust="spacing" textLength="133" x="3209" y="1061.542">RepositoryFactory</text><rect fill="#FEFECE" filter="url(#fq3w9cp2e80og)" height="30.2969" style="stroke:#A80036;stroke-width:1.5;" width="185" x="3363" y="53"/><text fill="#000000" font-family="sans-serif" font-size="14" lengthAdjust="spacing" textLength="167" x="3374" y="72.9951">ColaboradorRepository</text><rect fill="#FEFECE" filter="url(#fq3w9cp2e80og)" height="30.2969" style="stroke:#A80036;stroke-width:1.5;" width="185" x="3363" y="1041.5469"/><text fill="#000000" font-family="sans-serif" font-size="14" lengthAdjust="spacing" textLength="167" x="3374" y="1061.542">ColaboradorRepository</text><rect fill="#FEFECE" filter="url(#fq3w9cp2e80og)" height="30.2969" style="stroke:#A80036;stroke-width:1.5;" width="182" x="3562" y="53"/><text fill="#000000" font-family="sans-serif" font-size="14" lengthAdjust="spacing" textLength="164" x="3573" y="72.9951">SystemUserRepository</text><rect fill="#FEFECE" filter="url(#fq3w9cp2e80og)" height="30.2969" style="stroke:#A80036;stroke-width:1.5;" width="182" x="3562" y="1041.5469"/><text fill="#000000" font-family="sans-serif" font-size="14" lengthAdjust="spacing" textLength="164" x="3573" y="1061.542">SystemUserRepository</text><rect fill="#FEFECE" filter="url(#fq3w9cp2e80og)" height="30.2969" style="stroke:#A80036;stroke-width:1.5;" width="150" x="3758" y="53"/><text fill="#000000" font-family="sans-serif" font-size="14" lengthAdjust="spacing" textLength="136" x="3765" y="72.9951">sUser : SystemUser</text><rect fill="#FEFECE" filter="url(#fq3w9cp2e80og)" height="30.2969" style="stroke:#A80036;stroke-width:1.5;" width="150" x="3758" y="1041.5469"/><text fill="#000000" font-family="sans-serif" font-size="14" lengthAdjust="spacing" textLength="136" x="3765" y="1061.542">sUser : SystemUser</text><rect fill="#FEFECE" filter="url(#fq3w9cp2e80og)" height="30.2969" style="stroke:#A80036;stroke-width:1.5;" width="187" x="3922" y="53"/><text fill="#000000" font-family="sans-serif" font-size="14" lengthAdjust="spacing" textLength="169" x="3933" y="72.9951">ScriptRandomPassword</text><rect fill="#FEFECE" filter="url(#fq3w9cp2e80og)" height="30.2969" style="stroke:#A80036;stroke-width:1.5;" width="187" x="3922" y="1041.5469"/><text fill="#000000" font-family="sans-serif" font-size="14" lengthAdjust="spacing" textLength="169" x="3933" y="1061.542">ScriptRandomPassword</text><rect fill="#FFFFFF" filter="url(#fq3w9cp2e80og)" height="926.25" style="stroke:#A80036;stroke-width:1.0;" width="10" x="131.5" y="98.2969"/><rect fill="#FFFFFF" filter="url(#fq3w9cp2e80og)" height="905.1172" style="stroke:#A80036;stroke-width:1.0;" width="10" x="938.5" y="119.4297"/><rect fill="#FFFFFF" filter="url(#fq3w9cp2e80og)" height="699.1875" style="stroke:#A80036;stroke-width:1.0;" width="10" x="1857.5" y="296.2266"/><rect fill="#FFFFFF" filter="url(#fq3w9cp2e80og)" height="58.2656" style="stroke:#A80036;stroke-width:1.0;" width="10" x="3098.5" y="471.0234"/><rect fill="#FFFFFF" filter="url(#fq3w9cp2e80og)" height="58.2656" style="stroke:#A80036;stroke-width:1.0;" width="10" x="3098.5" y="733.2188"/><rect fill="#FFFFFF" filter="url(#fq3w9cp2e80og)" height="58.2656" style="stroke:#A80036;stroke-width:1.0;" width="10" x="3270.5" y="558.4219"/><rect fill="#FFFFFF" filter="url(#fq3w9cp2e80og)" height="58.2656" style="stroke:#A80036;stroke-width:1.0;" width="10" x="3270.5" y="820.6172"/><polygon fill="#A80036" points="926.5,115.4297,936.5,119.4297,926.5,123.4297,930.5,119.4297" style="stroke:#A80036;stroke-width:1.0;"/><line style="stroke:#A80036;stroke-width:1.0;stroke-dasharray:2.0,2.0;" x1="141.5" x2="932.5" y1="119.4297" y2="119.4297"/><text fill="#000000" font-family="sans-serif" font-size="13" font-weight="bold" lengthAdjust="spacing" textLength="9" x="148.5" y="114.3638">1</text><text fill="#000000" font-family="sans-serif" font-size="13" lengthAdjust="spacing" textLength="141" x="161.5" y="114.3638">Adicionar Colaborador</text><polygon fill="#A80036" points="2080,144.5625,2090,148.5625,2080,152.5625,2084,148.5625" style="stroke:#A80036;stroke-width:1.0;"/><line style="stroke:#A80036;stroke-width:1.0;" x1="948.5" x2="2086" y1="148.5625" y2="148.5625"/><text fill="#000000" font-family="sans-serif" font-size="13" font-weight="bold" lengthAdjust="spacing" textLength="9" x="955.5" y="143.4966">2</text><text fill="#000000" font-family="sans-serif" font-size="13" lengthAdjust="spacing" textLength="89" x="968.5" y="143.4966">findAllEquipas</text><polygon fill="#A80036" points="959.5,173.6953,949.5,177.6953,959.5,181.6953,955.5,177.6953" style="stroke:#A80036;stroke-width:1.0;"/><line style="stroke:#A80036;stroke-width:1.0;" x1="953.5" x2="2091" y1="177.6953" y2="177.6953"/><text fill="#000000" font-family="sans-serif" font-size="13" font-weight="bold" lengthAdjust="spacing" textLength="8" x="965.5" y="172.6294">3</text><text fill="#000000" font-family="sans-serif" font-size="13" lengthAdjust="spacing" textLength="18" x="977.5" y="172.6294">list</text><polygon fill="#A80036" points="152.5,202.8281,142.5,206.8281,152.5,210.8281,148.5,206.8281" style="stroke:#A80036;stroke-width:1.0;"/><line style="stroke:#A80036;stroke-width:1.0;stroke-dasharray:2.0,2.0;" x1="146.5" x2="937.5" y1="206.8281" y2="206.8281"/><text fill="#000000" font-family="sans-serif" font-size="13" font-weight="bold" lengthAdjust="spacing" textLength="9" x="158.5" y="201.7622">4</text><text fill="#000000" font-family="sans-serif" font-size="13" lengthAdjust="spacing" textLength="125" x="171.5" y="201.7622">displayListaEquipas</text><path d="M10,221.8281 L88,221.8281 L88,228.8281 L78,238.8281 L10,238.8281 L10,221.8281 " fill="#EEEEEE" style="stroke:#000000;stroke-width:1.0;"/><rect fill="none" height="46.2656" style="stroke:#000000;stroke-width:2.0;" width="1044.5" x="10" y="221.8281"/><text fill="#000000" font-family="sans-serif" font-size="13" font-weight="bold" lengthAdjust="spacing" textLength="33" x="25" y="234.895">loop</text><text fill="#000000" font-family="sans-serif" font-size="11" font-weight="bold" lengthAdjust="spacing" textLength="125" x="103" y="234.0386">[while option != 0]</text><polygon fill="#A80036" points="926.5,256.0938,936.5,260.0938,926.5,264.0938,930.5,260.0938" style="stroke:#A80036;stroke-width:1.0;"/><line style="stroke:#A80036;stroke-width:1.0;stroke-dasharray:2.0,2.0;" x1="141.5" x2="932.5" y1="260.0938" y2="260.0938"/><text fill="#000000" font-family="sans-serif" font-size="13" font-weight="bold" lengthAdjust="spacing" textLength="9" x="148.5" y="255.0278">5</text><text fill="#000000" font-family="sans-serif" font-size="13" lengthAdjust="spacing" textLength="340" x="161.5" y="255.0278">escolhe as equias às quais colaborador vai pertencer</text><polygon fill="#A80036" points="1845.5,292.2266,1855.5,296.2266,1845.5,300.2266,1849.5,296.2266" style="stroke:#A80036;stroke-width:1.0;"/><line style="stroke:#A80036;stroke-width:1.0;" x1="948.5" x2="1851.5" y1="296.2266" y2="296.2266"/><text fill="#000000" font-family="sans-serif" font-size="13" font-weight="bold" lengthAdjust="spacing" textLength="9" x="955.5" y="291.1606">6</text><text fill="#000000" font-family="sans-serif" font-size="13" lengthAdjust="spacing" textLength="41" x="968.5" y="291.1606">create</text><polygon fill="#A80036" points="152.5,321.3594,142.5,325.3594,152.5,329.3594,148.5,325.3594" style="stroke:#A80036;stroke-width:1.0;"/><line style="stroke:#A80036;stroke-width:1.0;stroke-dasharray:2.0,2.0;" x1="146.5" x2="937.5" y1="325.3594" y2="325.3594"/><text fill="#000000" font-family="sans-serif" font-size="13" font-weight="bold" lengthAdjust="spacing" textLength="9" x="158.5" y="320.2935">7</text><text fill="#000000" font-family="sans-serif" font-size="13" lengthAdjust="spacing" textLength="211" x="171.5" y="320.2935">Pede informação do Colaborador</text><polygon fill="#A80036" points="926.5,350.4922,936.5,354.4922,926.5,358.4922,930.5,354.4922" style="stroke:#A80036;stroke-width:1.0;"/><line style="stroke:#A80036;stroke-width:1.0;stroke-dasharray:2.0,2.0;" x1="141.5" x2="932.5" y1="354.4922" y2="354.4922"/><text fill="#000000" font-family="sans-serif" font-size="13" font-weight="bold" lengthAdjust="spacing" textLength="9" x="148.5" y="349.4263">8</text><text fill="#000000" font-family="sans-serif" font-size="13" lengthAdjust="spacing" textLength="760" x="161.5" y="349.4263">nomeCompleto,nomeCurto,dataNascimento,morada,numeroContacto,numeroMecanografico,emailInstitucional,funcao</text><polygon fill="#A80036" points="1845.5,379.625,1855.5,383.625,1845.5,387.625,1849.5,383.625" style="stroke:#A80036;stroke-width:1.0;"/><line style="stroke:#A80036;stroke-width:1.0;" x1="948.5" x2="1851.5" y1="383.625" y2="383.625"/><text fill="#000000" font-family="sans-serif" font-size="13" font-weight="bold" lengthAdjust="spacing" textLength="9" x="955.5" y="378.5591">9</text><text fill="#000000" font-family="sans-serif" font-size="13" lengthAdjust="spacing" textLength="872" x="968.5" y="378.5591">addColaborador(nomeCompleto,nomeCurto,dataNascimento,morada,numeroContacto,numeroMecanografico,emailInstitucional,funcao)</text><polygon fill="#A80036" points="4005.5,408.7578,4015.5,412.7578,4005.5,416.7578,4009.5,412.7578" style="stroke:#A80036;stroke-width:1.0;"/><line style="stroke:#A80036;stroke-width:1.0;" x1="1867.5" x2="4011.5" y1="412.7578" y2="412.7578"/><text fill="#000000" font-family="sans-serif" font-size="13" font-weight="bold" lengthAdjust="spacing" textLength="19" x="1874.5" y="407.6919">10</text><text fill="#000000" font-family="sans-serif" font-size="13" lengthAdjust="spacing" textLength="90" x="1897.5" y="407.6919">criarPassword</text><polygon fill="#A80036" points="1878.5,437.8906,1868.5,441.8906,1878.5,445.8906,1874.5,441.8906" style="stroke:#A80036;stroke-width:1.0;"/><line style="stroke:#A80036;stroke-width:1.0;" x1="1872.5" x2="4016.5" y1="441.8906" y2="441.8906"/><text fill="#000000" font-family="sans-serif" font-size="13" font-weight="bold" lengthAdjust="spacing" textLength="18" x="1884.5" y="436.8247">11</text><text fill="#000000" font-family="sans-serif" font-size="13" lengthAdjust="spacing" textLength="62" x="1906.5" y="436.8247">password</text><polygon fill="#A80036" points="3086.5,467.0234,3096.5,471.0234,3086.5,475.0234,3090.5,471.0234" style="stroke:#A80036;stroke-width:1.0;"/><line style="stroke:#A80036;stroke-width:1.0;" x1="1867.5" x2="3092.5" y1="471.0234" y2="471.0234"/><text fill="#000000" font-family="sans-serif" font-size="13" font-weight="bold" lengthAdjust="spacing" textLength="18" x="1874.5" y="465.9575">12</text><text fill="#000000" font-family="sans-serif" font-size="13" lengthAdjust="spacing" textLength="85" x="1896.5" y="465.9575">repositories()</text><polygon fill="#A80036" points="3445.5,496.1563,3455.5,500.1563,3445.5,504.1563,3449.5,500.1563" style="stroke:#A80036;stroke-width:1.0;"/><line style="stroke:#A80036;stroke-width:1.0;" x1="3108.5" x2="3451.5" y1="500.1563" y2="500.1563"/><text fill="#000000" font-family="sans-serif" font-size="13" font-weight="bold" lengthAdjust="spacing" textLength="17" x="3115.5" y="495.0903">13</text><text fill="#000000" font-family="sans-serif" font-size="13" lengthAdjust="spacing" textLength="41" x="3136.5" y="495.0903">create</text><polygon fill="#A80036" points="1878.5,525.2891,1868.5,529.2891,1878.5,533.2891,1874.5,529.2891" style="stroke:#A80036;stroke-width:1.0;"/><line style="stroke:#A80036;stroke-width:1.0;" x1="1872.5" x2="3102.5" y1="529.2891" y2="529.2891"/><text fill="#000000" font-family="sans-serif" font-size="13" font-weight="bold" lengthAdjust="spacing" textLength="18" x="1884.5" y="524.2231">14</text><text fill="#000000" font-family="sans-serif" font-size="13" lengthAdjust="spacing" textLength="46" x="1906.5" y="524.2231">factory</text><polygon fill="#A80036" points="3258.5,554.4219,3268.5,558.4219,3258.5,562.4219,3262.5,558.4219" style="stroke:#A80036;stroke-width:1.0;"/><line style="stroke:#A80036;stroke-width:1.0;" x1="1867.5" x2="3264.5" y1="558.4219" y2="558.4219"/><text fill="#000000" font-family="sans-serif" font-size="13" font-weight="bold" lengthAdjust="spacing" textLength="18" x="1874.5" y="553.356">15</text><text fill="#000000" font-family="sans-serif" font-size="13" lengthAdjust="spacing" textLength="101" x="1896.5" y="553.356">colaboradores()</text><polygon fill="#A80036" points="3445.5,583.5547,3455.5,587.5547,3445.5,591.5547,3449.5,587.5547" style="stroke:#A80036;stroke-width:1.0;"/><line style="stroke:#A80036;stroke-width:1.0;" x1="3280.5" x2="3451.5" y1="587.5547" y2="587.5547"/><text fill="#000000" font-family="sans-serif" font-size="13" font-weight="bold" lengthAdjust="spacing" textLength="18" x="3287.5" y="582.4888">16</text><text fill="#000000" font-family="sans-serif" font-size="13" lengthAdjust="spacing" textLength="41" x="3309.5" y="582.4888">create</text><polygon fill="#A80036" points="1878.5,612.6875,1868.5,616.6875,1878.5,620.6875,1874.5,616.6875" style="stroke:#A80036;stroke-width:1.0;"/><line style="stroke:#A80036;stroke-width:1.0;" x1="1872.5" x2="3274.5" y1="616.6875" y2="616.6875"/><text fill="#000000" font-family="sans-serif" font-size="13" font-weight="bold" lengthAdjust="spacing" textLength="18" x="1884.5" y="611.6216">17</text><text fill="#000000" font-family="sans-serif" font-size="13" lengthAdjust="spacing" textLength="145" x="1906.5" y="611.6216">colaboradorRepository</text><polygon fill="#A80036" points="2894.5,641.8203,2904.5,645.8203,2894.5,649.8203,2898.5,645.8203" style="stroke:#A80036;stroke-width:1.0;"/><line style="stroke:#A80036;stroke-width:1.0;" x1="1867.5" x2="2900.5" y1="645.8203" y2="645.8203"/><text fill="#000000" font-family="sans-serif" font-size="13" font-weight="bold" lengthAdjust="spacing" textLength="18" x="1874.5" y="640.7544">18</text><text fill="#000000" font-family="sans-serif" font-size="13" lengthAdjust="spacing" textLength="993" x="1896.5" y="640.7544">create(username,nomeCompleto,nomeCurto,dataNascimento,morada,numeroContacto,numeroMecanografico,emailInstitucional,equipa,password,funcao)</text><polygon fill="#A80036" points="1878.5,670.9531,1868.5,674.9531,1878.5,678.9531,1874.5,674.9531" style="stroke:#A80036;stroke-width:1.0;"/><line style="stroke:#A80036;stroke-width:1.0;" x1="1872.5" x2="2905.5" y1="674.9531" y2="674.9531"/><text fill="#000000" font-family="sans-serif" font-size="13" font-weight="bold" lengthAdjust="spacing" textLength="18" x="1884.5" y="669.8872">19</text><text fill="#000000" font-family="sans-serif" font-size="13" lengthAdjust="spacing" textLength="76" x="1906.5" y="669.8872">colaborador</text><polygon fill="#A80036" points="3445.5,700.0859,3455.5,704.0859,3445.5,708.0859,3449.5,704.0859" style="stroke:#A80036;stroke-width:1.0;"/><line style="stroke:#A80036;stroke-width:1.0;" x1="1867.5" x2="3451.5" y1="704.0859" y2="704.0859"/><text fill="#000000" font-family="sans-serif" font-size="13" font-weight="bold" lengthAdjust="spacing" textLength="19" x="1874.5" y="699.02">20</text><text fill="#000000" font-family="sans-serif" font-size="13" lengthAdjust="spacing" textLength="117" x="1897.5" y="699.02">save(colaborador)</text><polygon fill="#A80036" points="3086.5,729.2188,3096.5,733.2188,3086.5,737.2188,3090.5,733.2188" style="stroke:#A80036;stroke-width:1.0;"/><line style="stroke:#A80036;stroke-width:1.0;" x1="1867.5" x2="3092.5" y1="733.2188" y2="733.2188"/><text fill="#000000" font-family="sans-serif" font-size="13" font-weight="bold" lengthAdjust="spacing" textLength="18" x="1874.5" y="728.1528">21</text><text fill="#000000" font-family="sans-serif" font-size="13" lengthAdjust="spacing" textLength="85" x="1896.5" y="728.1528">repositories()</text><polygon fill="#A80036" points="3643,758.3516,3653,762.3516,3643,766.3516,3647,762.3516" style="stroke:#A80036;stroke-width:1.0;"/><line style="stroke:#A80036;stroke-width:1.0;" x1="3108.5" x2="3649" y1="762.3516" y2="762.3516"/><text fill="#000000" font-family="sans-serif" font-size="13" font-weight="bold" lengthAdjust="spacing" textLength="18" x="3115.5" y="757.2856">22</text><text fill="#000000" font-family="sans-serif" font-size="13" lengthAdjust="spacing" textLength="41" x="3137.5" y="757.2856">create</text><polygon fill="#A80036" points="1878.5,787.4844,1868.5,791.4844,1878.5,795.4844,1874.5,791.4844" style="stroke:#A80036;stroke-width:1.0;"/><line style="stroke:#A80036;stroke-width:1.0;" x1="1872.5" x2="3102.5" y1="791.4844" y2="791.4844"/><text fill="#000000" font-family="sans-serif" font-size="13" font-weight="bold" lengthAdjust="spacing" textLength="17" x="1884.5" y="786.4185">23</text><text fill="#000000" font-family="sans-serif" font-size="13" lengthAdjust="spacing" textLength="46" x="1905.5" y="786.4185">factory</text><polygon fill="#A80036" points="3258.5,816.6172,3268.5,820.6172,3258.5,824.6172,3262.5,820.6172" style="stroke:#A80036;stroke-width:1.0;"/><line style="stroke:#A80036;stroke-width:1.0;" x1="1867.5" x2="3264.5" y1="820.6172" y2="820.6172"/><text fill="#000000" font-family="sans-serif" font-size="13" font-weight="bold" lengthAdjust="spacing" textLength="18" x="1874.5" y="815.5513">24</text><text fill="#000000" font-family="sans-serif" font-size="13" lengthAdjust="spacing" textLength="45" x="1896.5" y="815.5513">users()</text><polygon fill="#A80036" points="3643,845.75,3653,849.75,3643,853.75,3647,849.75" style="stroke:#A80036;stroke-width:1.0;"/><line style="stroke:#A80036;stroke-width:1.0;" x1="3280.5" x2="3649" y1="849.75" y2="849.75"/><text fill="#000000" font-family="sans-serif" font-size="13" font-weight="bold" lengthAdjust="spacing" textLength="18" x="3287.5" y="844.6841">25</text><text fill="#000000" font-family="sans-serif" font-size="13" lengthAdjust="spacing" textLength="41" x="3309.5" y="844.6841">create</text><polygon fill="#A80036" points="1878.5,874.8828,1868.5,878.8828,1878.5,882.8828,1874.5,878.8828" style="stroke:#A80036;stroke-width:1.0;"/><line style="stroke:#A80036;stroke-width:1.0;" x1="1872.5" x2="3274.5" y1="878.8828" y2="878.8828"/><text fill="#000000" font-family="sans-serif" font-size="13" font-weight="bold" lengthAdjust="spacing" textLength="18" x="1884.5" y="873.8169">26</text><text fill="#000000" font-family="sans-serif" font-size="13" lengthAdjust="spacing" textLength="97" x="1906.5" y="873.8169">userRepository</text><polygon fill="#A80036" points="3823,904.0156,3833,908.0156,3823,912.0156,3827,908.0156" style="stroke:#A80036;stroke-width:1.0;"/><line style="stroke:#A80036;stroke-width:1.0;" x1="1867.5" x2="3829" y1="908.0156" y2="908.0156"/><text fill="#000000" font-family="sans-serif" font-size="13" font-weight="bold" lengthAdjust="spacing" textLength="18" x="1874.5" y="902.9497">27</text><text fill="#000000" font-family="sans-serif" font-size="13" lengthAdjust="spacing" textLength="345" x="1896.5" y="902.9497">create(username,emailInstitucional,password,funcao)</text><polygon fill="#A80036" points="1878.5,933.1484,1868.5,937.1484,1878.5,941.1484,1874.5,937.1484" style="stroke:#A80036;stroke-width:1.0;"/><line style="stroke:#A80036;stroke-width:1.0;" x1="1872.5" x2="3834" y1="937.1484" y2="937.1484"/><text fill="#000000" font-family="sans-serif" font-size="13" font-weight="bold" lengthAdjust="spacing" textLength="18" x="1884.5" y="932.0825">28</text><text fill="#000000" font-family="sans-serif" font-size="13" lengthAdjust="spacing" textLength="36" x="1906.5" y="932.0825">sUser</text><polygon fill="#A80036" points="3643,962.2813,3653,966.2813,3643,970.2813,3647,966.2813" style="stroke:#A80036;stroke-width:1.0;"/><line style="stroke:#A80036;stroke-width:1.0;" x1="1867.5" x2="3649" y1="966.2813" y2="966.2813"/><text fill="#000000" font-family="sans-serif" font-size="13" font-weight="bold" lengthAdjust="spacing" textLength="18" x="1874.5" y="961.2153">29</text><text fill="#000000" font-family="sans-serif" font-size="13" lengthAdjust="spacing" textLength="77" x="1896.5" y="961.2153">save(sUser)</text><polygon fill="#A80036" points="959.5,991.4141,949.5,995.4141,959.5,999.4141,955.5,995.4141" style="stroke:#A80036;stroke-width:1.0;"/><line style="stroke:#A80036;stroke-width:1.0;" x1="953.5" x2="1861.5" y1="995.4141" y2="995.4141"/><text fill="#000000" font-family="sans-serif" font-size="13" font-weight="bold" lengthAdjust="spacing" textLength="18" x="965.5" y="990.3481">30</text><text fill="#000000" font-family="sans-serif" font-size="13" lengthAdjust="spacing" textLength="76" x="987.5" y="990.3481">colaborador</text><polygon fill="#A80036" points="147.5,1020.5469,137.5,1024.5469,147.5,1028.5469,143.5,1024.5469" style="stroke:#A80036;stroke-width:1.0;"/><line style="stroke:#A80036;stroke-width:1.0;stroke-dasharray:2.0,2.0;" x1="141.5" x2="942.5" y1="1024.5469" y2="1024.5469"/><text fill="#000000" font-family="sans-serif" font-size="13" font-weight="bold" lengthAdjust="spacing" textLength="17" x="153.5" y="1019.481">31</text><text fill="#000000" font-family="sans-serif" font-size="13" lengthAdjust="spacing" textLength="51" x="174.5" y="1019.481">doShow</text><!--MD5=[b58d1599d424f2dd3b0852facd3b360b]
@startuml
autonumber
actor "Responsável Recursos Humanos" as RRH

participant " EspecificarColaboradorUI" as UI
participant " EspecificarColaboradorController" as CTRL
participant " BuscarEquipasService" as BES
participant " colaborador :Colaborador" as COL
participant " PersistenceContext " as PC
participant " RepositoryFactory" as RF
participant " ColaboradorRepository" as CR
participant " SystemUserRepository" as SUR
participant "sUser : SystemUser" as SUS
participant " ScriptRandomPassword" as SCR


activate RRH
RRH - -> UI : Adicionar Colaborador
activate UI
UI -> BES : findAllEquipas
BES -> UI : list
UI - -> RRH : displayListaEquipas
loop while option != 0
RRH - -> UI : escolhe as equias às quais colaborador vai pertencer
end
UI -> CTRL : create
activate CTRL
UI - -> RRH : Pede informação do Colaborador
RRH - -> UI : nomeCompleto,nomeCurto,dataNascimento,morada,numeroContacto,numeroMecanografico,emailInstitucional,funcao
UI -> CTRL : addColaborador(nomeCompleto,nomeCurto,dataNascimento,morada,numeroContacto,numeroMecanografico,emailInstitucional,funcao)
CTRL -> SCR : criarPassword
SCR-> CTRL : password

CTRL -> PC : repositories()
activate PC
PC -> CR : create
PC -> CTRL : factory
deactivate PC
CTRL -> RF : colaboradores()
activate RF
RF -> CR : create
RF-> CTRL: colaboradorRepository
deactivate RF
CTRL -> COL : create(username,nomeCompleto,nomeCurto,dataNascimento,morada,numeroContacto,numeroMecanografico,emailInstitucional,equipa,password,funcao)
COL -> CTRL : colaborador
CTRL -> CR : save(colaborador)
CTRL -> PC :repositories()
activate PC
PC -> SUR : create
PC-> CTRL : factory
deactivate PC
CTRL -> RF : users()
activate RF
RF -> SUR : create
RF -> CTRL : userRepository
deactivate RF
CTRL -> SUS :create(username,emailInstitucional,password,funcao)
SUS -> CTRL : sUser
CTRL -> SUR :save(sUser)
CTRL -> UI : colaborador
deactivate CTRL

UI - -> RRH : doShow
deactivate UI
deactivate RRH
@enduml

PlantUML version 1.2021.6beta6(Unknown compile time)
(GPL source distribution)
Java Runtime: Java(TM) SE Runtime Environment
JVM: Java HotSpot(TM) 64-Bit Server VM
Default Encoding: UTF-8
Language: en
Country: US
--></g></svg>