<?xml version="1.0" encoding="UTF-8" standalone="no"?><svg xmlns="http://www.w3.org/2000/svg" xmlns:xlink="http://www.w3.org/1999/xlink" contentScriptType="application/ecmascript" contentStyleType="text/css" height="1423px" preserveAspectRatio="none" style="width:2051px;height:1423px;" version="1.1" viewBox="0 0 2051 1423" width="2051px" zoomAndPan="magnify"><defs><filter height="300%" id="f1k9zf6aincjhs" width="300%" x="-1" y="-1"><feGaussianBlur result="blurOut" stdDeviation="2.0"/><feColorMatrix in="blurOut" result="blurOut2" type="matrix" values="0 0 0 0 0 0 0 0 0 0 0 0 0 0 0 0 0 0 .4 0"/><feOffset dx="4.0" dy="4.0" in="blurOut2" result="blurOut3"/><feBlend in="SourceGraphic" in2="blurOut3" mode="normal"/></filter></defs><g><rect fill="#FFFFFF" filter="url(#f1k9zf6aincjhs)" height="1317.1953" style="stroke:#A80036;stroke-width:1.0;" width="10" x="90" y="51.6094"/><rect fill="#FFFFFF" filter="url(#f1k9zf6aincjhs)" height="1294.8438" style="stroke:#A80036;stroke-width:1.0;" width="10" x="791" y="73.9609"/><rect fill="#FFFFFF" filter="url(#f1k9zf6aincjhs)" height="90.7031" style="stroke:#A80036;stroke-width:1.0;" width="10" x="973" y="134.6641"/><rect fill="#FFFFFF" filter="url(#f1k9zf6aincjhs)" height="90.7031" style="stroke:#A80036;stroke-width:1.0;" width="10" x="973" y="480.4766"/><rect fill="#FFFFFF" filter="url(#f1k9zf6aincjhs)" height="60.3516" style="stroke:#A80036;stroke-width:1.0;" width="10" x="1124" y="165.0156"/><rect fill="#FFFFFF" filter="url(#f1k9zf6aincjhs)" height="60.3516" style="stroke:#A80036;stroke-width:1.0;" width="10" x="1124" y="510.8281"/><rect fill="#FFFFFF" filter="url(#f1k9zf6aincjhs)" height="30" style="stroke:#A80036;stroke-width:1.0;" width="10" x="1303.5" y="195.3672"/><rect fill="#FFFFFF" filter="url(#f1k9zf6aincjhs)" height="30" style="stroke:#A80036;stroke-width:1.0;" width="10" x="1303.5" y="255.7188"/><rect fill="#FFFFFF" filter="url(#f1k9zf6aincjhs)" height="30" style="stroke:#A80036;stroke-width:1.0;" width="10" x="1303.5" y="722.2344"/><rect fill="#FFFFFF" filter="url(#f1k9zf6aincjhs)" height="30" style="stroke:#A80036;stroke-width:1.0;" width="10" x="1448.5" y="420.125"/><rect fill="#FFFFFF" filter="url(#f1k9zf6aincjhs)" height="30" style="stroke:#A80036;stroke-width:1.0;" width="10" x="1448.5" y="898.6406"/><rect fill="#FFFFFF" filter="url(#f1k9zf6aincjhs)" height="30" style="stroke:#A80036;stroke-width:1.0;" width="10" x="1448.5" y="1082.0469"/><rect fill="#FFFFFF" filter="url(#f1k9zf6aincjhs)" height="30" style="stroke:#A80036;stroke-width:1.0;" width="10" x="1561.5" y="541.1797"/><rect fill="#FFFFFF" filter="url(#f1k9zf6aincjhs)" height="30" style="stroke:#A80036;stroke-width:1.0;" width="10" x="1561.5" y="601.5313"/><rect fill="#FFFFFF" filter="url(#f1k9zf6aincjhs)" height="30" style="stroke:#A80036;stroke-width:1.0;" width="10" x="1561.5" y="958.9922"/><rect fill="#FFFFFF" filter="url(#f1k9zf6aincjhs)" height="30" style="stroke:#A80036;stroke-width:1.0;" width="10" x="1561.5" y="1323.8047"/><rect fill="#FFFFFF" filter="url(#f1k9zf6aincjhs)" height="30" style="stroke:#A80036;stroke-width:1.0;" width="10" x="1706.5" y="661.8828"/><rect fill="#FFFFFF" filter="url(#f1k9zf6aincjhs)" height="30" style="stroke:#A80036;stroke-width:1.0;" width="10" x="1828" y="838.2891"/><rect fill="#FFFFFF" filter="url(#f1k9zf6aincjhs)" height="30" style="stroke:#A80036;stroke-width:1.0;" width="10" x="1828" y="1263.4531"/><rect fill="#FFFFFF" filter="url(#f1k9zf6aincjhs)" height="30" style="stroke:#A80036;stroke-width:1.0;" width="10" x="1952.5" y="1203.1016"/><rect fill="#FFFFFF" filter="url(#f1k9zf6aincjhs)" height="229.7578" style="stroke:#000000;stroke-width:2.0;" width="1878" x="10" y="767.2344"/><rect fill="#FFFFFF" filter="url(#f1k9zf6aincjhs)" height="350.8125" style="stroke:#000000;stroke-width:2.0;" width="2027" x="10" y="1010.9922"/><line style="stroke:#A80036;stroke-width:1.0;stroke-dasharray:5.0,5.0;" x1="95" x2="95" y1="41.6094" y2="1378.8047"/><line style="stroke:#A80036;stroke-width:1.0;stroke-dasharray:5.0,5.0;" x1="796" x2="796" y1="41.6094" y2="1378.8047"/><line style="stroke:#A80036;stroke-width:1.0;stroke-dasharray:5.0,5.0;" x1="978" x2="978" y1="41.6094" y2="1378.8047"/><line style="stroke:#A80036;stroke-width:1.0;stroke-dasharray:5.0,5.0;" x1="1129" x2="1129" y1="41.6094" y2="1378.8047"/><line style="stroke:#A80036;stroke-width:1.0;stroke-dasharray:5.0,5.0;" x1="1308" x2="1308" y1="41.6094" y2="1378.8047"/><line style="stroke:#A80036;stroke-width:1.0;stroke-dasharray:5.0,5.0;" x1="1453" x2="1453" y1="41.6094" y2="1378.8047"/><line style="stroke:#A80036;stroke-width:1.0;stroke-dasharray:5.0,5.0;" x1="1566" x2="1566" y1="41.6094" y2="1378.8047"/><line style="stroke:#A80036;stroke-width:1.0;stroke-dasharray:5.0,5.0;" x1="1711" x2="1711" y1="41.6094" y2="1378.8047"/><line style="stroke:#A80036;stroke-width:1.0;stroke-dasharray:5.0,5.0;" x1="1833" x2="1833" y1="41.6094" y2="1378.8047"/><line style="stroke:#A80036;stroke-width:1.0;stroke-dasharray:5.0,5.0;" x1="1957" x2="1957" y1="41.6094" y2="1378.8047"/><rect fill="#FEFECE" filter="url(#f1k9zf6aincjhs)" height="31.6094" style="stroke:#A80036;stroke-width:1.5;" width="146" x="20" y="5"/><text fill="#000000" font-family="sans-serif" font-size="14" lengthAdjust="spacing" textLength="132" x="27" y="26.5332">:EspecificarServicoUI</text><rect fill="#FEFECE" filter="url(#f1k9zf6aincjhs)" height="31.6094" style="stroke:#A80036;stroke-width:1.5;" width="146" x="20" y="1377.8047"/><text fill="#000000" font-family="sans-serif" font-size="14" lengthAdjust="spacing" textLength="132" x="27" y="1399.3379">:EspecificarServicoUI</text><rect fill="#FEFECE" filter="url(#f1k9zf6aincjhs)" height="31.6094" style="stroke:#A80036;stroke-width:1.5;" width="196" x="696" y="5"/><text fill="#000000" font-family="sans-serif" font-size="14" lengthAdjust="spacing" textLength="182" x="703" y="26.5332">:EspecificarServicoController</text><rect fill="#FEFECE" filter="url(#f1k9zf6aincjhs)" height="31.6094" style="stroke:#A80036;stroke-width:1.5;" width="196" x="696" y="1377.8047"/><text fill="#000000" font-family="sans-serif" font-size="14" lengthAdjust="spacing" textLength="182" x="703" y="1399.3379">:EspecificarServicoController</text><rect fill="#FEFECE" filter="url(#f1k9zf6aincjhs)" height="31.6094" style="stroke:#A80036;stroke-width:1.5;" width="140" x="906" y="5"/><text fill="#000000" font-family="sans-serif" font-size="14" lengthAdjust="spacing" textLength="126" x="913" y="26.5332">:PersistenceContext</text><rect fill="#FEFECE" filter="url(#f1k9zf6aincjhs)" height="31.6094" style="stroke:#A80036;stroke-width:1.5;" width="140" x="906" y="1377.8047"/><text fill="#000000" font-family="sans-serif" font-size="14" lengthAdjust="spacing" textLength="126" x="913" y="1399.3379">:PersistenceContext</text><rect fill="#FEFECE" filter="url(#f1k9zf6aincjhs)" height="31.6094" style="stroke:#A80036;stroke-width:1.5;" width="134" x="1060" y="5"/><text fill="#000000" font-family="sans-serif" font-size="14" lengthAdjust="spacing" textLength="120" x="1067" y="26.5332">:RepositoryFactory</text><rect fill="#FEFECE" filter="url(#f1k9zf6aincjhs)" height="31.6094" style="stroke:#A80036;stroke-width:1.5;" width="134" x="1060" y="1377.8047"/><text fill="#000000" font-family="sans-serif" font-size="14" lengthAdjust="spacing" textLength="120" x="1067" y="1399.3379">:RepositoryFactory</text><rect fill="#FEFECE" filter="url(#f1k9zf6aincjhs)" height="31.6094" style="stroke:#A80036;stroke-width:1.5;" width="197" x="1208" y="5"/><text fill="#000000" font-family="sans-serif" font-size="14" lengthAdjust="spacing" textLength="183" x="1215" y="26.5332">:CatalogoServicosRepository</text><rect fill="#FEFECE" filter="url(#f1k9zf6aincjhs)" height="31.6094" style="stroke:#A80036;stroke-width:1.5;" width="197" x="1208" y="1377.8047"/><text fill="#000000" font-family="sans-serif" font-size="14" lengthAdjust="spacing" textLength="183" x="1215" y="1399.3379">:CatalogoServicosRepository</text><rect fill="#FEFECE" filter="url(#f1k9zf6aincjhs)" height="31.6094" style="stroke:#A80036;stroke-width:1.5;" width="65" x="1419" y="5"/><text fill="#000000" font-family="sans-serif" font-size="14" lengthAdjust="spacing" textLength="51" x="1426" y="26.5332">:Servico</text><rect fill="#FEFECE" filter="url(#f1k9zf6aincjhs)" height="31.6094" style="stroke:#A80036;stroke-width:1.5;" width="65" x="1419" y="1377.8047"/><text fill="#000000" font-family="sans-serif" font-size="14" lengthAdjust="spacing" textLength="51" x="1426" y="1399.3379">:Servico</text><rect fill="#FEFECE" filter="url(#f1k9zf6aincjhs)" height="31.6094" style="stroke:#A80036;stroke-width:1.5;" width="133" x="1498" y="5"/><text fill="#000000" font-family="sans-serif" font-size="14" lengthAdjust="spacing" textLength="119" x="1505" y="26.5332">:ServicoRepository</text><rect fill="#FEFECE" filter="url(#f1k9zf6aincjhs)" height="31.6094" style="stroke:#A80036;stroke-width:1.5;" width="133" x="1498" y="1377.8047"/><text fill="#000000" font-family="sans-serif" font-size="14" lengthAdjust="spacing" textLength="119" x="1505" y="1399.3379">:ServicoRepository</text><rect fill="#FEFECE" filter="url(#f1k9zf6aincjhs)" height="31.6094" style="stroke:#A80036;stroke-width:1.5;" width="129" x="1645" y="5"/><text fill="#000000" font-family="sans-serif" font-size="14" lengthAdjust="spacing" textLength="115" x="1652" y="26.5332">:CatalogoServicos</text><rect fill="#FEFECE" filter="url(#f1k9zf6aincjhs)" height="31.6094" style="stroke:#A80036;stroke-width:1.5;" width="129" x="1645" y="1377.8047"/><text fill="#000000" font-family="sans-serif" font-size="14" lengthAdjust="spacing" textLength="115" x="1652" y="1399.3379">:CatalogoServicos</text><rect fill="#FEFECE" filter="url(#f1k9zf6aincjhs)" height="31.6094" style="stroke:#A80036;stroke-width:1.5;" width="86" x="1788" y="5"/><text fill="#000000" font-family="sans-serif" font-size="14" lengthAdjust="spacing" textLength="72" x="1795" y="26.5332">:Formulario</text><rect fill="#FEFECE" filter="url(#f1k9zf6aincjhs)" height="31.6094" style="stroke:#A80036;stroke-width:1.5;" width="86" x="1788" y="1377.8047"/><text fill="#000000" font-family="sans-serif" font-size="14" lengthAdjust="spacing" textLength="72" x="1795" y="1399.3379">:Formulario</text><rect fill="#FEFECE" filter="url(#f1k9zf6aincjhs)" height="31.6094" style="stroke:#A80036;stroke-width:1.5;" width="135" x="1888" y="5"/><text fill="#000000" font-family="sans-serif" font-size="14" lengthAdjust="spacing" textLength="121" x="1895" y="26.5332">:AtributoFormulario</text><rect fill="#FEFECE" filter="url(#f1k9zf6aincjhs)" height="31.6094" style="stroke:#A80036;stroke-width:1.5;" width="135" x="1888" y="1377.8047"/><text fill="#000000" font-family="sans-serif" font-size="14" lengthAdjust="spacing" textLength="121" x="1895" y="1399.3379">:AtributoFormulario</text><rect fill="#FFFFFF" filter="url(#f1k9zf6aincjhs)" height="1317.1953" style="stroke:#A80036;stroke-width:1.0;" width="10" x="90" y="51.6094"/><rect fill="#FFFFFF" filter="url(#f1k9zf6aincjhs)" height="1294.8438" style="stroke:#A80036;stroke-width:1.0;" width="10" x="791" y="73.9609"/><rect fill="#FFFFFF" filter="url(#f1k9zf6aincjhs)" height="90.7031" style="stroke:#A80036;stroke-width:1.0;" width="10" x="973" y="134.6641"/><rect fill="#FFFFFF" filter="url(#f1k9zf6aincjhs)" height="90.7031" style="stroke:#A80036;stroke-width:1.0;" width="10" x="973" y="480.4766"/><rect fill="#FFFFFF" filter="url(#f1k9zf6aincjhs)" height="60.3516" style="stroke:#A80036;stroke-width:1.0;" width="10" x="1124" y="165.0156"/><rect fill="#FFFFFF" filter="url(#f1k9zf6aincjhs)" height="60.3516" style="stroke:#A80036;stroke-width:1.0;" width="10" x="1124" y="510.8281"/><rect fill="#FFFFFF" filter="url(#f1k9zf6aincjhs)" height="30" style="stroke:#A80036;stroke-width:1.0;" width="10" x="1303.5" y="195.3672"/><rect fill="#FFFFFF" filter="url(#f1k9zf6aincjhs)" height="30" style="stroke:#A80036;stroke-width:1.0;" width="10" x="1303.5" y="255.7188"/><rect fill="#FFFFFF" filter="url(#f1k9zf6aincjhs)" height="30" style="stroke:#A80036;stroke-width:1.0;" width="10" x="1303.5" y="722.2344"/><rect fill="#FFFFFF" filter="url(#f1k9zf6aincjhs)" height="30" style="stroke:#A80036;stroke-width:1.0;" width="10" x="1448.5" y="420.125"/><rect fill="#FFFFFF" filter="url(#f1k9zf6aincjhs)" height="30" style="stroke:#A80036;stroke-width:1.0;" width="10" x="1448.5" y="898.6406"/><rect fill="#FFFFFF" filter="url(#f1k9zf6aincjhs)" height="30" style="stroke:#A80036;stroke-width:1.0;" width="10" x="1448.5" y="1082.0469"/><rect fill="#FFFFFF" filter="url(#f1k9zf6aincjhs)" height="30" style="stroke:#A80036;stroke-width:1.0;" width="10" x="1561.5" y="541.1797"/><rect fill="#FFFFFF" filter="url(#f1k9zf6aincjhs)" height="30" style="stroke:#A80036;stroke-width:1.0;" width="10" x="1561.5" y="601.5313"/><rect fill="#FFFFFF" filter="url(#f1k9zf6aincjhs)" height="30" style="stroke:#A80036;stroke-width:1.0;" width="10" x="1561.5" y="958.9922"/><rect fill="#FFFFFF" filter="url(#f1k9zf6aincjhs)" height="30" style="stroke:#A80036;stroke-width:1.0;" width="10" x="1561.5" y="1323.8047"/><rect fill="#FFFFFF" filter="url(#f1k9zf6aincjhs)" height="30" style="stroke:#A80036;stroke-width:1.0;" width="10" x="1706.5" y="661.8828"/><rect fill="#FFFFFF" filter="url(#f1k9zf6aincjhs)" height="30" style="stroke:#A80036;stroke-width:1.0;" width="10" x="1828" y="838.2891"/><rect fill="#FFFFFF" filter="url(#f1k9zf6aincjhs)" height="30" style="stroke:#A80036;stroke-width:1.0;" width="10" x="1828" y="1263.4531"/><rect fill="#FFFFFF" filter="url(#f1k9zf6aincjhs)" height="30" style="stroke:#A80036;stroke-width:1.0;" width="10" x="1952.5" y="1203.1016"/><polygon fill="#A80036" points="779,69.9609,789,73.9609,779,77.9609,783,73.9609" style="stroke:#A80036;stroke-width:1.0;"/><line style="stroke:#A80036;stroke-width:1.0;" x1="100" x2="785" y1="73.9609" y2="73.9609"/><text fill="#000000" font-family="sans-serif" font-size="13" font-weight="bold" lengthAdjust="spacing" textLength="7" x="107" y="69.1045">1</text><text fill="#000000" font-family="sans-serif" font-size="13" lengthAdjust="spacing" textLength="36" x="118" y="69.1045">create</text><polygon fill="#A80036" points="779,100.3125,789,104.3125,779,108.3125,783,104.3125" style="stroke:#A80036;stroke-width:1.0;"/><line style="stroke:#A80036;stroke-width:1.0;" x1="100" x2="785" y1="104.3125" y2="104.3125"/><text fill="#000000" font-family="sans-serif" font-size="13" font-weight="bold" lengthAdjust="spacing" textLength="7" x="107" y="99.4561">2</text><text fill="#000000" font-family="sans-serif" font-size="13" lengthAdjust="spacing" textLength="125" x="118" y="99.4561">getCatalogosServicos</text><polygon fill="#A80036" points="961,130.6641,971,134.6641,961,138.6641,965,134.6641" style="stroke:#A80036;stroke-width:1.0;"/><line style="stroke:#A80036;stroke-width:1.0;" x1="801" x2="967" y1="134.6641" y2="134.6641"/><text fill="#000000" font-family="sans-serif" font-size="13" font-weight="bold" lengthAdjust="spacing" textLength="7" x="808" y="129.8076">3</text><text fill="#000000" font-family="sans-serif" font-size="13" lengthAdjust="spacing" textLength="82" x="819" y="129.8076">respositories()</text><polygon fill="#A80036" points="1112,161.0156,1122,165.0156,1112,169.0156,1116,165.0156" style="stroke:#A80036;stroke-width:1.0;"/><line style="stroke:#A80036;stroke-width:1.0;" x1="983" x2="1118" y1="165.0156" y2="165.0156"/><text fill="#000000" font-family="sans-serif" font-size="13" font-weight="bold" lengthAdjust="spacing" textLength="7" x="990" y="160.1592">4</text><text fill="#000000" font-family="sans-serif" font-size="13" lengthAdjust="spacing" textLength="36" x="1001" y="160.1592">create</text><polygon fill="#A80036" points="1291.5,191.3672,1301.5,195.3672,1291.5,199.3672,1295.5,195.3672" style="stroke:#A80036;stroke-width:1.0;"/><line style="stroke:#A80036;stroke-width:1.0;" x1="1134" x2="1297.5" y1="195.3672" y2="195.3672"/><text fill="#000000" font-family="sans-serif" font-size="13" font-weight="bold" lengthAdjust="spacing" textLength="7" x="1141" y="190.5107">5</text><text fill="#000000" font-family="sans-serif" font-size="13" lengthAdjust="spacing" textLength="36" x="1152" y="190.5107">create</text><polygon fill="#A80036" points="1291.5,251.7188,1301.5,255.7188,1291.5,259.7188,1295.5,255.7188" style="stroke:#A80036;stroke-width:1.0;"/><line style="stroke:#A80036;stroke-width:1.0;" x1="801" x2="1297.5" y1="255.7188" y2="255.7188"/><text fill="#000000" font-family="sans-serif" font-size="13" font-weight="bold" lengthAdjust="spacing" textLength="7" x="808" y="250.8623">6</text><text fill="#000000" font-family="sans-serif" font-size="13" lengthAdjust="spacing" textLength="35" x="819" y="250.8623">findAll</text><polygon fill="#A80036" points="111,312.0703,101,316.0703,111,320.0703,107,316.0703" style="stroke:#A80036;stroke-width:1.0;"/><line style="stroke:#A80036;stroke-width:1.0;stroke-dasharray:2.0,2.0;" x1="105" x2="790" y1="316.0703" y2="316.0703"/><text fill="#000000" font-family="sans-serif" font-size="13" font-weight="bold" lengthAdjust="spacing" textLength="7" x="117" y="311.2139">7</text><text fill="#000000" font-family="sans-serif" font-size="13" lengthAdjust="spacing" textLength="107" x="128" y="311.2139">CatalogosServicos</text><line style="stroke:#A80036;stroke-width:1.0;" x1="100" x2="142" y1="346.4219" y2="346.4219"/><line style="stroke:#A80036;stroke-width:1.0;" x1="142" x2="142" y1="346.4219" y2="359.4219"/><line style="stroke:#A80036;stroke-width:1.0;" x1="101" x2="142" y1="359.4219" y2="359.4219"/><polygon fill="#A80036" points="111,355.4219,101,359.4219,111,363.4219,107,359.4219" style="stroke:#A80036;stroke-width:1.0;"/><text fill="#000000" font-family="sans-serif" font-size="13" font-weight="bold" lengthAdjust="spacing" textLength="7" x="107" y="341.5654">8</text><text fill="#000000" font-family="sans-serif" font-size="13" lengthAdjust="spacing" textLength="54" x="118" y="341.5654">doShow()</text><polygon fill="#A80036" points="779,385.7734,789,389.7734,779,393.7734,783,389.7734" style="stroke:#A80036;stroke-width:1.0;"/><line style="stroke:#A80036;stroke-width:1.0;" x1="100" x2="785" y1="389.7734" y2="389.7734"/><text fill="#000000" font-family="sans-serif" font-size="13" font-weight="bold" lengthAdjust="spacing" textLength="7" x="107" y="384.917">9</text><text fill="#000000" font-family="sans-serif" font-size="13" lengthAdjust="spacing" textLength="416" x="118" y="384.917">criarServico(codigo,descBreve,descCompleta,requerFeedback,Catalogo)</text><polygon fill="#A80036" points="1436.5,416.125,1446.5,420.125,1436.5,424.125,1440.5,420.125" style="stroke:#A80036;stroke-width:1.0;"/><line style="stroke:#A80036;stroke-width:1.0;" x1="801" x2="1442.5" y1="420.125" y2="420.125"/><text fill="#000000" font-family="sans-serif" font-size="13" font-weight="bold" lengthAdjust="spacing" textLength="14" x="808" y="415.2686">10</text><text fill="#000000" font-family="sans-serif" font-size="13" lengthAdjust="spacing" textLength="406" x="826" y="415.2686">novoServico=create(codigo,descBreve,descCompleta,requerFeedback)</text><polygon fill="#A80036" points="961,476.4766,971,480.4766,961,484.4766,965,480.4766" style="stroke:#A80036;stroke-width:1.0;"/><line style="stroke:#A80036;stroke-width:1.0;" x1="801" x2="967" y1="480.4766" y2="480.4766"/><text fill="#000000" font-family="sans-serif" font-size="13" font-weight="bold" lengthAdjust="spacing" textLength="14" x="808" y="475.6201">11</text><text fill="#000000" font-family="sans-serif" font-size="13" lengthAdjust="spacing" textLength="82" x="826" y="475.6201">respositories()</text><polygon fill="#A80036" points="1112,506.8281,1122,510.8281,1112,514.8281,1116,510.8281" style="stroke:#A80036;stroke-width:1.0;"/><line style="stroke:#A80036;stroke-width:1.0;" x1="983" x2="1118" y1="510.8281" y2="510.8281"/><text fill="#000000" font-family="sans-serif" font-size="13" font-weight="bold" lengthAdjust="spacing" textLength="14" x="990" y="505.9717">12</text><text fill="#000000" font-family="sans-serif" font-size="13" lengthAdjust="spacing" textLength="36" x="1008" y="505.9717">create</text><polygon fill="#A80036" points="1549.5,537.1797,1559.5,541.1797,1549.5,545.1797,1553.5,541.1797" style="stroke:#A80036;stroke-width:1.0;"/><line style="stroke:#A80036;stroke-width:1.0;" x1="1134" x2="1555.5" y1="541.1797" y2="541.1797"/><text fill="#000000" font-family="sans-serif" font-size="13" font-weight="bold" lengthAdjust="spacing" textLength="14" x="1141" y="536.3232">13</text><text fill="#000000" font-family="sans-serif" font-size="13" lengthAdjust="spacing" textLength="36" x="1159" y="536.3232">create</text><polygon fill="#A80036" points="1549.5,597.5313,1559.5,601.5313,1549.5,605.5313,1553.5,601.5313" style="stroke:#A80036;stroke-width:1.0;"/><line style="stroke:#A80036;stroke-width:1.0;" x1="801" x2="1555.5" y1="601.5313" y2="601.5313"/><text fill="#000000" font-family="sans-serif" font-size="13" font-weight="bold" lengthAdjust="spacing" textLength="14" x="808" y="596.6748">14</text><text fill="#000000" font-family="sans-serif" font-size="13" lengthAdjust="spacing" textLength="102" x="826" y="596.6748">save(novoServico)</text><polygon fill="#A80036" points="1694.5,657.8828,1704.5,661.8828,1694.5,665.8828,1698.5,661.8828" style="stroke:#A80036;stroke-width:1.0;"/><line style="stroke:#A80036;stroke-width:1.0;" x1="801" x2="1700.5" y1="661.8828" y2="661.8828"/><text fill="#000000" font-family="sans-serif" font-size="13" font-weight="bold" lengthAdjust="spacing" textLength="14" x="808" y="657.0264">15</text><text fill="#000000" font-family="sans-serif" font-size="13" lengthAdjust="spacing" textLength="139" x="826" y="657.0264">addServico(novoServico)</text><polygon fill="#A80036" points="1291.5,718.2344,1301.5,722.2344,1291.5,726.2344,1295.5,722.2344" style="stroke:#A80036;stroke-width:1.0;"/><line style="stroke:#A80036;stroke-width:1.0;" x1="801" x2="1297.5" y1="722.2344" y2="722.2344"/><text fill="#000000" font-family="sans-serif" font-size="13" font-weight="bold" lengthAdjust="spacing" textLength="14" x="808" y="717.3779">16</text><text fill="#000000" font-family="sans-serif" font-size="13" lengthAdjust="spacing" textLength="85" x="826" y="717.3779">save(Catalogo)</text><path d="M10,767.2344 L83,767.2344 L83,775.2344 L73,785.2344 L10,785.2344 L10,767.2344 " fill="#EEEEEE" style="stroke:#000000;stroke-width:1.0;"/><rect fill="none" height="229.7578" style="stroke:#000000;stroke-width:2.0;" width="1878" x="10" y="767.2344"/><text fill="#000000" font-family="sans-serif" font-size="13" font-weight="bold" lengthAdjust="spacing" textLength="28" x="25" y="781.7295">loop</text><text fill="#000000" font-family="sans-serif" font-size="11" font-weight="bold" lengthAdjust="spacing" textLength="303" x="98" y="780.6533">[Enquanto o utilizador pretender adicionar formularios]</text><polygon fill="#A80036" points="779,803.9375,789,807.9375,779,811.9375,783,807.9375" style="stroke:#A80036;stroke-width:1.0;"/><line style="stroke:#A80036;stroke-width:1.0;" x1="100" x2="785" y1="807.9375" y2="807.9375"/><text fill="#000000" font-family="sans-serif" font-size="13" font-weight="bold" lengthAdjust="spacing" textLength="14" x="107" y="803.0811">17</text><text fill="#000000" font-family="sans-serif" font-size="13" lengthAdjust="spacing" textLength="409" x="125" y="803.0811">criarFormularioServico(identificadorFormulario,nomeFormulario,Servico)</text><polygon fill="#A80036" points="1816,834.2891,1826,838.2891,1816,842.2891,1820,838.2891" style="stroke:#A80036;stroke-width:1.0;"/><line style="stroke:#A80036;stroke-width:1.0;" x1="801" x2="1822" y1="838.2891" y2="838.2891"/><text fill="#000000" font-family="sans-serif" font-size="13" font-weight="bold" lengthAdjust="spacing" textLength="14" x="808" y="833.4326">18</text><text fill="#000000" font-family="sans-serif" font-size="13" lengthAdjust="spacing" textLength="366" x="826" y="833.4326">novoFormulario=create(identificadorFormulario,nomeFormulario)</text><polygon fill="#A80036" points="1436.5,894.6406,1446.5,898.6406,1436.5,902.6406,1440.5,898.6406" style="stroke:#A80036;stroke-width:1.0;"/><line style="stroke:#A80036;stroke-width:1.0;" x1="801" x2="1442.5" y1="898.6406" y2="898.6406"/><text fill="#000000" font-family="sans-serif" font-size="13" font-weight="bold" lengthAdjust="spacing" textLength="14" x="808" y="893.7842">19</text><text fill="#000000" font-family="sans-serif" font-size="13" lengthAdjust="spacing" textLength="177" x="826" y="893.7842">addFormulario(novoFormulario)</text><polygon fill="#A80036" points="1549.5,954.9922,1559.5,958.9922,1549.5,962.9922,1553.5,958.9922" style="stroke:#A80036;stroke-width:1.0;"/><line style="stroke:#A80036;stroke-width:1.0;" x1="801" x2="1555.5" y1="958.9922" y2="958.9922"/><text fill="#000000" font-family="sans-serif" font-size="13" font-weight="bold" lengthAdjust="spacing" textLength="14" x="808" y="954.1357">20</text><text fill="#000000" font-family="sans-serif" font-size="13" lengthAdjust="spacing" textLength="102" x="826" y="954.1357">save(novoServico)</text><path d="M10,1010.9922 L83,1010.9922 L83,1018.9922 L73,1028.9922 L10,1028.9922 L10,1010.9922 " fill="#EEEEEE" style="stroke:#000000;stroke-width:1.0;"/><rect fill="none" height="350.8125" style="stroke:#000000;stroke-width:2.0;" width="2027" x="10" y="1010.9922"/><text fill="#000000" font-family="sans-serif" font-size="13" font-weight="bold" lengthAdjust="spacing" textLength="28" x="25" y="1025.4873">loop</text><text fill="#000000" font-family="sans-serif" font-size="11" font-weight="bold" lengthAdjust="spacing" textLength="366" x="98" y="1024.4111">[Enquanto o utilizador pretender adicionar atributos de formulario]</text><polygon fill="#A80036" points="779,1047.6953,789,1051.6953,779,1055.6953,783,1051.6953" style="stroke:#A80036;stroke-width:1.0;"/><line style="stroke:#A80036;stroke-width:1.0;" x1="100" x2="785" y1="1051.6953" y2="1051.6953"/><text fill="#000000" font-family="sans-serif" font-size="13" font-weight="bold" lengthAdjust="spacing" textLength="14" x="107" y="1046.8389">21</text><text fill="#000000" font-family="sans-serif" font-size="13" lengthAdjust="spacing" textLength="86" x="125" y="1046.8389">getFormularios</text><polygon fill="#A80036" points="1436.5,1078.0469,1446.5,1082.0469,1436.5,1086.0469,1440.5,1082.0469" style="stroke:#A80036;stroke-width:1.0;"/><line style="stroke:#A80036;stroke-width:1.0;" x1="801" x2="1442.5" y1="1082.0469" y2="1082.0469"/><text fill="#000000" font-family="sans-serif" font-size="13" font-weight="bold" lengthAdjust="spacing" textLength="14" x="808" y="1077.1904">22</text><text fill="#000000" font-family="sans-serif" font-size="13" lengthAdjust="spacing" textLength="94" x="826" y="1077.1904">getFormularios()</text><polygon fill="#A80036" points="111,1138.3984,101,1142.3984,111,1146.3984,107,1142.3984" style="stroke:#A80036;stroke-width:1.0;"/><line style="stroke:#A80036;stroke-width:1.0;stroke-dasharray:2.0,2.0;" x1="105" x2="790" y1="1142.3984" y2="1142.3984"/><text fill="#000000" font-family="sans-serif" font-size="13" font-weight="bold" lengthAdjust="spacing" textLength="14" x="117" y="1137.542">23</text><text fill="#000000" font-family="sans-serif" font-size="13" lengthAdjust="spacing" textLength="68" x="135" y="1137.542">Formularios</text><polygon fill="#A80036" points="779,1168.75,789,1172.75,779,1176.75,783,1172.75" style="stroke:#A80036;stroke-width:1.0;"/><line style="stroke:#A80036;stroke-width:1.0;" x1="100" x2="785" y1="1172.75" y2="1172.75"/><text fill="#000000" font-family="sans-serif" font-size="13" font-weight="bold" lengthAdjust="spacing" textLength="14" x="107" y="1167.8936">24</text><text fill="#000000" font-family="sans-serif" font-size="13" lengthAdjust="spacing" textLength="649" x="125" y="1167.8936">criarAtributoFormularioServico(etiqueta,descricao,tipoDados,expressaoRegular,nomeVariavel,Servico,Formulario)</text><polygon fill="#A80036" points="1940.5,1199.1016,1950.5,1203.1016,1940.5,1207.1016,1944.5,1203.1016" style="stroke:#A80036;stroke-width:1.0;"/><line style="stroke:#A80036;stroke-width:1.0;" x1="801" x2="1946.5" y1="1203.1016" y2="1203.1016"/><text fill="#000000" font-family="sans-serif" font-size="13" font-weight="bold" lengthAdjust="spacing" textLength="14" x="808" y="1198.2451">25</text><text fill="#000000" font-family="sans-serif" font-size="13" lengthAdjust="spacing" textLength="541" x="826" y="1198.2451">novoAtributoFormulario=create(etiqueta,descricao,tipoDados,expressaoRegular,nomeVariavel)</text><polygon fill="#A80036" points="1816,1259.4531,1826,1263.4531,1816,1267.4531,1820,1263.4531" style="stroke:#A80036;stroke-width:1.0;"/><line style="stroke:#A80036;stroke-width:1.0;" x1="801" x2="1822" y1="1263.4531" y2="1263.4531"/><text fill="#000000" font-family="sans-serif" font-size="13" font-weight="bold" lengthAdjust="spacing" textLength="14" x="808" y="1258.5967">26</text><text fill="#000000" font-family="sans-serif" font-size="13" lengthAdjust="spacing" textLength="267" x="826" y="1258.5967">addAtributoFormulario(novoAtributoFormulario)</text><polygon fill="#A80036" points="1549.5,1319.8047,1559.5,1323.8047,1549.5,1327.8047,1553.5,1323.8047" style="stroke:#A80036;stroke-width:1.0;"/><line style="stroke:#A80036;stroke-width:1.0;" x1="801" x2="1555.5" y1="1323.8047" y2="1323.8047"/><text fill="#000000" font-family="sans-serif" font-size="13" font-weight="bold" lengthAdjust="spacing" textLength="14" x="808" y="1318.9482">27</text><text fill="#000000" font-family="sans-serif" font-size="13" lengthAdjust="spacing" textLength="102" x="826" y="1318.9482">save(novoServico)</text><!--MD5=[f3343c72835e3e430ebbc48a8467094c]
@startuml
autonumber


participant ":EspecificarServicoUI" as UI
participant ":EspecificarServicoController" as CTRL
participant ":PersistenceContext" as PSC
participant ":RepositoryFactory" as REPFAC
participant ":CatalogoServicosRepository" as CSREP
participant ":Servico" as SVC
participant ":ServicoRepository" as SREP
participant ":CatalogoServicos" as CS
participant ":Formulario" as FL
participant ":AtributoFormulario" as AF

activate UI
UI -> CTRL : create
activate CTRL
UI -> CTRL : getCatalogosServicos
CTRL -> PSC : respositories()
activate PSC
PSC -> REPFAC : create
activate REPFAC
REPFAC -> CSREP : create
activate CSREP
deactivate CSREP
deactivate REPFAC
deactivate PSC
CTRL -> CSREP : findAll
activate CSREP
deactivate CSREP
CTRL - -> UI : CatalogosServicos
UI -> UI : doShow()
UI -> CTRL : criarServico(codigo,descBreve,descCompleta,requerFeedback,Catalogo)
CTRL -> SVC : novoServico=create(codigo,descBreve,descCompleta,requerFeedback)
activate SVC
deactivate SVC
CTRL -> PSC : respositories()
activate PSC
PSC -> REPFAC : create
activate REPFAC
REPFAC -> SREP : create
activate SREP
deactivate SREP
deactivate REPFAC
deactivate PSC
CTRL -> SREP : save(novoServico)
activate SREP
deactivate SREP
CTRL -> CS : addServico(novoServico)
activate CS
deactivate CS
CTRL -> CSREP : save(Catalogo)
activate CSREP
deactivate CSREP
loop Enquanto o utilizador pretender adicionar formularios
UI -> CTRL : criarFormularioServico(identificadorFormulario,nomeFormulario,Servico)
CTRL -> FL : novoFormulario=create(identificadorFormulario,nomeFormulario)
activate FL
deactivate FL
CTRL -> SVC : addFormulario(novoFormulario)
activate SVC
deactivate SVC
CTRL -> SREP : save(novoServico)
activate SREP
deactivate SREP
end loop
loop Enquanto o utilizador pretender adicionar atributos de formulario
UI -> CTRL : getFormularios
CTRL -> SVC : getFormularios()
activate SVC
deactivate SVC
CTRL - -> UI : Formularios
UI -> CTRL : criarAtributoFormularioServico(etiqueta,descricao,tipoDados,expressaoRegular,nomeVariavel,Servico,Formulario)
CTRL -> AF : novoAtributoFormulario=create(etiqueta,descricao,tipoDados,expressaoRegular,nomeVariavel)
activate AF
deactivate AF
CTRL -> FL : addAtributoFormulario(novoAtributoFormulario)
activate FL
deactivate FL
CTRL -> SREP : save(novoServico)
activate SREP
deactivate SREP
end loop
deactivate CTRL
deactivate UI

@enduml

PlantUML version 1.2021.4(Sun Apr 04 09:49:39 BST 2021)
(GPL source distribution)
Java Runtime: OpenJDK Runtime Environment
JVM: Dynamic Code Evolution 64-Bit Server VM
Default Encoding: Cp1252
Language: pt
Country: PT
--></g></svg>