<?xml version="1.0" encoding="UTF-8" standalone="no"?><svg xmlns="http://www.w3.org/2000/svg" xmlns:xlink="http://www.w3.org/1999/xlink" contentScriptType="application/ecmascript" contentStyleType="text/css" height="952px" preserveAspectRatio="none" style="width:1530px;height:952px;" version="1.1" viewBox="0 0 1530 952" width="1530px" zoomAndPan="magnify"><defs><filter height="300%" id="fz8qi8itku46j" width="300%" x="-1" y="-1"><feGaussianBlur result="blurOut" stdDeviation="2.0"/><feColorMatrix in="blurOut" result="blurOut2" type="matrix" values="0 0 0 0 0 0 0 0 0 0 0 0 0 0 0 0 0 0 .4 0"/><feOffset dx="4.0" dy="4.0" in="blurOut2" result="blurOut3"/><feBlend in="SourceGraphic" in2="blurOut3" mode="normal"/></filter></defs><g><rect fill="#FFFFFF" filter="url(#fz8qi8itku46j)" height="838.3828" style="stroke:#A80036;stroke-width:1.0;" width="10" x="88" y="51.6094"/><rect fill="#FFFFFF" filter="url(#fz8qi8itku46j)" height="816.0313" style="stroke:#A80036;stroke-width:1.0;" width="10" x="423" y="73.9609"/><rect fill="#FFFFFF" filter="url(#fz8qi8itku46j)" height="90.7031" style="stroke:#A80036;stroke-width:1.0;" width="10" x="618" y="134.6641"/><rect fill="#FFFFFF" filter="url(#fz8qi8itku46j)" height="90.7031" style="stroke:#A80036;stroke-width:1.0;" width="10" x="618" y="376.7734"/><rect fill="#FFFFFF" filter="url(#fz8qi8itku46j)" height="90.7031" style="stroke:#A80036;stroke-width:1.0;" width="10" x="618" y="738.9375"/><rect fill="#FFFFFF" filter="url(#fz8qi8itku46j)" height="60.3516" style="stroke:#A80036;stroke-width:1.0;" width="10" x="769" y="165.0156"/><rect fill="#FFFFFF" filter="url(#fz8qi8itku46j)" height="60.3516" style="stroke:#A80036;stroke-width:1.0;" width="10" x="769" y="407.125"/><rect fill="#FFFFFF" filter="url(#fz8qi8itku46j)" height="60.3516" style="stroke:#A80036;stroke-width:1.0;" width="10" x="769" y="769.2891"/><rect fill="#FFFFFF" filter="url(#fz8qi8itku46j)" height="30" style="stroke:#A80036;stroke-width:1.0;" width="10" x="932.5" y="195.3672"/><rect fill="#FFFFFF" filter="url(#fz8qi8itku46j)" height="30" style="stroke:#A80036;stroke-width:1.0;" width="10" x="932.5" y="255.7188"/><rect fill="#FFFFFF" filter="url(#fz8qi8itku46j)" height="30" style="stroke:#A80036;stroke-width:1.0;" width="10" x="1094" y="437.4766"/><rect fill="#FFFFFF" filter="url(#fz8qi8itku46j)" height="30" style="stroke:#A80036;stroke-width:1.0;" width="10" x="1094" y="497.8281"/><rect fill="#FFFFFF" filter="url(#fz8qi8itku46j)" height="30" style="stroke:#A80036;stroke-width:1.0;" width="10" x="1237.5" y="678.5859"/><rect fill="#FFFFFF" filter="url(#fz8qi8itku46j)" height="30" style="stroke:#A80036;stroke-width:1.0;" width="10" x="1414.5" y="799.6406"/><rect fill="#FFFFFF" filter="url(#fz8qi8itku46j)" height="30" style="stroke:#A80036;stroke-width:1.0;" width="10" x="1414.5" y="859.9922"/><line style="stroke:#A80036;stroke-width:1.0;stroke-dasharray:5.0,5.0;" x1="93" x2="93" y1="41.6094" y2="907.9922"/><line style="stroke:#A80036;stroke-width:1.0;stroke-dasharray:5.0,5.0;" x1="428" x2="428" y1="41.6094" y2="907.9922"/><line style="stroke:#A80036;stroke-width:1.0;stroke-dasharray:5.0,5.0;" x1="623" x2="623" y1="41.6094" y2="907.9922"/><line style="stroke:#A80036;stroke-width:1.0;stroke-dasharray:5.0,5.0;" x1="774" x2="774" y1="41.6094" y2="907.9922"/><line style="stroke:#A80036;stroke-width:1.0;stroke-dasharray:5.0,5.0;" x1="937" x2="937" y1="41.6094" y2="907.9922"/><line style="stroke:#A80036;stroke-width:1.0;stroke-dasharray:5.0,5.0;" x1="1099" x2="1099" y1="41.6094" y2="907.9922"/><line style="stroke:#A80036;stroke-width:1.0;stroke-dasharray:5.0,5.0;" x1="1242" x2="1242" y1="41.6094" y2="907.9922"/><line style="stroke:#A80036;stroke-width:1.0;stroke-dasharray:5.0,5.0;" x1="1419" x2="1419" y1="41.6094" y2="907.9922"/><rect fill="#FEFECE" filter="url(#fz8qi8itku46j)" height="31.6094" style="stroke:#A80036;stroke-width:1.5;" width="172" x="5" y="5"/><text fill="#000000" font-family="sans-serif" font-size="14" lengthAdjust="spacing" textLength="158" x="12" y="26.5332">:CriarCatalogoServicosUI</text><rect fill="#FEFECE" filter="url(#fz8qi8itku46j)" height="31.6094" style="stroke:#A80036;stroke-width:1.5;" width="172" x="5" y="906.9922"/><text fill="#000000" font-family="sans-serif" font-size="14" lengthAdjust="spacing" textLength="158" x="12" y="928.5254">:CriarCatalogoServicosUI</text><rect fill="#FEFECE" filter="url(#fz8qi8itku46j)" height="31.6094" style="stroke:#A80036;stroke-width:1.5;" width="222" x="315" y="5"/><text fill="#000000" font-family="sans-serif" font-size="14" lengthAdjust="spacing" textLength="208" x="322" y="26.5332">:CriarCatalogoServicosController</text><rect fill="#FEFECE" filter="url(#fz8qi8itku46j)" height="31.6094" style="stroke:#A80036;stroke-width:1.5;" width="222" x="315" y="906.9922"/><text fill="#000000" font-family="sans-serif" font-size="14" lengthAdjust="spacing" textLength="208" x="322" y="928.5254">:CriarCatalogoServicosController</text><rect fill="#FEFECE" filter="url(#fz8qi8itku46j)" height="31.6094" style="stroke:#A80036;stroke-width:1.5;" width="140" x="551" y="5"/><text fill="#000000" font-family="sans-serif" font-size="14" lengthAdjust="spacing" textLength="126" x="558" y="26.5332">:PersistenceContext</text><rect fill="#FEFECE" filter="url(#fz8qi8itku46j)" height="31.6094" style="stroke:#A80036;stroke-width:1.5;" width="140" x="551" y="906.9922"/><text fill="#000000" font-family="sans-serif" font-size="14" lengthAdjust="spacing" textLength="126" x="558" y="928.5254">:PersistenceContext</text><rect fill="#FEFECE" filter="url(#fz8qi8itku46j)" height="31.6094" style="stroke:#A80036;stroke-width:1.5;" width="134" x="705" y="5"/><text fill="#000000" font-family="sans-serif" font-size="14" lengthAdjust="spacing" textLength="120" x="712" y="26.5332">:RepositoryFactory</text><rect fill="#FEFECE" filter="url(#fz8qi8itku46j)" height="31.6094" style="stroke:#A80036;stroke-width:1.5;" width="134" x="705" y="906.9922"/><text fill="#000000" font-family="sans-serif" font-size="14" lengthAdjust="spacing" textLength="120" x="712" y="928.5254">:RepositoryFactory</text><rect fill="#FEFECE" filter="url(#fz8qi8itku46j)" height="31.6094" style="stroke:#A80036;stroke-width:1.5;" width="165" x="853" y="5"/><text fill="#000000" font-family="sans-serif" font-size="14" lengthAdjust="spacing" textLength="151" x="860" y="26.5332">:ColaboradorRepository</text><rect fill="#FEFECE" filter="url(#fz8qi8itku46j)" height="31.6094" style="stroke:#A80036;stroke-width:1.5;" width="165" x="853" y="906.9922"/><text fill="#000000" font-family="sans-serif" font-size="14" lengthAdjust="spacing" textLength="151" x="860" y="928.5254">:ColaboradorRepository</text><rect fill="#FEFECE" filter="url(#fz8qi8itku46j)" height="31.6094" style="stroke:#A80036;stroke-width:1.5;" width="130" x="1032" y="5"/><text fill="#000000" font-family="sans-serif" font-size="14" lengthAdjust="spacing" textLength="116" x="1039" y="26.5332">:EquipaRepository</text><rect fill="#FEFECE" filter="url(#fz8qi8itku46j)" height="31.6094" style="stroke:#A80036;stroke-width:1.5;" width="130" x="1032" y="906.9922"/><text fill="#000000" font-family="sans-serif" font-size="14" lengthAdjust="spacing" textLength="116" x="1039" y="928.5254">:EquipaRepository</text><rect fill="#FEFECE" filter="url(#fz8qi8itku46j)" height="31.6094" style="stroke:#A80036;stroke-width:1.5;" width="129" x="1176" y="5"/><text fill="#000000" font-family="sans-serif" font-size="14" lengthAdjust="spacing" textLength="115" x="1183" y="26.5332">:CatalogoServicos</text><rect fill="#FEFECE" filter="url(#fz8qi8itku46j)" height="31.6094" style="stroke:#A80036;stroke-width:1.5;" width="129" x="1176" y="906.9922"/><text fill="#000000" font-family="sans-serif" font-size="14" lengthAdjust="spacing" textLength="115" x="1183" y="928.5254">:CatalogoServicos</text><rect fill="#FEFECE" filter="url(#fz8qi8itku46j)" height="31.6094" style="stroke:#A80036;stroke-width:1.5;" width="197" x="1319" y="5"/><text fill="#000000" font-family="sans-serif" font-size="14" lengthAdjust="spacing" textLength="183" x="1326" y="26.5332">:CatalogoServicosRepository</text><rect fill="#FEFECE" filter="url(#fz8qi8itku46j)" height="31.6094" style="stroke:#A80036;stroke-width:1.5;" width="197" x="1319" y="906.9922"/><text fill="#000000" font-family="sans-serif" font-size="14" lengthAdjust="spacing" textLength="183" x="1326" y="928.5254">:CatalogoServicosRepository</text><rect fill="#FFFFFF" filter="url(#fz8qi8itku46j)" height="838.3828" style="stroke:#A80036;stroke-width:1.0;" width="10" x="88" y="51.6094"/><rect fill="#FFFFFF" filter="url(#fz8qi8itku46j)" height="816.0313" style="stroke:#A80036;stroke-width:1.0;" width="10" x="423" y="73.9609"/><rect fill="#FFFFFF" filter="url(#fz8qi8itku46j)" height="90.7031" style="stroke:#A80036;stroke-width:1.0;" width="10" x="618" y="134.6641"/><rect fill="#FFFFFF" filter="url(#fz8qi8itku46j)" height="90.7031" style="stroke:#A80036;stroke-width:1.0;" width="10" x="618" y="376.7734"/><rect fill="#FFFFFF" filter="url(#fz8qi8itku46j)" height="90.7031" style="stroke:#A80036;stroke-width:1.0;" width="10" x="618" y="738.9375"/><rect fill="#FFFFFF" filter="url(#fz8qi8itku46j)" height="60.3516" style="stroke:#A80036;stroke-width:1.0;" width="10" x="769" y="165.0156"/><rect fill="#FFFFFF" filter="url(#fz8qi8itku46j)" height="60.3516" style="stroke:#A80036;stroke-width:1.0;" width="10" x="769" y="407.125"/><rect fill="#FFFFFF" filter="url(#fz8qi8itku46j)" height="60.3516" style="stroke:#A80036;stroke-width:1.0;" width="10" x="769" y="769.2891"/><rect fill="#FFFFFF" filter="url(#fz8qi8itku46j)" height="30" style="stroke:#A80036;stroke-width:1.0;" width="10" x="932.5" y="195.3672"/><rect fill="#FFFFFF" filter="url(#fz8qi8itku46j)" height="30" style="stroke:#A80036;stroke-width:1.0;" width="10" x="932.5" y="255.7188"/><rect fill="#FFFFFF" filter="url(#fz8qi8itku46j)" height="30" style="stroke:#A80036;stroke-width:1.0;" width="10" x="1094" y="437.4766"/><rect fill="#FFFFFF" filter="url(#fz8qi8itku46j)" height="30" style="stroke:#A80036;stroke-width:1.0;" width="10" x="1094" y="497.8281"/><rect fill="#FFFFFF" filter="url(#fz8qi8itku46j)" height="30" style="stroke:#A80036;stroke-width:1.0;" width="10" x="1237.5" y="678.5859"/><rect fill="#FFFFFF" filter="url(#fz8qi8itku46j)" height="30" style="stroke:#A80036;stroke-width:1.0;" width="10" x="1414.5" y="799.6406"/><rect fill="#FFFFFF" filter="url(#fz8qi8itku46j)" height="30" style="stroke:#A80036;stroke-width:1.0;" width="10" x="1414.5" y="859.9922"/><polygon fill="#A80036" points="411,69.9609,421,73.9609,411,77.9609,415,73.9609" style="stroke:#A80036;stroke-width:1.0;"/><line style="stroke:#A80036;stroke-width:1.0;" x1="98" x2="417" y1="73.9609" y2="73.9609"/><text fill="#000000" font-family="sans-serif" font-size="13" font-weight="bold" lengthAdjust="spacing" textLength="7" x="105" y="69.1045">1</text><text fill="#000000" font-family="sans-serif" font-size="13" lengthAdjust="spacing" textLength="36" x="116" y="69.1045">create</text><polygon fill="#A80036" points="411,100.3125,421,104.3125,411,108.3125,415,104.3125" style="stroke:#A80036;stroke-width:1.0;"/><line style="stroke:#A80036;stroke-width:1.0;" x1="98" x2="417" y1="104.3125" y2="104.3125"/><text fill="#000000" font-family="sans-serif" font-size="13" font-weight="bold" lengthAdjust="spacing" textLength="7" x="105" y="99.4561">2</text><text fill="#000000" font-family="sans-serif" font-size="13" lengthAdjust="spacing" textLength="101" x="116" y="99.4561">getColaboradores</text><polygon fill="#A80036" points="606,130.6641,616,134.6641,606,138.6641,610,134.6641" style="stroke:#A80036;stroke-width:1.0;"/><line style="stroke:#A80036;stroke-width:1.0;" x1="433" x2="612" y1="134.6641" y2="134.6641"/><text fill="#000000" font-family="sans-serif" font-size="13" font-weight="bold" lengthAdjust="spacing" textLength="7" x="440" y="129.8076">3</text><text fill="#000000" font-family="sans-serif" font-size="13" lengthAdjust="spacing" textLength="75" x="451" y="129.8076">repositories()</text><polygon fill="#A80036" points="757,161.0156,767,165.0156,757,169.0156,761,165.0156" style="stroke:#A80036;stroke-width:1.0;"/><line style="stroke:#A80036;stroke-width:1.0;" x1="628" x2="763" y1="165.0156" y2="165.0156"/><text fill="#000000" font-family="sans-serif" font-size="13" font-weight="bold" lengthAdjust="spacing" textLength="7" x="635" y="160.1592">4</text><text fill="#000000" font-family="sans-serif" font-size="13" lengthAdjust="spacing" textLength="36" x="646" y="160.1592">create</text><polygon fill="#A80036" points="920.5,191.3672,930.5,195.3672,920.5,199.3672,924.5,195.3672" style="stroke:#A80036;stroke-width:1.0;"/><line style="stroke:#A80036;stroke-width:1.0;" x1="779" x2="926.5" y1="195.3672" y2="195.3672"/><text fill="#000000" font-family="sans-serif" font-size="13" font-weight="bold" lengthAdjust="spacing" textLength="7" x="786" y="190.5107">5</text><text fill="#000000" font-family="sans-serif" font-size="13" lengthAdjust="spacing" textLength="36" x="797" y="190.5107">create</text><polygon fill="#A80036" points="920.5,251.7188,930.5,255.7188,920.5,259.7188,924.5,255.7188" style="stroke:#A80036;stroke-width:1.0;"/><line style="stroke:#A80036;stroke-width:1.0;" x1="433" x2="926.5" y1="255.7188" y2="255.7188"/><text fill="#000000" font-family="sans-serif" font-size="13" font-weight="bold" lengthAdjust="spacing" textLength="7" x="440" y="250.8623">6</text><text fill="#000000" font-family="sans-serif" font-size="13" lengthAdjust="spacing" textLength="35" x="451" y="250.8623">findAll</text><polygon fill="#A80036" points="109,312.0703,99,316.0703,109,320.0703,105,316.0703" style="stroke:#A80036;stroke-width:1.0;"/><line style="stroke:#A80036;stroke-width:1.0;stroke-dasharray:2.0,2.0;" x1="103" x2="422" y1="316.0703" y2="316.0703"/><text fill="#000000" font-family="sans-serif" font-size="13" font-weight="bold" lengthAdjust="spacing" textLength="7" x="115" y="311.2139">7</text><text fill="#000000" font-family="sans-serif" font-size="13" lengthAdjust="spacing" textLength="83" x="126" y="311.2139">Colaboradores</text><polygon fill="#A80036" points="411,342.4219,421,346.4219,411,350.4219,415,346.4219" style="stroke:#A80036;stroke-width:1.0;"/><line style="stroke:#A80036;stroke-width:1.0;" x1="98" x2="417" y1="346.4219" y2="346.4219"/><text fill="#000000" font-family="sans-serif" font-size="13" font-weight="bold" lengthAdjust="spacing" textLength="7" x="105" y="341.5654">8</text><text fill="#000000" font-family="sans-serif" font-size="13" lengthAdjust="spacing" textLength="65" x="116" y="341.5654">getEquipas</text><polygon fill="#A80036" points="606,372.7734,616,376.7734,606,380.7734,610,376.7734" style="stroke:#A80036;stroke-width:1.0;"/><line style="stroke:#A80036;stroke-width:1.0;" x1="433" x2="612" y1="376.7734" y2="376.7734"/><text fill="#000000" font-family="sans-serif" font-size="13" font-weight="bold" lengthAdjust="spacing" textLength="7" x="440" y="371.917">9</text><text fill="#000000" font-family="sans-serif" font-size="13" lengthAdjust="spacing" textLength="75" x="451" y="371.917">repositories()</text><polygon fill="#A80036" points="757,403.125,767,407.125,757,411.125,761,407.125" style="stroke:#A80036;stroke-width:1.0;"/><line style="stroke:#A80036;stroke-width:1.0;" x1="628" x2="763" y1="407.125" y2="407.125"/><text fill="#000000" font-family="sans-serif" font-size="13" font-weight="bold" lengthAdjust="spacing" textLength="14" x="635" y="402.2686">10</text><text fill="#000000" font-family="sans-serif" font-size="13" lengthAdjust="spacing" textLength="36" x="653" y="402.2686">create</text><polygon fill="#A80036" points="1082,433.4766,1092,437.4766,1082,441.4766,1086,437.4766" style="stroke:#A80036;stroke-width:1.0;"/><line style="stroke:#A80036;stroke-width:1.0;" x1="779" x2="1088" y1="437.4766" y2="437.4766"/><text fill="#000000" font-family="sans-serif" font-size="13" font-weight="bold" lengthAdjust="spacing" textLength="14" x="786" y="432.6201">11</text><text fill="#000000" font-family="sans-serif" font-size="13" lengthAdjust="spacing" textLength="36" x="804" y="432.6201">create</text><polygon fill="#A80036" points="1082,493.8281,1092,497.8281,1082,501.8281,1086,497.8281" style="stroke:#A80036;stroke-width:1.0;"/><line style="stroke:#A80036;stroke-width:1.0;" x1="433" x2="1088" y1="497.8281" y2="497.8281"/><text fill="#000000" font-family="sans-serif" font-size="13" font-weight="bold" lengthAdjust="spacing" textLength="14" x="440" y="492.9717">12</text><text fill="#000000" font-family="sans-serif" font-size="13" lengthAdjust="spacing" textLength="35" x="458" y="492.9717">findAll</text><polygon fill="#A80036" points="109,554.1797,99,558.1797,109,562.1797,105,558.1797" style="stroke:#A80036;stroke-width:1.0;"/><line style="stroke:#A80036;stroke-width:1.0;stroke-dasharray:2.0,2.0;" x1="103" x2="422" y1="558.1797" y2="558.1797"/><text fill="#000000" font-family="sans-serif" font-size="13" font-weight="bold" lengthAdjust="spacing" textLength="14" x="115" y="553.3232">13</text><text fill="#000000" font-family="sans-serif" font-size="13" lengthAdjust="spacing" textLength="47" x="133" y="553.3232">Equipas</text><line style="stroke:#A80036;stroke-width:1.0;" x1="98" x2="140" y1="588.5313" y2="588.5313"/><line style="stroke:#A80036;stroke-width:1.0;" x1="140" x2="140" y1="588.5313" y2="601.5313"/><line style="stroke:#A80036;stroke-width:1.0;" x1="99" x2="140" y1="601.5313" y2="601.5313"/><polygon fill="#A80036" points="109,597.5313,99,601.5313,109,605.5313,105,601.5313" style="stroke:#A80036;stroke-width:1.0;"/><text fill="#000000" font-family="sans-serif" font-size="13" font-weight="bold" lengthAdjust="spacing" textLength="14" x="105" y="583.6748">14</text><text fill="#000000" font-family="sans-serif" font-size="13" lengthAdjust="spacing" textLength="54" x="123" y="583.6748">doShow()</text><polygon fill="#A80036" points="411,644.2344,421,648.2344,411,652.2344,415,648.2344" style="stroke:#A80036;stroke-width:1.0;"/><line style="stroke:#A80036;stroke-width:1.0;" x1="98" x2="417" y1="648.2344" y2="648.2344"/><text fill="#000000" font-family="sans-serif" font-size="13" font-weight="bold" lengthAdjust="spacing" textLength="14" x="105" y="635.2021">15</text><text fill="#000000" font-family="sans-serif" font-size="13" lengthAdjust="spacing" textLength="283" x="123" y="627.0264">criarCatalogoServicos(Equipa(s),Colaborador(es),</text><text fill="#000000" font-family="sans-serif" font-size="13" lengthAdjust="spacing" textLength="248" x="127" y="643.3779">idCatalogo,titulo,descBreve,descCompleta)</text><polygon fill="#A80036" points="1225.5,674.5859,1235.5,678.5859,1225.5,682.5859,1229.5,678.5859" style="stroke:#A80036;stroke-width:1.0;"/><line style="stroke:#A80036;stroke-width:1.0;" x1="433" x2="1231.5" y1="678.5859" y2="678.5859"/><text fill="#000000" font-family="sans-serif" font-size="13" font-weight="bold" lengthAdjust="spacing" textLength="14" x="440" y="673.7295">16</text><text fill="#000000" font-family="sans-serif" font-size="13" lengthAdjust="spacing" textLength="584" x="458" y="673.7295">novoCatalogoServicos = create(Equipa(s),Colaborador(es),idCatalogo,titulo,descBreve,descCompleta)</text><polygon fill="#A80036" points="606,734.9375,616,738.9375,606,742.9375,610,738.9375" style="stroke:#A80036;stroke-width:1.0;"/><line style="stroke:#A80036;stroke-width:1.0;" x1="433" x2="612" y1="738.9375" y2="738.9375"/><text fill="#000000" font-family="sans-serif" font-size="13" font-weight="bold" lengthAdjust="spacing" textLength="14" x="440" y="734.0811">17</text><text fill="#000000" font-family="sans-serif" font-size="13" lengthAdjust="spacing" textLength="75" x="458" y="734.0811">repositories()</text><polygon fill="#A80036" points="757,765.2891,767,769.2891,757,773.2891,761,769.2891" style="stroke:#A80036;stroke-width:1.0;"/><line style="stroke:#A80036;stroke-width:1.0;" x1="628" x2="763" y1="769.2891" y2="769.2891"/><text fill="#000000" font-family="sans-serif" font-size="13" font-weight="bold" lengthAdjust="spacing" textLength="14" x="635" y="764.4326">18</text><text fill="#000000" font-family="sans-serif" font-size="13" lengthAdjust="spacing" textLength="36" x="653" y="764.4326">create</text><polygon fill="#A80036" points="1402.5,795.6406,1412.5,799.6406,1402.5,803.6406,1406.5,799.6406" style="stroke:#A80036;stroke-width:1.0;"/><line style="stroke:#A80036;stroke-width:1.0;" x1="779" x2="1408.5" y1="799.6406" y2="799.6406"/><text fill="#000000" font-family="sans-serif" font-size="13" font-weight="bold" lengthAdjust="spacing" textLength="14" x="786" y="794.7842">19</text><text fill="#000000" font-family="sans-serif" font-size="13" lengthAdjust="spacing" textLength="43" x="804" y="794.7842">creates</text><polygon fill="#A80036" points="1402.5,855.9922,1412.5,859.9922,1402.5,863.9922,1406.5,859.9922" style="stroke:#A80036;stroke-width:1.0;"/><line style="stroke:#A80036;stroke-width:1.0;" x1="433" x2="1408.5" y1="859.9922" y2="859.9922"/><text fill="#000000" font-family="sans-serif" font-size="13" font-weight="bold" lengthAdjust="spacing" textLength="14" x="440" y="855.1357">20</text><text fill="#000000" font-family="sans-serif" font-size="13" lengthAdjust="spacing" textLength="160" x="458" y="855.1357">save(novoCatalogoServicos)</text><!--MD5=[d2e1f11ba6b82e06288f988ddeaffea6]
@startuml
autonumber


participant ":CriarCatalogoServicosUI" as UI
participant ":CriarCatalogoServicosController" as CTRL
participant ":PersistenceContext" as PSC
participant ":RepositoryFactory" as REPFAC
participant ":ColaboradorRepository" as CREP
participant ":EquipaRepository" as EQPREP
participant ":CatalogoServicos" as CS
participant ":CatalogoServicosRepository" as CSREP

activate UI
UI -> CTRL : create
activate CTRL
UI -> CTRL : getColaboradores
CTRL -> PSC : repositories()
activate PSC
PSC -> REPFAC : create
activate REPFAC
REPFAC -> CREP : create
activate CREP
deactivate CREP
deactivate REPFAC
deactivate PSC
CTRL -> CREP : findAll
activate CREP
deactivate CREP
CTRL - -> UI : Colaboradores
UI -> CTRL : getEquipas
CTRL -> PSC : repositories()
activate PSC
PSC -> REPFAC : create
activate REPFAC
REPFAC -> EQPREP : create
activate EQPREP
deactivate EQPREP
deactivate REPFAC
deactivate PSC
CTRL -> EQPREP : findAll
activate EQPREP
deactivate EQPREP
CTRL - -> UI : Equipas
UI -> UI : doShow()
UI -> CTRL : criarCatalogoServicos(Equipa(s),Colaborador(es),\n idCatalogo,titulo,descBreve,descCompleta)
CTRL -> CS : novoCatalogoServicos = create(Equipa(s),Colaborador(es),idCatalogo,titulo,descBreve,descCompleta)
activate CS
deactivate CS
CTRL -> PSC : repositories()
activate PSC
PSC -> REPFAC : create
activate REPFAC
REPFAC -> CSREP : creates
activate CSREP
deactivate CSREP
deactivate REPFAC
deactivate PSC
CTRL -> CSREP : save(novoCatalogoServicos)
activate CSREP
deactivate CSREP
deactivate CTRL
deactivate UI

@enduml

PlantUML version 1.2021.4(Sun Apr 04 09:49:39 BST 2021)
(GPL source distribution)
Java Runtime: OpenJDK Runtime Environment
JVM: Dynamic Code Evolution 64-Bit Server VM
Default Encoding: Cp1252
Language: pt
Country: PT
--></g></svg>