<?xml version="1.0" encoding="UTF-8" standalone="no"?><svg xmlns="http://www.w3.org/2000/svg" xmlns:xlink="http://www.w3.org/1999/xlink" contentScriptType="application/ecmascript" contentStyleType="text/css" height="658px" preserveAspectRatio="none" style="width:1103px;height:658px;background:#FFFFFF;" version="1.1" viewBox="0 0 1103 658" width="1103px" zoomAndPan="magnify"><defs><filter height="300%" id="f183l8x7ffdk1q" width="300%" x="-1" y="-1"><feGaussianBlur result="blurOut" stdDeviation="2.0"/><feColorMatrix in="blurOut" result="blurOut2" type="matrix" values="0 0 0 0 0 0 0 0 0 0 0 0 0 0 0 0 0 0 .4 0"/><feOffset dx="4.0" dy="4.0" in="blurOut2" result="blurOut3"/><feBlend in="SourceGraphic" in2="blurOut3" mode="normal"/></filter></defs><g><text fill="#000000" font-family="sans-serif" font-size="18" lengthAdjust="spacing" textLength="193" x="452.5" y="28.708">SD - Listar Catálogos</text><rect fill="#FFFFFF" filter="url(#f183l8x7ffdk1q)" height="453.7266" style="stroke:#A80036;stroke-width:1.0;" width="10" x="143.5" y="143.5156"/><rect fill="#FFFFFF" filter="url(#f183l8x7ffdk1q)" height="405.5938" style="stroke:#A80036;stroke-width:1.0;" width="10" x="330.5" y="177.6484"/><rect fill="#FFFFFF" filter="url(#f183l8x7ffdk1q)" height="57.1328" style="stroke:#A80036;stroke-width:1.0;" width="10" x="689" y="265.0469"/><rect fill="#FFFFFF" filter="url(#f183l8x7ffdk1q)" height="14" style="stroke:#A80036;stroke-width:1.0;" width="10" x="834" y="294.1797"/><rect fill="#FFFFFF" filter="url(#f183l8x7ffdk1q)" height="231.9297" style="stroke:#A80036;stroke-width:1.0;" width="10" x="834" y="351.3125"/><rect fill="#FFFFFF" filter="url(#f183l8x7ffdk1q)" height="14" style="stroke:#A80036;stroke-width:1.0;" width="10" x="1005" y="409.5781"/><rect fill="#FFFFFF" filter="url(#f183l8x7ffdk1q)" height="14" style="stroke:#A80036;stroke-width:1.0;" width="10" x="1005" y="540.1094"/><line style="stroke:#A80036;stroke-width:1.0;stroke-dasharray:5.0,5.0;" x1="35" x2="35" y1="75.25" y2="615.2422"/><line style="stroke:#A80036;stroke-width:1.0;stroke-dasharray:5.0,5.0;" x1="148" x2="148" y1="75.25" y2="615.2422"/><line style="stroke:#A80036;stroke-width:1.0;stroke-dasharray:5.0,5.0;" x1="335" x2="335" y1="75.25" y2="615.2422"/><line style="stroke:#A80036;stroke-width:1.0;stroke-dasharray:5.0,5.0;" x1="532" x2="532" y1="75.25" y2="615.2422"/><line style="stroke:#A80036;stroke-width:1.0;stroke-dasharray:5.0,5.0;" x1="694" x2="694" y1="75.25" y2="615.2422"/><line style="stroke:#A80036;stroke-width:1.0;stroke-dasharray:5.0,5.0;" x1="839" x2="839" y1="75.25" y2="615.2422"/><line style="stroke:#A80036;stroke-width:1.0;stroke-dasharray:5.0,5.0;" x1="1010" x2="1010" y1="75.25" y2="615.2422"/><rect fill="#FEFECE" filter="url(#f183l8x7ffdk1q)" height="30.2969" style="stroke:#A80036;stroke-width:1.5;" width="56" x="5" y="39.9531"/><text fill="#000000" font-family="sans-serif" font-size="14" lengthAdjust="spacing" textLength="42" x="12" y="59.9482">:USER</text><rect fill="#FEFECE" filter="url(#f183l8x7ffdk1q)" height="30.2969" style="stroke:#A80036;stroke-width:1.5;" width="56" x="5" y="614.2422"/><text fill="#000000" font-family="sans-serif" font-size="14" lengthAdjust="spacing" textLength="42" x="12" y="634.2373">:USER</text><rect fill="#FEFECE" filter="url(#f183l8x7ffdk1q)" height="30.2969" style="stroke:#A80036;stroke-width:1.5;" width="143" x="75" y="39.9531"/><text fill="#000000" font-family="sans-serif" font-size="14" lengthAdjust="spacing" textLength="129" x="82" y="59.9482">:ListarCatalogosUI</text><rect fill="#FEFECE" filter="url(#f183l8x7ffdk1q)" height="30.2969" style="stroke:#A80036;stroke-width:1.5;" width="143" x="75" y="614.2422"/><text fill="#000000" font-family="sans-serif" font-size="14" lengthAdjust="spacing" textLength="129" x="82" y="634.2373">:ListarCatalogosUI</text><rect fill="#FEFECE" filter="url(#f183l8x7ffdk1q)" height="30.2969" style="stroke:#A80036;stroke-width:1.5;" width="203" x="232" y="39.9531"/><text fill="#000000" font-family="sans-serif" font-size="14" lengthAdjust="spacing" textLength="189" x="239" y="59.9482">:ListarCatalogosController</text><rect fill="#FEFECE" filter="url(#f183l8x7ffdk1q)" height="30.2969" style="stroke:#A80036;stroke-width:1.5;" width="203" x="232" y="614.2422"/><text fill="#000000" font-family="sans-serif" font-size="14" lengthAdjust="spacing" textLength="189" x="239" y="634.2373">:ListarCatalogosController</text><rect fill="#FEFECE" filter="url(#f183l8x7ffdk1q)" height="30.2969" style="stroke:#A80036;stroke-width:1.5;" width="162" x="449" y="39.9531"/><text fill="#000000" font-family="sans-serif" font-size="14" lengthAdjust="spacing" textLength="148" x="456" y="59.9482">:PersistenceContext</text><rect fill="#FEFECE" filter="url(#f183l8x7ffdk1q)" height="30.2969" style="stroke:#A80036;stroke-width:1.5;" width="162" x="449" y="614.2422"/><text fill="#000000" font-family="sans-serif" font-size="14" lengthAdjust="spacing" textLength="148" x="456" y="634.2373">:PersistenceContext</text><rect fill="#FEFECE" filter="url(#f183l8x7ffdk1q)" height="30.2969" style="stroke:#A80036;stroke-width:1.5;" width="110" x="637" y="39.9531"/><text fill="#000000" font-family="sans-serif" font-size="14" lengthAdjust="spacing" textLength="96" x="644" y="59.9482">:AppSettings</text><rect fill="#FEFECE" filter="url(#f183l8x7ffdk1q)" height="30.2969" style="stroke:#A80036;stroke-width:1.5;" width="110" x="637" y="614.2422"/><text fill="#000000" font-family="sans-serif" font-size="14" lengthAdjust="spacing" textLength="96" x="644" y="634.2373">:AppSettings</text><rect fill="#FEFECE" filter="url(#f183l8x7ffdk1q)" height="30.2969" style="stroke:#A80036;stroke-width:1.5;" width="152" x="761" y="39.9531"/><text fill="#000000" font-family="sans-serif" font-size="14" lengthAdjust="spacing" textLength="138" x="768" y="59.9482">:RepositoryFactory</text><rect fill="#FEFECE" filter="url(#f183l8x7ffdk1q)" height="30.2969" style="stroke:#A80036;stroke-width:1.5;" width="152" x="761" y="614.2422"/><text fill="#000000" font-family="sans-serif" font-size="14" lengthAdjust="spacing" textLength="138" x="768" y="634.2373">:RepositoryFactory</text><rect fill="#FEFECE" filter="url(#f183l8x7ffdk1q)" height="30.2969" style="stroke:#A80036;stroke-width:1.5;" width="162" x="927" y="39.9531"/><text fill="#000000" font-family="sans-serif" font-size="14" lengthAdjust="spacing" textLength="148" x="934" y="59.9482">:CatalogoRepository</text><rect fill="#FEFECE" filter="url(#f183l8x7ffdk1q)" height="30.2969" style="stroke:#A80036;stroke-width:1.5;" width="162" x="927" y="614.2422"/><text fill="#000000" font-family="sans-serif" font-size="14" lengthAdjust="spacing" textLength="148" x="934" y="634.2373">:CatalogoRepository</text><rect fill="#FFFFFF" filter="url(#f183l8x7ffdk1q)" height="453.7266" style="stroke:#A80036;stroke-width:1.0;" width="10" x="143.5" y="143.5156"/><rect fill="#FFFFFF" filter="url(#f183l8x7ffdk1q)" height="405.5938" style="stroke:#A80036;stroke-width:1.0;" width="10" x="330.5" y="177.6484"/><rect fill="#FFFFFF" filter="url(#f183l8x7ffdk1q)" height="57.1328" style="stroke:#A80036;stroke-width:1.0;" width="10" x="689" y="265.0469"/><rect fill="#FFFFFF" filter="url(#f183l8x7ffdk1q)" height="14" style="stroke:#A80036;stroke-width:1.0;" width="10" x="834" y="294.1797"/><rect fill="#FFFFFF" filter="url(#f183l8x7ffdk1q)" height="231.9297" style="stroke:#A80036;stroke-width:1.0;" width="10" x="834" y="351.3125"/><rect fill="#FFFFFF" filter="url(#f183l8x7ffdk1q)" height="14" style="stroke:#A80036;stroke-width:1.0;" width="10" x="1005" y="409.5781"/><rect fill="#FFFFFF" filter="url(#f183l8x7ffdk1q)" height="14" style="stroke:#A80036;stroke-width:1.0;" width="10" x="1005" y="540.1094"/><polygon fill="#A80036" points="136.5,102.3828,146.5,106.3828,136.5,110.3828,140.5,106.3828" style="stroke:#A80036;stroke-width:1.0;"/><line style="stroke:#A80036;stroke-width:1.0;" x1="35" x2="142.5" y1="106.3828" y2="106.3828"/><text fill="#000000" font-family="sans-serif" font-size="13" lengthAdjust="spacing" textLength="44" x="42" y="101.3169">show()</text><line style="stroke:#A80036;stroke-width:1.0;" x1="148.5" x2="195.5" y1="130.5156" y2="130.5156"/><line style="stroke:#A80036;stroke-width:1.0;" x1="195.5" x2="195.5" y1="130.5156" y2="143.5156"/><line style="stroke:#A80036;stroke-width:1.0;" x1="154.5" x2="195.5" y1="143.5156" y2="143.5156"/><polygon fill="#A80036" points="164.5,139.5156,154.5,143.5156,164.5,147.5156,160.5,143.5156" style="stroke:#A80036;stroke-width:1.0;"/><text fill="#000000" font-family="sans-serif" font-size="13" lengthAdjust="spacing" textLength="61" x="160.5" y="125.4497">doShow()</text><polygon fill="#A80036" points="318.5,173.6484,328.5,177.6484,318.5,181.6484,322.5,177.6484" style="stroke:#A80036;stroke-width:1.0;"/><line style="stroke:#A80036;stroke-width:1.0;" x1="153.5" x2="324.5" y1="177.6484" y2="177.6484"/><text fill="#000000" font-family="sans-serif" font-size="13" lengthAdjust="spacing" textLength="105" x="160.5" y="172.5825">listarCatalogos()</text><polygon fill="#A80036" points="520,202.7813,530,206.7813,520,210.7813,524,206.7813" style="stroke:#A80036;stroke-width:1.0;"/><line style="stroke:#A80036;stroke-width:1.0;" x1="340.5" x2="526" y1="206.7813" y2="206.7813"/><text fill="#000000" font-family="sans-serif" font-size="13" lengthAdjust="spacing" textLength="85" x="347.5" y="201.7153">repositories()</text><polygon fill="#A80036" points="682,231.9141,692,235.9141,682,239.9141,686,235.9141" style="stroke:#A80036;stroke-width:1.0;"/><line style="stroke:#A80036;stroke-width:1.0;" x1="532" x2="688" y1="235.9141" y2="235.9141"/><text fill="#000000" font-family="sans-serif" font-size="13" lengthAdjust="spacing" textLength="64" x="539" y="230.8481">instance()</text><polygon fill="#A80036" points="677,261.0469,687,265.0469,677,269.0469,681,265.0469" style="stroke:#A80036;stroke-width:1.0;"/><line style="stroke:#A80036;stroke-width:1.0;" x1="532" x2="683" y1="265.0469" y2="265.0469"/><text fill="#000000" font-family="sans-serif" font-size="13" lengthAdjust="spacing" textLength="138" x="539" y="259.981">getRepositoryFactory</text><polygon fill="#A80036" points="822,290.1797,832,294.1797,822,298.1797,826,294.1797" style="stroke:#A80036;stroke-width:1.0;"/><line style="stroke:#A80036;stroke-width:1.0;stroke-dasharray:2.0,2.0;" x1="699" x2="828" y1="294.1797" y2="294.1797"/><text fill="#000000" font-family="sans-serif" font-size="13" lengthAdjust="spacing" textLength="41" x="706" y="289.1138">create</text><polygon fill="#A80036" points="710,304.1797,700,308.1797,710,312.1797,706,308.1797" style="stroke:#A80036;stroke-width:1.0;"/><line style="stroke:#A80036;stroke-width:1.0;stroke-dasharray:2.0,2.0;" x1="704" x2="838" y1="308.1797" y2="308.1797"/><polygon fill="#A80036" points="351.5,318.1797,341.5,322.1797,351.5,326.1797,347.5,322.1797" style="stroke:#A80036;stroke-width:1.0;"/><line style="stroke:#A80036;stroke-width:1.0;stroke-dasharray:2.0,2.0;" x1="345.5" x2="693" y1="322.1797" y2="322.1797"/><polygon fill="#A80036" points="822,347.3125,832,351.3125,822,355.3125,826,351.3125" style="stroke:#A80036;stroke-width:1.0;"/><line style="stroke:#A80036;stroke-width:1.0;" x1="340.5" x2="828" y1="351.3125" y2="351.3125"/><text fill="#000000" font-family="sans-serif" font-size="13" lengthAdjust="spacing" textLength="69" x="347.5" y="346.2466">consultar()</text><polygon fill="#A80036" points="998,376.4453,1008,380.4453,998,384.4453,1002,380.4453" style="stroke:#A80036;stroke-width:1.0;"/><line style="stroke:#A80036;stroke-width:1.0;stroke-dasharray:2.0,2.0;" x1="844" x2="1004" y1="380.4453" y2="380.4453"/><text fill="#000000" font-family="sans-serif" font-size="13" lengthAdjust="spacing" textLength="51" x="851" y="375.3794">create()</text><polygon fill="#A80036" points="993,405.5781,1003,409.5781,993,413.5781,997,409.5781" style="stroke:#A80036;stroke-width:1.0;"/><line style="stroke:#A80036;stroke-width:1.0;" x1="340.5" x2="999" y1="409.5781" y2="409.5781"/><text fill="#000000" font-family="sans-serif" font-size="13" lengthAdjust="spacing" textLength="146" x="347.5" y="404.5122">list = todosCatalogos()</text><polygon fill="#A80036" points="351.5,419.5781,341.5,423.5781,351.5,427.5781,347.5,423.5781" style="stroke:#A80036;stroke-width:1.0;"/><line style="stroke:#A80036;stroke-width:1.0;stroke-dasharray:2.0,2.0;" x1="345.5" x2="1009" y1="423.5781" y2="423.5781"/><polygon fill="#A80036" points="164.5,448.7109,154.5,452.7109,164.5,456.7109,160.5,452.7109" style="stroke:#A80036;stroke-width:1.0;"/><line style="stroke:#A80036;stroke-width:1.0;stroke-dasharray:2.0,2.0;" x1="158.5" x2="329.5" y1="452.7109" y2="452.7109"/><text fill="#000000" font-family="sans-serif" font-size="13" lengthAdjust="spacing" textLength="18" x="170.5" y="447.645">list</text><polygon fill="#A80036" points="822,477.8438,832,481.8438,822,485.8438,826,481.8438" style="stroke:#A80036;stroke-width:1.0;"/><line style="stroke:#A80036;stroke-width:1.0;" x1="340.5" x2="828" y1="481.8438" y2="481.8438"/><text fill="#000000" font-family="sans-serif" font-size="13" lengthAdjust="spacing" textLength="127" x="347.5" y="476.7778">pesquisar(keyword)</text><polygon fill="#A80036" points="998,506.9766,1008,510.9766,998,514.9766,1002,510.9766" style="stroke:#A80036;stroke-width:1.0;"/><line style="stroke:#A80036;stroke-width:1.0;stroke-dasharray:2.0,2.0;" x1="844" x2="1004" y1="510.9766" y2="510.9766"/><text fill="#000000" font-family="sans-serif" font-size="13" lengthAdjust="spacing" textLength="51" x="851" y="505.9106">create()</text><polygon fill="#A80036" points="993,536.1094,1003,540.1094,993,544.1094,997,540.1094" style="stroke:#A80036;stroke-width:1.0;"/><line style="stroke:#A80036;stroke-width:1.0;" x1="340.5" x2="999" y1="540.1094" y2="540.1094"/><text fill="#000000" font-family="sans-serif" font-size="13" lengthAdjust="spacing" textLength="227" x="347.5" y="535.0435">list = pesquisarCatalogos(keyword)</text><polygon fill="#A80036" points="351.5,550.1094,341.5,554.1094,351.5,558.1094,347.5,554.1094" style="stroke:#A80036;stroke-width:1.0;"/><line style="stroke:#A80036;stroke-width:1.0;stroke-dasharray:2.0,2.0;" x1="345.5" x2="1009" y1="554.1094" y2="554.1094"/><polygon fill="#A80036" points="164.5,579.2422,154.5,583.2422,164.5,587.2422,160.5,583.2422" style="stroke:#A80036;stroke-width:1.0;"/><line style="stroke:#A80036;stroke-width:1.0;stroke-dasharray:2.0,2.0;" x1="158.5" x2="334.5" y1="583.2422" y2="583.2422"/><text fill="#000000" font-family="sans-serif" font-size="13" lengthAdjust="spacing" textLength="18" x="170.5" y="578.1763">list</text><polygon fill="#A80036" points="46,593.2422,36,597.2422,46,601.2422,42,597.2422" style="stroke:#A80036;stroke-width:1.0;"/><line style="stroke:#A80036;stroke-width:1.0;stroke-dasharray:2.0,2.0;" x1="40" x2="147.5" y1="597.2422" y2="597.2422"/><!--MD5=[d65525970f6cd572b60e3520a814f391]
@startuml
title SD - Listar Catálogos

	participant ":USER" as user
	participant ":ListarCatalogosUI" as lui
	participant ":ListarCatalogosController" as ctrl
	participant ":PersistenceContext" as pc
	participant ":AppSettings" as as
	participant ":RepositoryFactory" as rf
	participant ":CatalogoRepository" as repo

	user->lui:show()
	lui->lui: doShow()
	activate lui
	lui->ctrl:listarCatalogos()
	activate ctrl
	ctrl->pc:repositories()
	pc->as:instance()
	pc->as:getRepositoryFactory
	activate as
	as- ->rf:create
	activate rf
	rf- ->as:
    	deactivate rf
	as- ->ctrl:
	deactivate as
	
	ctrl->rf:consultar()
	activate rf
	rf- ->repo: create()
	
	ctrl->repo: list = todosCatalogos()
	activate repo
	repo- ->ctrl:
	deactivate repo
	
	ctrl- ->lui: list
	
	ctrl->rf:pesquisar(keyword)
	rf- ->repo: create()
	
	ctrl->repo: list = pesquisarCatalogos(keyword)
	activate repo
	repo- ->ctrl:
	deactivate repo
	
	ctrl- ->lui: list


	deactivate ctrl 
   	deactivate rf
	lui- ->user:
	deactivate lui
@enduml

PlantUML version 1.2021.6beta6(Unknown compile time)
(GPL source distribution)
Java Runtime: Java(TM) SE Runtime Environment
JVM: Java HotSpot(TM) 64-Bit Server VM
Default Encoding: UTF-8
Language: en
Country: US
--></g></svg>