<?xml version="1.0" encoding="UTF-8" standalone="no"?><svg xmlns="http://www.w3.org/2000/svg" xmlns:xlink="http://www.w3.org/1999/xlink" contentScriptType="application/ecmascript" contentStyleType="text/css" height="896px" preserveAspectRatio="none" style="width:2182px;height:896px;background:#FFFFFF;" version="1.1" viewBox="0 0 2182 896" width="2182px" zoomAndPan="magnify"><defs><filter height="300%" id="fovks8n2b3ob4" width="300%" x="-1" y="-1"><feGaussianBlur result="blurOut" stdDeviation="2.0"/><feColorMatrix in="blurOut" result="blurOut2" type="matrix" values="0 0 0 0 0 0 0 0 0 0 0 0 0 0 0 0 0 0 .4 0"/><feOffset dx="4.0" dy="4.0" in="blurOut2" result="blurOut3"/><feBlend in="SourceGraphic" in2="blurOut3" mode="normal"/></filter></defs><g><rect fill="#FFFFFF" filter="url(#fovks8n2b3ob4)" height="674.9219" style="stroke:#A80036;stroke-width:1.0;" width="10" x="553" y="119.4297"/><rect fill="#FFFFFF" filter="url(#fovks8n2b3ob4)" height="616.6563" style="stroke:#A80036;stroke-width:1.0;" width="10" x="896" y="148.5625"/><rect fill="#FFFFFF" filter="url(#fovks8n2b3ob4)" height="29.1328" style="stroke:#A80036;stroke-width:1.0;" width="10" x="1142.5" y="177.6953"/><rect fill="#FFFFFF" filter="url(#fovks8n2b3ob4)" height="59.1328" style="stroke:#A80036;stroke-width:1.0;" width="10" x="1314.5" y="206.8281"/><rect fill="#FFFFFF" filter="url(#fovks8n2b3ob4)" height="30" style="stroke:#A80036;stroke-width:1.0;" width="10" x="1475.5" y="235.9609"/><rect fill="#FFFFFF" filter="url(#fovks8n2b3ob4)" height="29.1328" style="stroke:#A80036;stroke-width:1.0;" width="10" x="1621" y="295.0938"/><rect fill="#FFFFFF" filter="url(#fovks8n2b3ob4)" height="29.1328" style="stroke:#A80036;stroke-width:1.0;" width="10" x="1804" y="324.2266"/><rect fill="#FFFFFF" filter="url(#fovks8n2b3ob4)" height="104.5313" style="stroke:#000000;stroke-width:2.0;" width="1138" x="426" y="455.7578"/><rect fill="#FFFFFF" filter="url(#fovks8n2b3ob4)" height="104.5313" style="stroke:#000000;stroke-width:2.0;" width="1138" x="426" y="574.2891"/><line style="stroke:#A80036;stroke-width:1.0;stroke-dasharray:5.0,5.0;" x1="42" x2="42" y1="88.2969" y2="812.3516"/><line style="stroke:#A80036;stroke-width:1.0;stroke-dasharray:5.0,5.0;" x1="558" x2="558" y1="88.2969" y2="812.3516"/><line style="stroke:#A80036;stroke-width:1.0;stroke-dasharray:5.0,5.0;" x1="901" x2="901" y1="88.2969" y2="812.3516"/><line style="stroke:#A80036;stroke-width:1.0;stroke-dasharray:5.0,5.0;" x1="1147" x2="1147" y1="88.2969" y2="812.3516"/><line style="stroke:#A80036;stroke-width:1.0;stroke-dasharray:5.0,5.0;" x1="1319" x2="1319" y1="88.2969" y2="812.3516"/><line style="stroke:#A80036;stroke-width:1.0;stroke-dasharray:5.0,5.0;" x1="1480" x2="1480" y1="88.2969" y2="812.3516"/><line style="stroke:#A80036;stroke-width:1.0;stroke-dasharray:5.0,5.0;" x1="1626" x2="1626" y1="88.2969" y2="812.3516"/><line style="stroke:#A80036;stroke-width:1.0;stroke-dasharray:5.0,5.0;" x1="1809" x2="1809" y1="88.2969" y2="812.3516"/><line style="stroke:#A80036;stroke-width:1.0;stroke-dasharray:5.0,5.0;" x1="2104.5" x2="2104.5" y1="88.2969" y2="812.3516"/><text fill="#000000" font-family="sans-serif" font-size="14" lengthAdjust="spacing" textLength="68" x="5" y="84.9951">Utilizador</text><ellipse cx="42" cy="15" fill="#FEFECE" filter="url(#fovks8n2b3ob4)" rx="8" ry="8" style="stroke:#A80036;stroke-width:2.0;"/><path d="M42,23 L42,50 M29,31 L55,31 M42,50 L29,65 M42,50 L55,65 " fill="none" filter="url(#fovks8n2b3ob4)" style="stroke:#A80036;stroke-width:2.0;"/><text fill="#000000" font-family="sans-serif" font-size="14" lengthAdjust="spacing" textLength="68" x="5" y="824.3467">Utilizador</text><ellipse cx="42" cy="837.6484" fill="#FEFECE" filter="url(#fovks8n2b3ob4)" rx="8" ry="8" style="stroke:#A80036;stroke-width:2.0;"/><path d="M42,845.6484 L42,872.6484 M29,853.6484 L55,853.6484 M42,872.6484 L29,887.6484 M42,872.6484 L55,887.6484 " fill="none" filter="url(#fovks8n2b3ob4)" style="stroke:#A80036;stroke-width:2.0;"/><rect fill="#FEFECE" filter="url(#fovks8n2b3ob4)" height="30.2969" style="stroke:#A80036;stroke-width:1.5;" width="240" x="436" y="53"/><text fill="#000000" font-family="sans-serif" font-size="14" lengthAdjust="spacing" textLength="222" x="447" y="72.9951">ReivindicarTarefasPendentesUI</text><rect fill="#FEFECE" filter="url(#fovks8n2b3ob4)" height="30.2969" style="stroke:#A80036;stroke-width:1.5;" width="240" x="436" y="811.3516"/><text fill="#000000" font-family="sans-serif" font-size="14" lengthAdjust="spacing" textLength="222" x="447" y="831.3467">ReivindicarTarefasPendentesUI</text><rect fill="#FEFECE" filter="url(#fovks8n2b3ob4)" height="30.2969" style="stroke:#A80036;stroke-width:1.5;" width="300" x="749" y="53"/><text fill="#000000" font-family="sans-serif" font-size="14" lengthAdjust="spacing" textLength="282" x="760" y="72.9951">ReivindicarTarefasPendentesController</text><rect fill="#FEFECE" filter="url(#fovks8n2b3ob4)" height="30.2969" style="stroke:#A80036;stroke-width:1.5;" width="300" x="749" y="811.3516"/><text fill="#000000" font-family="sans-serif" font-size="14" lengthAdjust="spacing" textLength="282" x="760" y="831.3467">ReivindicarTarefasPendentesController</text><rect fill="#FEFECE" filter="url(#fovks8n2b3ob4)" height="30.2969" style="stroke:#A80036;stroke-width:1.5;" width="165" x="1063" y="53"/><text fill="#000000" font-family="sans-serif" font-size="14" lengthAdjust="spacing" textLength="143" x="1074" y="72.9951">PersistenceContext</text><rect fill="#FEFECE" filter="url(#fovks8n2b3ob4)" height="30.2969" style="stroke:#A80036;stroke-width:1.5;" width="165" x="1063" y="811.3516"/><text fill="#000000" font-family="sans-serif" font-size="14" lengthAdjust="spacing" textLength="143" x="1074" y="831.3467">PersistenceContext</text><rect fill="#FEFECE" filter="url(#fovks8n2b3ob4)" height="30.2969" style="stroke:#A80036;stroke-width:1.5;" width="151" x="1242" y="53"/><text fill="#000000" font-family="sans-serif" font-size="14" lengthAdjust="spacing" textLength="133" x="1253" y="72.9951">RepositoryFactory</text><rect fill="#FEFECE" filter="url(#fovks8n2b3ob4)" height="30.2969" style="stroke:#A80036;stroke-width:1.5;" width="151" x="1242" y="811.3516"/><text fill="#000000" font-family="sans-serif" font-size="14" lengthAdjust="spacing" textLength="133" x="1253" y="831.3467">RepositoryFactory</text><rect fill="#FEFECE" filter="url(#fovks8n2b3ob4)" height="30.2969" style="stroke:#A80036;stroke-width:1.5;" width="143" x="1407" y="53"/><text fill="#000000" font-family="sans-serif" font-size="14" lengthAdjust="spacing" textLength="125" x="1418" y="72.9951">TarefaRepository</text><rect fill="#FEFECE" filter="url(#fovks8n2b3ob4)" height="30.2969" style="stroke:#A80036;stroke-width:1.5;" width="143" x="1407" y="811.3516"/><text fill="#000000" font-family="sans-serif" font-size="14" lengthAdjust="spacing" textLength="125" x="1418" y="831.3467">TarefaRepository</text><rect fill="#FEFECE" filter="url(#fovks8n2b3ob4)" height="30.2969" style="stroke:#A80036;stroke-width:1.5;" width="120" x="1564" y="53"/><text fill="#000000" font-family="sans-serif" font-size="14" lengthAdjust="spacing" textLength="102" x="1575" y="72.9951">AuthzRegistry</text><rect fill="#FEFECE" filter="url(#fovks8n2b3ob4)" height="30.2969" style="stroke:#A80036;stroke-width:1.5;" width="120" x="1564" y="811.3516"/><text fill="#000000" font-family="sans-serif" font-size="14" lengthAdjust="spacing" textLength="102" x="1575" y="831.3467">AuthzRegistry</text><rect fill="#FEFECE" filter="url(#fovks8n2b3ob4)" height="30.2969" style="stroke:#A80036;stroke-width:1.5;" width="218" x="1698" y="53"/><text fill="#000000" font-family="sans-serif" font-size="14" lengthAdjust="spacing" textLength="200" x="1709" y="72.9951">athz : Authorization Service</text><rect fill="#FEFECE" filter="url(#fovks8n2b3ob4)" height="30.2969" style="stroke:#A80036;stroke-width:1.5;" width="218" x="1698" y="811.3516"/><text fill="#000000" font-family="sans-serif" font-size="14" lengthAdjust="spacing" textLength="200" x="1709" y="831.3467">athz : Authorization Service</text><rect fill="#FEFECE" filter="url(#fovks8n2b3ob4)" height="30.2969" style="stroke:#A80036;stroke-width:1.5;" width="131" x="2037.5" y="53"/><text fill="#000000" font-family="sans-serif" font-size="14" lengthAdjust="spacing" textLength="113" x="2048.5" y="72.9951">us : UserSession</text><rect fill="#FEFECE" filter="url(#fovks8n2b3ob4)" height="30.2969" style="stroke:#A80036;stroke-width:1.5;" width="131" x="2037.5" y="811.3516"/><text fill="#000000" font-family="sans-serif" font-size="14" lengthAdjust="spacing" textLength="113" x="2048.5" y="831.3467">us : UserSession</text><rect fill="#FFFFFF" filter="url(#fovks8n2b3ob4)" height="674.9219" style="stroke:#A80036;stroke-width:1.0;" width="10" x="553" y="119.4297"/><rect fill="#FFFFFF" filter="url(#fovks8n2b3ob4)" height="616.6563" style="stroke:#A80036;stroke-width:1.0;" width="10" x="896" y="148.5625"/><rect fill="#FFFFFF" filter="url(#fovks8n2b3ob4)" height="29.1328" style="stroke:#A80036;stroke-width:1.0;" width="10" x="1142.5" y="177.6953"/><rect fill="#FFFFFF" filter="url(#fovks8n2b3ob4)" height="59.1328" style="stroke:#A80036;stroke-width:1.0;" width="10" x="1314.5" y="206.8281"/><rect fill="#FFFFFF" filter="url(#fovks8n2b3ob4)" height="30" style="stroke:#A80036;stroke-width:1.0;" width="10" x="1475.5" y="235.9609"/><rect fill="#FFFFFF" filter="url(#fovks8n2b3ob4)" height="29.1328" style="stroke:#A80036;stroke-width:1.0;" width="10" x="1621" y="295.0938"/><rect fill="#FFFFFF" filter="url(#fovks8n2b3ob4)" height="29.1328" style="stroke:#A80036;stroke-width:1.0;" width="10" x="1804" y="324.2266"/><polygon fill="#A80036" points="541,115.4297,551,119.4297,541,123.4297,545,119.4297" style="stroke:#A80036;stroke-width:1.0;"/><line style="stroke:#A80036;stroke-width:1.0;" x1="42" x2="547" y1="119.4297" y2="119.4297"/><text fill="#000000" font-family="sans-serif" font-size="13" font-weight="bold" lengthAdjust="spacing" textLength="9" x="49" y="114.3638">1</text><text fill="#000000" font-family="sans-serif" font-size="13" lengthAdjust="spacing" textLength="479" x="62" y="114.3638">começa o processo de reividicação de Tarefas que estão atribuidas ao utili</text><polygon fill="#A80036" points="884,144.5625,894,148.5625,884,152.5625,888,148.5625" style="stroke:#A80036;stroke-width:1.0;"/><line style="stroke:#A80036;stroke-width:1.0;" x1="563" x2="890" y1="148.5625" y2="148.5625"/><text fill="#000000" font-family="sans-serif" font-size="13" font-weight="bold" lengthAdjust="spacing" textLength="9" x="570" y="143.4966">2</text><text fill="#000000" font-family="sans-serif" font-size="13" lengthAdjust="spacing" textLength="102" x="583" y="143.4966">buscarTarefas()</text><polygon fill="#A80036" points="1130.5,173.6953,1140.5,177.6953,1130.5,181.6953,1134.5,177.6953" style="stroke:#A80036;stroke-width:1.0;"/><line style="stroke:#A80036;stroke-width:1.0;" x1="906" x2="1136.5" y1="177.6953" y2="177.6953"/><text fill="#000000" font-family="sans-serif" font-size="13" font-weight="bold" lengthAdjust="spacing" textLength="8" x="913" y="172.6294">3</text><text fill="#000000" font-family="sans-serif" font-size="13" lengthAdjust="spacing" textLength="85" x="925" y="172.6294">repositories()</text><polygon fill="#A80036" points="1302.5,202.8281,1312.5,206.8281,1302.5,210.8281,1306.5,206.8281" style="stroke:#A80036;stroke-width:1.0;"/><line style="stroke:#A80036;stroke-width:1.0;" x1="1147.5" x2="1308.5" y1="206.8281" y2="206.8281"/><text fill="#000000" font-family="sans-serif" font-size="13" font-weight="bold" lengthAdjust="spacing" textLength="9" x="1154.5" y="201.7622">4</text><text fill="#000000" font-family="sans-serif" font-size="13" lengthAdjust="spacing" textLength="41" x="1167.5" y="201.7622">create</text><polygon fill="#A80036" points="1463.5,231.9609,1473.5,235.9609,1463.5,239.9609,1467.5,235.9609" style="stroke:#A80036;stroke-width:1.0;"/><line style="stroke:#A80036;stroke-width:1.0;" x1="1324.5" x2="1469.5" y1="235.9609" y2="235.9609"/><text fill="#000000" font-family="sans-serif" font-size="13" font-weight="bold" lengthAdjust="spacing" textLength="9" x="1331.5" y="230.895">5</text><text fill="#000000" font-family="sans-serif" font-size="13" lengthAdjust="spacing" textLength="41" x="1344.5" y="230.895">create</text><polygon fill="#A80036" points="1609,291.0938,1619,295.0938,1609,299.0938,1613,295.0938" style="stroke:#A80036;stroke-width:1.0;"/><line style="stroke:#A80036;stroke-width:1.0;" x1="906" x2="1615" y1="295.0938" y2="295.0938"/><text fill="#000000" font-family="sans-serif" font-size="13" font-weight="bold" lengthAdjust="spacing" textLength="9" x="913" y="290.0278">6</text><text fill="#000000" font-family="sans-serif" font-size="13" lengthAdjust="spacing" textLength="141" x="926" y="290.0278">authorizationService()</text><polygon fill="#A80036" points="1792,320.2266,1802,324.2266,1792,328.2266,1796,324.2266" style="stroke:#A80036;stroke-width:1.0;"/><line style="stroke:#A80036;stroke-width:1.0;" x1="1626" x2="1798" y1="324.2266" y2="324.2266"/><text fill="#000000" font-family="sans-serif" font-size="13" font-weight="bold" lengthAdjust="spacing" textLength="9" x="1633" y="319.1606">7</text><text fill="#000000" font-family="sans-serif" font-size="13" lengthAdjust="spacing" textLength="58" x="1646" y="319.1606">session()</text><polygon fill="#A80036" points="2093,349.3594,2103,353.3594,2093,357.3594,2097,353.3594" style="stroke:#A80036;stroke-width:1.0;"/><line style="stroke:#A80036;stroke-width:1.0;" x1="1809" x2="2099" y1="353.3594" y2="353.3594"/><text fill="#000000" font-family="sans-serif" font-size="13" font-weight="bold" lengthAdjust="spacing" textLength="9" x="1816" y="348.2935">8</text><text fill="#000000" font-family="sans-serif" font-size="13" lengthAdjust="spacing" textLength="254" x="1829" y="348.2935">authenticatedUser().identity().toString()</text><polygon fill="#A80036" points="917,378.4922,907,382.4922,917,386.4922,913,382.4922" style="stroke:#A80036;stroke-width:1.0;"/><line style="stroke:#A80036;stroke-width:1.0;stroke-dasharray:2.0,2.0;" x1="911" x2="2104" y1="382.4922" y2="382.4922"/><text fill="#000000" font-family="sans-serif" font-size="13" font-weight="bold" lengthAdjust="spacing" textLength="9" x="923" y="377.4263">9</text><text fill="#000000" font-family="sans-serif" font-size="13" lengthAdjust="spacing" textLength="65" x="936" y="377.4263">username</text><polygon fill="#A80036" points="53,407.625,43,411.625,53,415.625,49,411.625" style="stroke:#A80036;stroke-width:1.0;"/><line style="stroke:#A80036;stroke-width:1.0;" x1="47" x2="552" y1="411.625" y2="411.625"/><text fill="#000000" font-family="sans-serif" font-size="13" font-weight="bold" lengthAdjust="spacing" textLength="19" x="59" y="406.5591">10</text><text fill="#000000" font-family="sans-serif" font-size="13" lengthAdjust="spacing" textLength="350" x="82" y="406.5591">pergunta ao utlizador que tipo de tarefas pretende ver</text><polygon fill="#A80036" points="541,436.7578,551,440.7578,541,444.7578,545,440.7578" style="stroke:#A80036;stroke-width:1.0;"/><line style="stroke:#A80036;stroke-width:1.0;" x1="42" x2="547" y1="440.7578" y2="440.7578"/><text fill="#000000" font-family="sans-serif" font-size="13" font-weight="bold" lengthAdjust="spacing" textLength="18" x="49" y="435.6919">11</text><text fill="#000000" font-family="sans-serif" font-size="13" lengthAdjust="spacing" textLength="103" x="71" y="435.6919">seleciona opção</text><path d="M426,455.7578 L498,455.7578 L498,462.7578 L488,472.7578 L426,472.7578 L426,455.7578 " fill="#EEEEEE" style="stroke:#000000;stroke-width:1.0;"/><rect fill="none" height="104.5313" style="stroke:#000000;stroke-width:2.0;" width="1138" x="426" y="455.7578"/><text fill="#000000" font-family="sans-serif" font-size="13" font-weight="bold" lengthAdjust="spacing" textLength="27" x="441" y="468.8247">opt</text><polygon fill="#A80036" points="884,490.0234,894,494.0234,884,498.0234,888,494.0234" style="stroke:#A80036;stroke-width:1.0;"/><line style="stroke:#A80036;stroke-width:1.0;" x1="563" x2="890" y1="494.0234" y2="494.0234"/><text fill="#000000" font-family="sans-serif" font-size="13" font-weight="bold" lengthAdjust="spacing" textLength="18" x="570" y="488.9575">12</text><text fill="#000000" font-family="sans-serif" font-size="13" lengthAdjust="spacing" textLength="227" x="592" y="488.9575">buscarTarefasResolucaoUtilizador()</text><polygon fill="#A80036" points="1468.5,519.1563,1478.5,523.1563,1468.5,527.1563,1472.5,523.1563" style="stroke:#A80036;stroke-width:1.0;"/><line style="stroke:#A80036;stroke-width:1.0;" x1="906" x2="1474.5" y1="523.1563" y2="523.1563"/><text fill="#000000" font-family="sans-serif" font-size="13" font-weight="bold" lengthAdjust="spacing" textLength="17" x="913" y="518.0903">13</text><text fill="#000000" font-family="sans-serif" font-size="13" lengthAdjust="spacing" textLength="292" x="934" y="518.0903">buscarTarefasResolucaoUtilizador(username)</text><polygon fill="#A80036" points="917,548.2891,907,552.2891,917,556.2891,913,552.2891" style="stroke:#A80036;stroke-width:1.0;"/><line style="stroke:#A80036;stroke-width:1.0;stroke-dasharray:2.0,2.0;" x1="911" x2="1479.5" y1="552.2891" y2="552.2891"/><text fill="#000000" font-family="sans-serif" font-size="13" font-weight="bold" lengthAdjust="spacing" textLength="18" x="923" y="547.2231">14</text><text fill="#000000" font-family="sans-serif" font-size="13" lengthAdjust="spacing" textLength="18" x="945" y="547.2231">list</text><path d="M426,574.2891 L498,574.2891 L498,581.2891 L488,591.2891 L426,591.2891 L426,574.2891 " fill="#EEEEEE" style="stroke:#000000;stroke-width:1.0;"/><rect fill="none" height="104.5313" style="stroke:#000000;stroke-width:2.0;" width="1138" x="426" y="574.2891"/><text fill="#000000" font-family="sans-serif" font-size="13" font-weight="bold" lengthAdjust="spacing" textLength="27" x="441" y="587.356">opt</text><polygon fill="#A80036" points="884,608.5547,894,612.5547,884,616.5547,888,612.5547" style="stroke:#A80036;stroke-width:1.0;"/><line style="stroke:#A80036;stroke-width:1.0;" x1="563" x2="890" y1="612.5547" y2="612.5547"/><text fill="#000000" font-family="sans-serif" font-size="13" font-weight="bold" lengthAdjust="spacing" textLength="18" x="570" y="607.4888">15</text><text fill="#000000" font-family="sans-serif" font-size="13" lengthAdjust="spacing" textLength="230" x="592" y="607.4888">buscarTarefasAprovacaoUtilizador()</text><polygon fill="#A80036" points="1468.5,637.6875,1478.5,641.6875,1468.5,645.6875,1472.5,641.6875" style="stroke:#A80036;stroke-width:1.0;"/><line style="stroke:#A80036;stroke-width:1.0;" x1="906" x2="1474.5" y1="641.6875" y2="641.6875"/><text fill="#000000" font-family="sans-serif" font-size="13" font-weight="bold" lengthAdjust="spacing" textLength="18" x="913" y="636.6216">16</text><text fill="#000000" font-family="sans-serif" font-size="13" lengthAdjust="spacing" textLength="295" x="935" y="636.6216">buscarTarefasAprovacaoUtilizador(username)</text><polygon fill="#A80036" points="917,666.8203,907,670.8203,917,674.8203,913,670.8203" style="stroke:#A80036;stroke-width:1.0;"/><line style="stroke:#A80036;stroke-width:1.0;stroke-dasharray:2.0,2.0;" x1="911" x2="1479.5" y1="670.8203" y2="670.8203"/><text fill="#000000" font-family="sans-serif" font-size="13" font-weight="bold" lengthAdjust="spacing" textLength="18" x="923" y="665.7544">17</text><text fill="#000000" font-family="sans-serif" font-size="13" lengthAdjust="spacing" textLength="18" x="945" y="665.7544">list</text><polygon fill="#A80036" points="541,702.9531,551,706.9531,541,710.9531,545,706.9531" style="stroke:#A80036;stroke-width:1.0;"/><line style="stroke:#A80036;stroke-width:1.0;" x1="42" x2="547" y1="706.9531" y2="706.9531"/><text fill="#000000" font-family="sans-serif" font-size="13" font-weight="bold" lengthAdjust="spacing" textLength="18" x="49" y="701.8872">18</text><text fill="#000000" font-family="sans-serif" font-size="13" lengthAdjust="spacing" textLength="276" x="71" y="701.8872">Escolhe a tarefa que prentende reivindicar.</text><polygon fill="#A80036" points="884,732.0859,894,736.0859,884,740.0859,888,736.0859" style="stroke:#A80036;stroke-width:1.0;"/><line style="stroke:#A80036;stroke-width:1.0;" x1="563" x2="890" y1="736.0859" y2="736.0859"/><text fill="#000000" font-family="sans-serif" font-size="13" font-weight="bold" lengthAdjust="spacing" textLength="18" x="570" y="731.02">19</text><text fill="#000000" font-family="sans-serif" font-size="13" lengthAdjust="spacing" textLength="287" x="592" y="731.02">reivindicarTarefaPendente(tarefa,username)</text><polygon fill="#A80036" points="1468.5,761.2188,1478.5,765.2188,1468.5,769.2188,1472.5,765.2188" style="stroke:#A80036;stroke-width:1.0;"/><line style="stroke:#A80036;stroke-width:1.0;" x1="901" x2="1474.5" y1="765.2188" y2="765.2188"/><text fill="#000000" font-family="sans-serif" font-size="13" font-weight="bold" lengthAdjust="spacing" textLength="19" x="908" y="760.1528">20</text><text fill="#000000" font-family="sans-serif" font-size="13" lengthAdjust="spacing" textLength="80" x="931" y="760.1528">save(tarefa)</text><polygon fill="#A80036" points="53,790.3516,43,794.3516,53,798.3516,49,794.3516" style="stroke:#A80036;stroke-width:1.0;"/><line style="stroke:#A80036;stroke-width:1.0;" x1="47" x2="557" y1="794.3516" y2="794.3516"/><text fill="#000000" font-family="sans-serif" font-size="13" font-weight="bold" lengthAdjust="spacing" textLength="18" x="59" y="789.2856">21</text><text fill="#000000" font-family="sans-serif" font-size="13" lengthAdjust="spacing" textLength="209" x="81" y="789.2856">confirma o sucesso da operação</text><!--MD5=[94229f7e9b1a9b9c92c8b89bf58c1e66]
@startuml
autonumber
actor "Utilizador" as USER

participant " ReivindicarTarefasPendentesUI" as UI
participant " ReivindicarTarefasPendentesController" as CTRL
participant " PersistenceContext " as PC
participant " RepositoryFactory" as RF
participant " TarefaRepository" as TR
participant " AuthzRegistry" as  AUR
participant " athz : Authorization Service" as AUT
participant " us : UserSession" as US
  


USER -> UI : começa o processo de reividicação de Tarefas que estão atribuidas ao utili
activate UI
UI-> CTRL :buscarTarefas()
activate CTRL
CTRL-> PC : repositories()
activate PC
PC -> RF : create
deactivate PC
activate RF
RF -> TR : create
activate TR
deactivate RF
deactivate TR
CTRL -> AUR : authorizationService()
activate AUR
AUR -> AUT : session()
deactivate AUR
activate AUT 
AUT -> US : authenticatedUser().identity().toString()
deactivate AUT
US - -> CTRL : username
UI -> USER : pergunta ao utlizador que tipo de tarefas pretende ver
USER-> UI : seleciona opção
opt 
UI-> CTRL: buscarTarefasResolucaoUtilizador()
CTRL-> TR : buscarTarefasResolucaoUtilizador(username)
TR - -> CTRL : list
end opt

opt 
UI-> CTRL: buscarTarefasAprovacaoUtilizador()
CTRL-> TR : buscarTarefasAprovacaoUtilizador(username)
TR - -> CTRL : list



end opt
USER -> UI : Escolhe a tarefa que prentende reivindicar.
UI-> CTRL : reivindicarTarefaPendente(tarefa,username)
CTRL-> TR : save(tarefa)
deactivate CTRL
UI-> USER : confirma o sucesso da operação
deactivate UI
@enduml

PlantUML version 1.2021.7(Sun May 23 12:40:07 UTC 2021)
(GPL source distribution)
Java Runtime: Java(TM) SE Runtime Environment
JVM: Java HotSpot(TM) 64-Bit Server VM
Default Encoding: UTF-8
Language: en
Country: US
--></g></svg>