<?xml version="1.0" encoding="UTF-8" standalone="no"?><svg xmlns="http://www.w3.org/2000/svg" xmlns:xlink="http://www.w3.org/1999/xlink" contentScriptType="application/ecmascript" contentStyleType="text/css" height="687px" preserveAspectRatio="none" style="width:2415px;height:687px;" version="1.1" viewBox="0 0 2415 687" width="2415px" zoomAndPan="magnify"><defs><filter height="300%" id="fzohmn0r3eo1v" width="300%" x="-1" y="-1"><feGaussianBlur result="blurOut" stdDeviation="2.0"/><feColorMatrix in="blurOut" result="blurOut2" type="matrix" values="0 0 0 0 0 0 0 0 0 0 0 0 0 0 0 0 0 0 .4 0"/><feOffset dx="4.0" dy="4.0" in="blurOut2" result="blurOut3"/><feBlend in="SourceGraphic" in2="blurOut3" mode="normal"/></filter></defs><g><rect fill="#FFFFFF" filter="url(#fzohmn0r3eo1v)" height="487.2578" style="stroke:#A80036;stroke-width:1.0;" width="10" x="107" y="98.2969"/><rect fill="#FFFFFF" filter="url(#fzohmn0r3eo1v)" height="466.125" style="stroke:#A80036;stroke-width:1.0;" width="10" x="621" y="119.4297"/><rect fill="#FFFFFF" filter="url(#fzohmn0r3eo1v)" height="407.8594" style="stroke:#A80036;stroke-width:1.0;" width="10" x="1236" y="148.5625"/><rect fill="#FFFFFF" filter="url(#fzohmn0r3eo1v)" height="58.2656" style="stroke:#A80036;stroke-width:1.0;" width="10" x="1900" y="294.2266"/><rect fill="#FFFFFF" filter="url(#fzohmn0r3eo1v)" height="58.2656" style="stroke:#A80036;stroke-width:1.0;" width="10" x="2072" y="381.625"/><line style="stroke:#A80036;stroke-width:1.0;stroke-dasharray:5.0,5.0;" x1="112" x2="112" y1="88.2969" y2="603.5547"/><line style="stroke:#A80036;stroke-width:1.0;stroke-dasharray:5.0,5.0;" x1="626" x2="626" y1="88.2969" y2="603.5547"/><line style="stroke:#A80036;stroke-width:1.0;stroke-dasharray:5.0,5.0;" x1="1241" x2="1241" y1="88.2969" y2="603.5547"/><line style="stroke:#A80036;stroke-width:1.0;stroke-dasharray:5.0,5.0;" x1="1717.5" x2="1717.5" y1="88.2969" y2="603.5547"/><line style="stroke:#A80036;stroke-width:1.0;stroke-dasharray:5.0,5.0;" x1="1904.5" x2="1904.5" y1="88.2969" y2="603.5547"/><line style="stroke:#A80036;stroke-width:1.0;stroke-dasharray:5.0,5.0;" x1="2076.5" x2="2076.5" y1="88.2969" y2="603.5547"/><line style="stroke:#A80036;stroke-width:1.0;stroke-dasharray:5.0,5.0;" x1="2253.5" x2="2253.5" y1="88.2969" y2="603.5547"/><line style="stroke:#A80036;stroke-width:1.0;stroke-dasharray:5.0,5.0;" x1="2379.5" x2="2379.5" y1="88.2969" y2="603.5547"/><text fill="#000000" font-family="sans-serif" font-size="14" lengthAdjust="spacing" textLength="208" x="5" y="84.9951">Gestor de Servicos HelpDesk</text><ellipse cx="112" cy="15" fill="#FEFECE" filter="url(#fzohmn0r3eo1v)" rx="8" ry="8" style="stroke:#A80036;stroke-width:2.0;"/><path d="M112,23 L112,50 M99,31 L125,31 M112,50 L99,65 M112,50 L125,65 " fill="none" filter="url(#fzohmn0r3eo1v)" style="stroke:#A80036;stroke-width:2.0;"/><text fill="#000000" font-family="sans-serif" font-size="14" lengthAdjust="spacing" textLength="208" x="5" y="615.5498">Gestor de Servicos HelpDesk</text><ellipse cx="112" cy="628.8516" fill="#FEFECE" filter="url(#fzohmn0r3eo1v)" rx="8" ry="8" style="stroke:#A80036;stroke-width:2.0;"/><path d="M112,636.8516 L112,663.8516 M99,644.8516 L125,644.8516 M112,663.8516 L99,678.8516 M112,663.8516 L125,678.8516 " fill="none" filter="url(#fzohmn0r3eo1v)" style="stroke:#A80036;stroke-width:2.0;"/><rect fill="#FEFECE" filter="url(#fzohmn0r3eo1v)" height="30.2969" style="stroke:#A80036;stroke-width:1.5;" width="200" x="524" y="53"/><text fill="#000000" font-family="sans-serif" font-size="14" lengthAdjust="spacing" textLength="182" x="535" y="72.9951">DefinirNiveisCriticidadeUI</text><rect fill="#FEFECE" filter="url(#fzohmn0r3eo1v)" height="30.2969" style="stroke:#A80036;stroke-width:1.5;" width="200" x="524" y="602.5547"/><text fill="#000000" font-family="sans-serif" font-size="14" lengthAdjust="spacing" textLength="182" x="535" y="622.5498">DefinirNiveisCriticidadeUI</text><rect fill="#FEFECE" filter="url(#fzohmn0r3eo1v)" height="30.2969" style="stroke:#A80036;stroke-width:1.5;" width="260" x="1109" y="53"/><text fill="#000000" font-family="sans-serif" font-size="14" lengthAdjust="spacing" textLength="242" x="1120" y="72.9951">DefinirNiveisCriticidadeController</text><rect fill="#FEFECE" filter="url(#fzohmn0r3eo1v)" height="30.2969" style="stroke:#A80036;stroke-width:1.5;" width="260" x="1109" y="602.5547"/><text fill="#000000" font-family="sans-serif" font-size="14" lengthAdjust="spacing" textLength="242" x="1120" y="622.5498">DefinirNiveisCriticidadeController</text><rect fill="#FEFECE" filter="url(#fzohmn0r3eo1v)" height="30.2969" style="stroke:#A80036;stroke-width:1.5;" width="181" x="1625.5" y="53"/><text fill="#000000" font-family="sans-serif" font-size="14" lengthAdjust="spacing" textLength="163" x="1636.5" y="72.9951">criticidade :Criticidade</text><rect fill="#FEFECE" filter="url(#fzohmn0r3eo1v)" height="30.2969" style="stroke:#A80036;stroke-width:1.5;" width="181" x="1625.5" y="602.5547"/><text fill="#000000" font-family="sans-serif" font-size="14" lengthAdjust="spacing" textLength="163" x="1636.5" y="622.5498">criticidade :Criticidade</text><rect fill="#FEFECE" filter="url(#fzohmn0r3eo1v)" height="30.2969" style="stroke:#A80036;stroke-width:1.5;" width="165" x="1820.5" y="53"/><text fill="#000000" font-family="sans-serif" font-size="14" lengthAdjust="spacing" textLength="143" x="1831.5" y="72.9951">PersistenceContext</text><rect fill="#FEFECE" filter="url(#fzohmn0r3eo1v)" height="30.2969" style="stroke:#A80036;stroke-width:1.5;" width="165" x="1820.5" y="602.5547"/><text fill="#000000" font-family="sans-serif" font-size="14" lengthAdjust="spacing" textLength="143" x="1831.5" y="622.5498">PersistenceContext</text><rect fill="#FEFECE" filter="url(#fzohmn0r3eo1v)" height="30.2969" style="stroke:#A80036;stroke-width:1.5;" width="151" x="1999.5" y="53"/><text fill="#000000" font-family="sans-serif" font-size="14" lengthAdjust="spacing" textLength="133" x="2010.5" y="72.9951">RepositoryFactory</text><rect fill="#FEFECE" filter="url(#fzohmn0r3eo1v)" height="30.2969" style="stroke:#A80036;stroke-width:1.5;" width="151" x="1999.5" y="602.5547"/><text fill="#000000" font-family="sans-serif" font-size="14" lengthAdjust="spacing" textLength="133" x="2010.5" y="622.5498">RepositoryFactory</text><rect fill="#FEFECE" filter="url(#fzohmn0r3eo1v)" height="30.2969" style="stroke:#A80036;stroke-width:1.5;" width="175" x="2164.5" y="53"/><text fill="#000000" font-family="sans-serif" font-size="14" lengthAdjust="spacing" textLength="157" x="2175.5" y="72.9951">CriticidadeRepository</text><rect fill="#FEFECE" filter="url(#fzohmn0r3eo1v)" height="30.2969" style="stroke:#A80036;stroke-width:1.5;" width="175" x="2164.5" y="602.5547"/><text fill="#000000" font-family="sans-serif" font-size="14" lengthAdjust="spacing" textLength="157" x="2175.5" y="622.5498">CriticidadeRepository</text><rect fill="#FEFECE" filter="url(#fzohmn0r3eo1v)" height="30.2969" style="stroke:#A80036;stroke-width:1.5;" width="48" x="2353.5" y="53"/><text fill="#000000" font-family="sans-serif" font-size="14" lengthAdjust="spacing" textLength="30" x="2360.5" y="72.9951">:Cor</text><rect fill="#FEFECE" filter="url(#fzohmn0r3eo1v)" height="30.2969" style="stroke:#A80036;stroke-width:1.5;" width="48" x="2353.5" y="602.5547"/><text fill="#000000" font-family="sans-serif" font-size="14" lengthAdjust="spacing" textLength="30" x="2360.5" y="622.5498">:Cor</text><rect fill="#FFFFFF" filter="url(#fzohmn0r3eo1v)" height="487.2578" style="stroke:#A80036;stroke-width:1.0;" width="10" x="107" y="98.2969"/><rect fill="#FFFFFF" filter="url(#fzohmn0r3eo1v)" height="466.125" style="stroke:#A80036;stroke-width:1.0;" width="10" x="621" y="119.4297"/><rect fill="#FFFFFF" filter="url(#fzohmn0r3eo1v)" height="407.8594" style="stroke:#A80036;stroke-width:1.0;" width="10" x="1236" y="148.5625"/><rect fill="#FFFFFF" filter="url(#fzohmn0r3eo1v)" height="58.2656" style="stroke:#A80036;stroke-width:1.0;" width="10" x="1900" y="294.2266"/><rect fill="#FFFFFF" filter="url(#fzohmn0r3eo1v)" height="58.2656" style="stroke:#A80036;stroke-width:1.0;" width="10" x="2072" y="381.625"/><polygon fill="#A80036" points="609,115.4297,619,119.4297,609,123.4297,613,119.4297" style="stroke:#A80036;stroke-width:1.0;"/><line style="stroke:#A80036;stroke-width:1.0;stroke-dasharray:2.0,2.0;" x1="117" x2="615" y1="119.4297" y2="119.4297"/><text fill="#000000" font-family="sans-serif" font-size="13" font-weight="bold" lengthAdjust="spacing" textLength="9" x="124" y="114.3638">1</text><text fill="#000000" font-family="sans-serif" font-size="13" lengthAdjust="spacing" textLength="152" x="137" y="114.3638">Definir níveis criticidade</text><polygon fill="#A80036" points="1224,144.5625,1234,148.5625,1224,152.5625,1228,148.5625" style="stroke:#A80036;stroke-width:1.0;"/><line style="stroke:#A80036;stroke-width:1.0;" x1="631" x2="1230" y1="148.5625" y2="148.5625"/><text fill="#000000" font-family="sans-serif" font-size="13" font-weight="bold" lengthAdjust="spacing" textLength="9" x="638" y="143.4966">2</text><text fill="#000000" font-family="sans-serif" font-size="13" lengthAdjust="spacing" textLength="41" x="651" y="143.4966">create</text><polygon fill="#A80036" points="128,173.6953,118,177.6953,128,181.6953,124,177.6953" style="stroke:#A80036;stroke-width:1.0;"/><line style="stroke:#A80036;stroke-width:1.0;stroke-dasharray:2.0,2.0;" x1="122" x2="620" y1="177.6953" y2="177.6953"/><text fill="#000000" font-family="sans-serif" font-size="13" font-weight="bold" lengthAdjust="spacing" textLength="8" x="134" y="172.6294">3</text><text fill="#000000" font-family="sans-serif" font-size="13" lengthAdjust="spacing" textLength="198" x="146" y="172.6294">Pede informação da criticidade</text><polygon fill="#A80036" points="609,202.8281,619,206.8281,609,210.8281,613,206.8281" style="stroke:#A80036;stroke-width:1.0;"/><line style="stroke:#A80036;stroke-width:1.0;stroke-dasharray:2.0,2.0;" x1="117" x2="615" y1="206.8281" y2="206.8281"/><text fill="#000000" font-family="sans-serif" font-size="13" font-weight="bold" lengthAdjust="spacing" textLength="9" x="124" y="201.7622">4</text><text fill="#000000" font-family="sans-serif" font-size="13" lengthAdjust="spacing" textLength="467" x="137" y="201.7622">etiqueta,valor,nomeCor,vermelho,verde,azul,tempoMaximo,tempoMedio</text><polygon fill="#A80036" points="1224,231.9609,1234,235.9609,1224,239.9609,1228,235.9609" style="stroke:#A80036;stroke-width:1.0;"/><line style="stroke:#A80036;stroke-width:1.0;" x1="631" x2="1230" y1="235.9609" y2="235.9609"/><text fill="#000000" font-family="sans-serif" font-size="13" font-weight="bold" lengthAdjust="spacing" textLength="9" x="638" y="230.895">5</text><text fill="#000000" font-family="sans-serif" font-size="13" lengthAdjust="spacing" textLength="568" x="651" y="230.895">addCriticidade(etiqueta,valor,nomeCor,vermelho,verde,azul,tempoMaximo,tempoMedio)</text><polygon fill="#A80036" points="2367.5,261.0938,2377.5,265.0938,2367.5,269.0938,2371.5,265.0938" style="stroke:#A80036;stroke-width:1.0;"/><line style="stroke:#A80036;stroke-width:1.0;" x1="1246" x2="2373.5" y1="265.0938" y2="265.0938"/><text fill="#000000" font-family="sans-serif" font-size="13" font-weight="bold" lengthAdjust="spacing" textLength="9" x="1253" y="260.0278">6</text><text fill="#000000" font-family="sans-serif" font-size="13" lengthAdjust="spacing" textLength="381" x="1266" y="260.0278">corDeGravidade = novaCor(vermelho,verde,azul,nomeCor)</text><polygon fill="#A80036" points="1888,290.2266,1898,294.2266,1888,298.2266,1892,294.2266" style="stroke:#A80036;stroke-width:1.0;"/><line style="stroke:#A80036;stroke-width:1.0;" x1="1246" x2="1894" y1="294.2266" y2="294.2266"/><text fill="#000000" font-family="sans-serif" font-size="13" font-weight="bold" lengthAdjust="spacing" textLength="9" x="1253" y="289.1606">7</text><text fill="#000000" font-family="sans-serif" font-size="13" lengthAdjust="spacing" textLength="85" x="1266" y="289.1606">repositories()</text><polygon fill="#A80036" points="2242,319.3594,2252,323.3594,2242,327.3594,2246,323.3594" style="stroke:#A80036;stroke-width:1.0;"/><line style="stroke:#A80036;stroke-width:1.0;" x1="1910" x2="2248" y1="323.3594" y2="323.3594"/><text fill="#000000" font-family="sans-serif" font-size="13" font-weight="bold" lengthAdjust="spacing" textLength="9" x="1917" y="318.2935">8</text><text fill="#000000" font-family="sans-serif" font-size="13" lengthAdjust="spacing" textLength="41" x="1930" y="318.2935">create</text><polygon fill="#A80036" points="1257,348.4922,1247,352.4922,1257,356.4922,1253,352.4922" style="stroke:#A80036;stroke-width:1.0;"/><line style="stroke:#A80036;stroke-width:1.0;" x1="1251" x2="1904" y1="352.4922" y2="352.4922"/><text fill="#000000" font-family="sans-serif" font-size="13" font-weight="bold" lengthAdjust="spacing" textLength="9" x="1263" y="347.4263">9</text><text fill="#000000" font-family="sans-serif" font-size="13" lengthAdjust="spacing" textLength="46" x="1276" y="347.4263">factory</text><polygon fill="#A80036" points="2060,377.625,2070,381.625,2060,385.625,2064,381.625" style="stroke:#A80036;stroke-width:1.0;"/><line style="stroke:#A80036;stroke-width:1.0;" x1="1246" x2="2066" y1="381.625" y2="381.625"/><text fill="#000000" font-family="sans-serif" font-size="13" font-weight="bold" lengthAdjust="spacing" textLength="19" x="1253" y="376.5591">10</text><text fill="#000000" font-family="sans-serif" font-size="13" lengthAdjust="spacing" textLength="82" x="1276" y="376.5591">criticidades()</text><polygon fill="#A80036" points="2242,406.7578,2252,410.7578,2242,414.7578,2246,410.7578" style="stroke:#A80036;stroke-width:1.0;"/><line style="stroke:#A80036;stroke-width:1.0;" x1="2082" x2="2248" y1="410.7578" y2="410.7578"/><text fill="#000000" font-family="sans-serif" font-size="13" font-weight="bold" lengthAdjust="spacing" textLength="18" x="2089" y="405.6919">11</text><text fill="#000000" font-family="sans-serif" font-size="13" lengthAdjust="spacing" textLength="41" x="2111" y="405.6919">create</text><polygon fill="#A80036" points="1257,435.8906,1247,439.8906,1257,443.8906,1253,439.8906" style="stroke:#A80036;stroke-width:1.0;"/><line style="stroke:#A80036;stroke-width:1.0;" x1="1251" x2="2076" y1="439.8906" y2="439.8906"/><text fill="#000000" font-family="sans-serif" font-size="13" font-weight="bold" lengthAdjust="spacing" textLength="18" x="1263" y="434.8247">12</text><text fill="#000000" font-family="sans-serif" font-size="13" lengthAdjust="spacing" textLength="134" x="1285" y="434.8247">criticidadeRepository</text><polygon fill="#A80036" points="1706,465.0234,1716,469.0234,1706,473.0234,1710,469.0234" style="stroke:#A80036;stroke-width:1.0;"/><line style="stroke:#A80036;stroke-width:1.0;" x1="1246" x2="1712" y1="469.0234" y2="469.0234"/><text fill="#000000" font-family="sans-serif" font-size="13" font-weight="bold" lengthAdjust="spacing" textLength="17" x="1253" y="463.9575">13</text><text fill="#000000" font-family="sans-serif" font-size="13" lengthAdjust="spacing" textLength="427" x="1274" y="463.9575">create(corDeGravidade,valor,etiqueta,tempoMaximo,tempoMedio)</text><polygon fill="#A80036" points="1257,494.1563,1247,498.1563,1257,502.1563,1253,498.1563" style="stroke:#A80036;stroke-width:1.0;"/><line style="stroke:#A80036;stroke-width:1.0;" x1="1251" x2="1717" y1="498.1563" y2="498.1563"/><text fill="#000000" font-family="sans-serif" font-size="13" font-weight="bold" lengthAdjust="spacing" textLength="18" x="1263" y="493.0903">14</text><text fill="#000000" font-family="sans-serif" font-size="13" lengthAdjust="spacing" textLength="73" x="1285" y="493.0903">criticiddade</text><polygon fill="#A80036" points="2242,523.2891,2252,527.2891,2242,531.2891,2246,527.2891" style="stroke:#A80036;stroke-width:1.0;"/><line style="stroke:#A80036;stroke-width:1.0;" x1="1246" x2="2248" y1="527.2891" y2="527.2891"/><text fill="#000000" font-family="sans-serif" font-size="13" font-weight="bold" lengthAdjust="spacing" textLength="18" x="1253" y="522.2231">15</text><text fill="#000000" font-family="sans-serif" font-size="13" lengthAdjust="spacing" textLength="106" x="1275" y="522.2231">save(criticidade)</text><polygon fill="#A80036" points="642,552.4219,632,556.4219,642,560.4219,638,556.4219" style="stroke:#A80036;stroke-width:1.0;"/><line style="stroke:#A80036;stroke-width:1.0;" x1="636" x2="1240" y1="556.4219" y2="556.4219"/><text fill="#000000" font-family="sans-serif" font-size="13" font-weight="bold" lengthAdjust="spacing" textLength="18" x="648" y="551.356">16</text><text fill="#000000" font-family="sans-serif" font-size="13" lengthAdjust="spacing" textLength="65" x="670" y="551.356">criticidade</text><polygon fill="#A80036" points="123,581.5547,113,585.5547,123,589.5547,119,585.5547" style="stroke:#A80036;stroke-width:1.0;"/><line style="stroke:#A80036;stroke-width:1.0;stroke-dasharray:2.0,2.0;" x1="117" x2="625" y1="585.5547" y2="585.5547"/><text fill="#000000" font-family="sans-serif" font-size="13" font-weight="bold" lengthAdjust="spacing" textLength="18" x="129" y="580.4888">17</text><text fill="#000000" font-family="sans-serif" font-size="13" lengthAdjust="spacing" textLength="136" x="151" y="580.4888">displayCriticidadeInfo</text><!--MD5=[ed381419962131eb2a68cc292ed47903]
@startuml
autonumber
actor "Gestor de Servicos HelpDesk" as GSH

participant " DefinirNiveisCriticidadeUI" as UI
participant " DefinirNiveisCriticidadeController" as CTRL
participant " criticidade :Criticidade" as CRI
participant " PersistenceContext " as PC
participant " RepositoryFactory" as RF
participant " CriticidadeRepository" as CR
participant  ":Cor " as COR


activate GSH
GSH - -> UI : Definir níveis criticidade
activate UI
UI -> CTRL : create
activate CTRL
UI - -> GSH : Pede informação da criticidade
GSH - -> UI : etiqueta,valor,nomeCor,vermelho,verde,azul,tempoMaximo,tempoMedio
UI -> CTRL : addCriticidade(etiqueta,valor,nomeCor,vermelho,verde,azul,tempoMaximo,tempoMedio)
CTRL -> COR : corDeGravidade = novaCor(vermelho,verde,azul,nomeCor)

CTRL -> PC : repositories()
activate PC
PC -> CR : create
PC -> CTRL : factory
deactivate PC
CTRL -> RF : criticidades()
activate RF
RF -> CR : create
RF-> CTRL: criticidadeRepository
deactivate RF
CTRL -> CRI :create(corDeGravidade,valor,etiqueta,tempoMaximo,tempoMedio)
CRI-> CTRL : criticiddade
CTRL -> CR : save(criticidade)
CTRL -> UI : criticidade
deactivate CTRL

UI - -> GSH : displayCriticidadeInfo
deactivate UI
deactivate GSH
@enduml

PlantUML version 1.2021.6beta2(Unknown compile time)
(GPL source distribution)
Java Runtime: Java(TM) SE Runtime Environment
JVM: Java HotSpot(TM) 64-Bit Server VM
Default Encoding: UTF-8
Language: en
Country: US
--></g></svg>