<?xml version="1.0" encoding="UTF-8" standalone="no"?><svg xmlns="http://www.w3.org/2000/svg" xmlns:xlink="http://www.w3.org/1999/xlink" contentScriptType="application/ecmascript" contentStyleType="text/css" height="1199px" preserveAspectRatio="none" style="width:2281px;height:1199px;background:#FFFFFF;" version="1.1" viewBox="0 0 2281 1199" width="2281px" zoomAndPan="magnify"><defs><filter height="300%" id="f10uu5lybrabjq" width="300%" x="-1" y="-1"><feGaussianBlur result="blurOut" stdDeviation="2.0"/><feColorMatrix in="blurOut" result="blurOut2" type="matrix" values="0 0 0 0 0 0 0 0 0 0 0 0 0 0 0 0 0 0 .4 0"/><feOffset dx="4.0" dy="4.0" in="blurOut2" result="blurOut3"/><feBlend in="SourceGraphic" in2="blurOut3" mode="normal"/></filter></defs><g><rect fill="#FFFFFF" filter="url(#f10uu5lybrabjq)" height="978.25" style="stroke:#A80036;stroke-width:1.0;" width="10" x="532" y="119.4297"/><rect fill="#FFFFFF" filter="url(#f10uu5lybrabjq)" height="919.9844" style="stroke:#A80036;stroke-width:1.0;" width="10" x="818" y="148.5625"/><rect fill="#FFFFFF" filter="url(#f10uu5lybrabjq)" height="29.1328" style="stroke:#A80036;stroke-width:1.0;" width="10" x="1040.5" y="177.6953"/><rect fill="#FFFFFF" filter="url(#f10uu5lybrabjq)" height="59.1328" style="stroke:#A80036;stroke-width:1.0;" width="10" x="1212.5" y="206.8281"/><rect fill="#FFFFFF" filter="url(#f10uu5lybrabjq)" height="30" style="stroke:#A80036;stroke-width:1.0;" width="10" x="1373.5" y="235.9609"/><rect fill="#FFFFFF" filter="url(#f10uu5lybrabjq)" height="29.1328" style="stroke:#A80036;stroke-width:1.0;" width="10" x="1519" y="295.0938"/><rect fill="#FFFFFF" filter="url(#f10uu5lybrabjq)" height="29.1328" style="stroke:#A80036;stroke-width:1.0;" width="10" x="1702" y="324.2266"/><rect fill="#FFFFFF" filter="url(#f10uu5lybrabjq)" height="285.3281" style="stroke:#000000;stroke-width:2.0;" width="1838.5" x="429" y="455.7578"/><rect fill="#FFFFFF" filter="url(#f10uu5lybrabjq)" height="46.2656" style="stroke:#000000;stroke-width:2.0;" width="1572.5" x="685" y="567.2891"/><rect fill="#FFFFFF" filter="url(#f10uu5lybrabjq)" height="46.2656" style="stroke:#000000;stroke-width:2.0;" width="1572.5" x="685" y="627.5547"/><rect fill="#FFFFFF" filter="url(#f10uu5lybrabjq)" height="46.2656" style="stroke:#000000;stroke-width:2.0;" width="1572.5" x="685" y="687.8203"/><rect fill="#FFFFFF" filter="url(#f10uu5lybrabjq)" height="285.3281" style="stroke:#000000;stroke-width:2.0;" width="1838.5" x="429" y="755.0859"/><rect fill="#FFFFFF" filter="url(#f10uu5lybrabjq)" height="46.2656" style="stroke:#000000;stroke-width:2.0;" width="1572.5" x="685" y="866.6172"/><rect fill="#FFFFFF" filter="url(#f10uu5lybrabjq)" height="46.2656" style="stroke:#000000;stroke-width:2.0;" width="1572.5" x="685" y="926.8828"/><rect fill="#FFFFFF" filter="url(#f10uu5lybrabjq)" height="46.2656" style="stroke:#000000;stroke-width:2.0;" width="1572.5" x="685" y="987.1484"/><line style="stroke:#A80036;stroke-width:1.0;stroke-dasharray:5.0,5.0;" x1="42" x2="42" y1="88.2969" y2="1115.6797"/><line style="stroke:#A80036;stroke-width:1.0;stroke-dasharray:5.0,5.0;" x1="537" x2="537" y1="88.2969" y2="1115.6797"/><line style="stroke:#A80036;stroke-width:1.0;stroke-dasharray:5.0,5.0;" x1="823" x2="823" y1="88.2969" y2="1115.6797"/><line style="stroke:#A80036;stroke-width:1.0;stroke-dasharray:5.0,5.0;" x1="1045" x2="1045" y1="88.2969" y2="1115.6797"/><line style="stroke:#A80036;stroke-width:1.0;stroke-dasharray:5.0,5.0;" x1="1217" x2="1217" y1="88.2969" y2="1115.6797"/><line style="stroke:#A80036;stroke-width:1.0;stroke-dasharray:5.0,5.0;" x1="1378" x2="1378" y1="88.2969" y2="1115.6797"/><line style="stroke:#A80036;stroke-width:1.0;stroke-dasharray:5.0,5.0;" x1="1524" x2="1524" y1="88.2969" y2="1115.6797"/><line style="stroke:#A80036;stroke-width:1.0;stroke-dasharray:5.0,5.0;" x1="1707" x2="1707" y1="88.2969" y2="1115.6797"/><line style="stroke:#A80036;stroke-width:1.0;stroke-dasharray:5.0,5.0;" x1="2002.5" x2="2002.5" y1="88.2969" y2="1115.6797"/><line style="stroke:#A80036;stroke-width:1.0;stroke-dasharray:5.0,5.0;" x1="2163.5" x2="2163.5" y1="88.2969" y2="1115.6797"/><text fill="#000000" font-family="sans-serif" font-size="14" lengthAdjust="spacing" textLength="68" x="5" y="84.9951">Utilizador</text><ellipse cx="42" cy="15" fill="#FEFECE" filter="url(#f10uu5lybrabjq)" rx="8" ry="8" style="stroke:#A80036;stroke-width:2.0;"/><path d="M42,23 L42,50 M29,31 L55,31 M42,50 L29,65 M42,50 L55,65 " fill="none" filter="url(#f10uu5lybrabjq)" style="stroke:#A80036;stroke-width:2.0;"/><text fill="#000000" font-family="sans-serif" font-size="14" lengthAdjust="spacing" textLength="68" x="5" y="1127.6748">Utilizador</text><ellipse cx="42" cy="1140.9766" fill="#FEFECE" filter="url(#f10uu5lybrabjq)" rx="8" ry="8" style="stroke:#A80036;stroke-width:2.0;"/><path d="M42,1148.9766 L42,1175.9766 M29,1156.9766 L55,1156.9766 M42,1175.9766 L29,1190.9766 M42,1175.9766 L55,1190.9766 " fill="none" filter="url(#f10uu5lybrabjq)" style="stroke:#A80036;stroke-width:2.0;"/><rect fill="#FEFECE" filter="url(#f10uu5lybrabjq)" height="30.2969" style="stroke:#A80036;stroke-width:1.5;" width="192" x="439" y="53"/><text fill="#000000" font-family="sans-serif" font-size="14" lengthAdjust="spacing" textLength="174" x="450" y="72.9951">ListarTarefasUtilizadorUI</text><rect fill="#FEFECE" filter="url(#f10uu5lybrabjq)" height="30.2969" style="stroke:#A80036;stroke-width:1.5;" width="192" x="439" y="1114.6797"/><text fill="#000000" font-family="sans-serif" font-size="14" lengthAdjust="spacing" textLength="174" x="450" y="1134.6748">ListarTarefasUtilizadorUI</text><rect fill="#FEFECE" filter="url(#f10uu5lybrabjq)" height="30.2969" style="stroke:#A80036;stroke-width:1.5;" width="252" x="695" y="53"/><text fill="#000000" font-family="sans-serif" font-size="14" lengthAdjust="spacing" textLength="234" x="706" y="72.9951">ListarTarefasUtilizadorController</text><rect fill="#FEFECE" filter="url(#f10uu5lybrabjq)" height="30.2969" style="stroke:#A80036;stroke-width:1.5;" width="252" x="695" y="1114.6797"/><text fill="#000000" font-family="sans-serif" font-size="14" lengthAdjust="spacing" textLength="234" x="706" y="1134.6748">ListarTarefasUtilizadorController</text><rect fill="#FEFECE" filter="url(#f10uu5lybrabjq)" height="30.2969" style="stroke:#A80036;stroke-width:1.5;" width="165" x="961" y="53"/><text fill="#000000" font-family="sans-serif" font-size="14" lengthAdjust="spacing" textLength="143" x="972" y="72.9951">PersistenceContext</text><rect fill="#FEFECE" filter="url(#f10uu5lybrabjq)" height="30.2969" style="stroke:#A80036;stroke-width:1.5;" width="165" x="961" y="1114.6797"/><text fill="#000000" font-family="sans-serif" font-size="14" lengthAdjust="spacing" textLength="143" x="972" y="1134.6748">PersistenceContext</text><rect fill="#FEFECE" filter="url(#f10uu5lybrabjq)" height="30.2969" style="stroke:#A80036;stroke-width:1.5;" width="151" x="1140" y="53"/><text fill="#000000" font-family="sans-serif" font-size="14" lengthAdjust="spacing" textLength="133" x="1151" y="72.9951">RepositoryFactory</text><rect fill="#FEFECE" filter="url(#f10uu5lybrabjq)" height="30.2969" style="stroke:#A80036;stroke-width:1.5;" width="151" x="1140" y="1114.6797"/><text fill="#000000" font-family="sans-serif" font-size="14" lengthAdjust="spacing" textLength="133" x="1151" y="1134.6748">RepositoryFactory</text><rect fill="#FEFECE" filter="url(#f10uu5lybrabjq)" height="30.2969" style="stroke:#A80036;stroke-width:1.5;" width="143" x="1305" y="53"/><text fill="#000000" font-family="sans-serif" font-size="14" lengthAdjust="spacing" textLength="125" x="1316" y="72.9951">TarefaRepository</text><rect fill="#FEFECE" filter="url(#f10uu5lybrabjq)" height="30.2969" style="stroke:#A80036;stroke-width:1.5;" width="143" x="1305" y="1114.6797"/><text fill="#000000" font-family="sans-serif" font-size="14" lengthAdjust="spacing" textLength="125" x="1316" y="1134.6748">TarefaRepository</text><rect fill="#FEFECE" filter="url(#f10uu5lybrabjq)" height="30.2969" style="stroke:#A80036;stroke-width:1.5;" width="120" x="1462" y="53"/><text fill="#000000" font-family="sans-serif" font-size="14" lengthAdjust="spacing" textLength="102" x="1473" y="72.9951">AuthzRegistry</text><rect fill="#FEFECE" filter="url(#f10uu5lybrabjq)" height="30.2969" style="stroke:#A80036;stroke-width:1.5;" width="120" x="1462" y="1114.6797"/><text fill="#000000" font-family="sans-serif" font-size="14" lengthAdjust="spacing" textLength="102" x="1473" y="1134.6748">AuthzRegistry</text><rect fill="#FEFECE" filter="url(#f10uu5lybrabjq)" height="30.2969" style="stroke:#A80036;stroke-width:1.5;" width="218" x="1596" y="53"/><text fill="#000000" font-family="sans-serif" font-size="14" lengthAdjust="spacing" textLength="200" x="1607" y="72.9951">athz : Authorization Service</text><rect fill="#FEFECE" filter="url(#f10uu5lybrabjq)" height="30.2969" style="stroke:#A80036;stroke-width:1.5;" width="218" x="1596" y="1114.6797"/><text fill="#000000" font-family="sans-serif" font-size="14" lengthAdjust="spacing" textLength="200" x="1607" y="1134.6748">athz : Authorization Service</text><rect fill="#FEFECE" filter="url(#f10uu5lybrabjq)" height="30.2969" style="stroke:#A80036;stroke-width:1.5;" width="131" x="1935.5" y="53"/><text fill="#000000" font-family="sans-serif" font-size="14" lengthAdjust="spacing" textLength="113" x="1946.5" y="72.9951">us : UserSession</text><rect fill="#FEFECE" filter="url(#f10uu5lybrabjq)" height="30.2969" style="stroke:#A80036;stroke-width:1.5;" width="131" x="1935.5" y="1114.6797"/><text fill="#000000" font-family="sans-serif" font-size="14" lengthAdjust="spacing" textLength="113" x="1946.5" y="1134.6748">us : UserSession</text><rect fill="#FEFECE" filter="url(#f10uu5lybrabjq)" height="30.2969" style="stroke:#A80036;stroke-width:1.5;" width="163" x="2080.5" y="53"/><text fill="#000000" font-family="sans-serif" font-size="14" lengthAdjust="spacing" textLength="145" x="2087.5" y="72.9951">OrdenarListaService</text><rect fill="#FEFECE" filter="url(#f10uu5lybrabjq)" height="30.2969" style="stroke:#A80036;stroke-width:1.5;" width="163" x="2080.5" y="1114.6797"/><text fill="#000000" font-family="sans-serif" font-size="14" lengthAdjust="spacing" textLength="145" x="2087.5" y="1134.6748">OrdenarListaService</text><rect fill="#FFFFFF" filter="url(#f10uu5lybrabjq)" height="978.25" style="stroke:#A80036;stroke-width:1.0;" width="10" x="532" y="119.4297"/><rect fill="#FFFFFF" filter="url(#f10uu5lybrabjq)" height="919.9844" style="stroke:#A80036;stroke-width:1.0;" width="10" x="818" y="148.5625"/><rect fill="#FFFFFF" filter="url(#f10uu5lybrabjq)" height="29.1328" style="stroke:#A80036;stroke-width:1.0;" width="10" x="1040.5" y="177.6953"/><rect fill="#FFFFFF" filter="url(#f10uu5lybrabjq)" height="59.1328" style="stroke:#A80036;stroke-width:1.0;" width="10" x="1212.5" y="206.8281"/><rect fill="#FFFFFF" filter="url(#f10uu5lybrabjq)" height="30" style="stroke:#A80036;stroke-width:1.0;" width="10" x="1373.5" y="235.9609"/><rect fill="#FFFFFF" filter="url(#f10uu5lybrabjq)" height="29.1328" style="stroke:#A80036;stroke-width:1.0;" width="10" x="1519" y="295.0938"/><rect fill="#FFFFFF" filter="url(#f10uu5lybrabjq)" height="29.1328" style="stroke:#A80036;stroke-width:1.0;" width="10" x="1702" y="324.2266"/><polygon fill="#A80036" points="520,115.4297,530,119.4297,520,123.4297,524,119.4297" style="stroke:#A80036;stroke-width:1.0;"/><line style="stroke:#A80036;stroke-width:1.0;" x1="42" x2="526" y1="119.4297" y2="119.4297"/><text fill="#000000" font-family="sans-serif" font-size="13" font-weight="bold" lengthAdjust="spacing" textLength="9" x="49" y="114.3638">1</text><text fill="#000000" font-family="sans-serif" font-size="13" lengthAdjust="spacing" textLength="458" x="62" y="114.3638">começa o processo de listagem de Tarefas que estão atribuidas ao utili</text><polygon fill="#A80036" points="806,144.5625,816,148.5625,806,152.5625,810,148.5625" style="stroke:#A80036;stroke-width:1.0;"/><line style="stroke:#A80036;stroke-width:1.0;" x1="542" x2="812" y1="148.5625" y2="148.5625"/><text fill="#000000" font-family="sans-serif" font-size="13" font-weight="bold" lengthAdjust="spacing" textLength="9" x="549" y="143.4966">2</text><text fill="#000000" font-family="sans-serif" font-size="13" lengthAdjust="spacing" textLength="121" x="562" y="143.4966">buscarColaborador</text><polygon fill="#A80036" points="1028.5,173.6953,1038.5,177.6953,1028.5,181.6953,1032.5,177.6953" style="stroke:#A80036;stroke-width:1.0;"/><line style="stroke:#A80036;stroke-width:1.0;" x1="828" x2="1034.5" y1="177.6953" y2="177.6953"/><text fill="#000000" font-family="sans-serif" font-size="13" font-weight="bold" lengthAdjust="spacing" textLength="8" x="835" y="172.6294">3</text><text fill="#000000" font-family="sans-serif" font-size="13" lengthAdjust="spacing" textLength="85" x="847" y="172.6294">repositories()</text><polygon fill="#A80036" points="1200.5,202.8281,1210.5,206.8281,1200.5,210.8281,1204.5,206.8281" style="stroke:#A80036;stroke-width:1.0;"/><line style="stroke:#A80036;stroke-width:1.0;" x1="1045.5" x2="1206.5" y1="206.8281" y2="206.8281"/><text fill="#000000" font-family="sans-serif" font-size="13" font-weight="bold" lengthAdjust="spacing" textLength="9" x="1052.5" y="201.7622">4</text><text fill="#000000" font-family="sans-serif" font-size="13" lengthAdjust="spacing" textLength="41" x="1065.5" y="201.7622">create</text><polygon fill="#A80036" points="1361.5,231.9609,1371.5,235.9609,1361.5,239.9609,1365.5,235.9609" style="stroke:#A80036;stroke-width:1.0;"/><line style="stroke:#A80036;stroke-width:1.0;" x1="1222.5" x2="1367.5" y1="235.9609" y2="235.9609"/><text fill="#000000" font-family="sans-serif" font-size="13" font-weight="bold" lengthAdjust="spacing" textLength="9" x="1229.5" y="230.895">5</text><text fill="#000000" font-family="sans-serif" font-size="13" lengthAdjust="spacing" textLength="41" x="1242.5" y="230.895">create</text><polygon fill="#A80036" points="1507,291.0938,1517,295.0938,1507,299.0938,1511,295.0938" style="stroke:#A80036;stroke-width:1.0;"/><line style="stroke:#A80036;stroke-width:1.0;" x1="828" x2="1513" y1="295.0938" y2="295.0938"/><text fill="#000000" font-family="sans-serif" font-size="13" font-weight="bold" lengthAdjust="spacing" textLength="9" x="835" y="290.0278">6</text><text fill="#000000" font-family="sans-serif" font-size="13" lengthAdjust="spacing" textLength="141" x="848" y="290.0278">authorizationService()</text><polygon fill="#A80036" points="1690,320.2266,1700,324.2266,1690,328.2266,1694,324.2266" style="stroke:#A80036;stroke-width:1.0;"/><line style="stroke:#A80036;stroke-width:1.0;" x1="1524" x2="1696" y1="324.2266" y2="324.2266"/><text fill="#000000" font-family="sans-serif" font-size="13" font-weight="bold" lengthAdjust="spacing" textLength="9" x="1531" y="319.1606">7</text><text fill="#000000" font-family="sans-serif" font-size="13" lengthAdjust="spacing" textLength="58" x="1544" y="319.1606">session()</text><polygon fill="#A80036" points="1991,349.3594,2001,353.3594,1991,357.3594,1995,353.3594" style="stroke:#A80036;stroke-width:1.0;"/><line style="stroke:#A80036;stroke-width:1.0;" x1="1707" x2="1997" y1="353.3594" y2="353.3594"/><text fill="#000000" font-family="sans-serif" font-size="13" font-weight="bold" lengthAdjust="spacing" textLength="9" x="1714" y="348.2935">8</text><text fill="#000000" font-family="sans-serif" font-size="13" lengthAdjust="spacing" textLength="254" x="1727" y="348.2935">authenticatedUser().identity().toString()</text><polygon fill="#A80036" points="839,378.4922,829,382.4922,839,386.4922,835,382.4922" style="stroke:#A80036;stroke-width:1.0;"/><line style="stroke:#A80036;stroke-width:1.0;stroke-dasharray:2.0,2.0;" x1="833" x2="2002" y1="382.4922" y2="382.4922"/><text fill="#000000" font-family="sans-serif" font-size="13" font-weight="bold" lengthAdjust="spacing" textLength="9" x="845" y="377.4263">9</text><text fill="#000000" font-family="sans-serif" font-size="13" lengthAdjust="spacing" textLength="65" x="858" y="377.4263">username</text><polygon fill="#A80036" points="53,407.625,43,411.625,53,415.625,49,411.625" style="stroke:#A80036;stroke-width:1.0;"/><line style="stroke:#A80036;stroke-width:1.0;" x1="47" x2="531" y1="411.625" y2="411.625"/><text fill="#000000" font-family="sans-serif" font-size="13" font-weight="bold" lengthAdjust="spacing" textLength="19" x="59" y="406.5591">10</text><text fill="#000000" font-family="sans-serif" font-size="13" lengthAdjust="spacing" textLength="350" x="82" y="406.5591">pergunta ao utlizador que tipo de tarefas pretende ver</text><polygon fill="#A80036" points="520,436.7578,530,440.7578,520,444.7578,524,440.7578" style="stroke:#A80036;stroke-width:1.0;"/><line style="stroke:#A80036;stroke-width:1.0;" x1="42" x2="526" y1="440.7578" y2="440.7578"/><text fill="#000000" font-family="sans-serif" font-size="13" font-weight="bold" lengthAdjust="spacing" textLength="18" x="49" y="435.6919">11</text><text fill="#000000" font-family="sans-serif" font-size="13" lengthAdjust="spacing" textLength="103" x="71" y="435.6919">seleciona opção</text><path d="M429,455.7578 L501,455.7578 L501,462.7578 L491,472.7578 L429,472.7578 L429,455.7578 " fill="#EEEEEE" style="stroke:#000000;stroke-width:1.0;"/><rect fill="none" height="285.3281" style="stroke:#000000;stroke-width:2.0;" width="1838.5" x="429" y="455.7578"/><text fill="#000000" font-family="sans-serif" font-size="13" font-weight="bold" lengthAdjust="spacing" textLength="27" x="444" y="468.8247">opt</text><polygon fill="#A80036" points="806,490.0234,816,494.0234,806,498.0234,810,494.0234" style="stroke:#A80036;stroke-width:1.0;"/><line style="stroke:#A80036;stroke-width:1.0;" x1="542" x2="812" y1="494.0234" y2="494.0234"/><text fill="#000000" font-family="sans-serif" font-size="13" font-weight="bold" lengthAdjust="spacing" textLength="18" x="549" y="488.9575">12</text><text fill="#000000" font-family="sans-serif" font-size="13" lengthAdjust="spacing" textLength="227" x="571" y="488.9575">buscarTarefasResolucaoUtilizador()</text><polygon fill="#A80036" points="1366.5,519.1563,1376.5,523.1563,1366.5,527.1563,1370.5,523.1563" style="stroke:#A80036;stroke-width:1.0;"/><line style="stroke:#A80036;stroke-width:1.0;" x1="828" x2="1372.5" y1="523.1563" y2="523.1563"/><text fill="#000000" font-family="sans-serif" font-size="13" font-weight="bold" lengthAdjust="spacing" textLength="17" x="835" y="518.0903">13</text><text fill="#000000" font-family="sans-serif" font-size="13" lengthAdjust="spacing" textLength="292" x="856" y="518.0903">buscarTarefasResolucaoUtilizador(username)</text><polygon fill="#A80036" points="839,548.2891,829,552.2891,839,556.2891,835,552.2891" style="stroke:#A80036;stroke-width:1.0;"/><line style="stroke:#A80036;stroke-width:1.0;stroke-dasharray:2.0,2.0;" x1="833" x2="1377.5" y1="552.2891" y2="552.2891"/><text fill="#000000" font-family="sans-serif" font-size="13" font-weight="bold" lengthAdjust="spacing" textLength="18" x="845" y="547.2231">14</text><text fill="#000000" font-family="sans-serif" font-size="13" lengthAdjust="spacing" textLength="18" x="867" y="547.2231">list</text><path d="M685,567.2891 L757,567.2891 L757,574.2891 L747,584.2891 L685,584.2891 L685,567.2891 " fill="#EEEEEE" style="stroke:#000000;stroke-width:1.0;"/><rect fill="none" height="46.2656" style="stroke:#000000;stroke-width:2.0;" width="1572.5" x="685" y="567.2891"/><text fill="#000000" font-family="sans-serif" font-size="13" font-weight="bold" lengthAdjust="spacing" textLength="27" x="700" y="580.356">opt</text><polygon fill="#A80036" points="2152,601.5547,2162,605.5547,2152,609.5547,2156,605.5547" style="stroke:#A80036;stroke-width:1.0;"/><line style="stroke:#A80036;stroke-width:1.0;" x1="828" x2="2158" y1="605.5547" y2="605.5547"/><text fill="#000000" font-family="sans-serif" font-size="13" font-weight="bold" lengthAdjust="spacing" textLength="18" x="835" y="600.4888">15</text><text fill="#000000" font-family="sans-serif" font-size="13" lengthAdjust="spacing" textLength="166" x="857" y="600.4888">ordenarPorCriticidade(list)</text><path d="M685,627.5547 L757,627.5547 L757,634.5547 L747,644.5547 L685,644.5547 L685,627.5547 " fill="#EEEEEE" style="stroke:#000000;stroke-width:1.0;"/><rect fill="none" height="46.2656" style="stroke:#000000;stroke-width:2.0;" width="1572.5" x="685" y="627.5547"/><text fill="#000000" font-family="sans-serif" font-size="13" font-weight="bold" lengthAdjust="spacing" textLength="27" x="700" y="640.6216">opt</text><polygon fill="#A80036" points="2152,661.8203,2162,665.8203,2152,669.8203,2156,665.8203" style="stroke:#A80036;stroke-width:1.0;"/><line style="stroke:#A80036;stroke-width:1.0;" x1="828" x2="2158" y1="665.8203" y2="665.8203"/><text fill="#000000" font-family="sans-serif" font-size="13" font-weight="bold" lengthAdjust="spacing" textLength="18" x="835" y="660.7544">16</text><text fill="#000000" font-family="sans-serif" font-size="13" lengthAdjust="spacing" textLength="155" x="857" y="660.7544">ordenarPorUrgencia(list)</text><path d="M685,687.8203 L757,687.8203 L757,694.8203 L747,704.8203 L685,704.8203 L685,687.8203 " fill="#EEEEEE" style="stroke:#000000;stroke-width:1.0;"/><rect fill="none" height="46.2656" style="stroke:#000000;stroke-width:2.0;" width="1572.5" x="685" y="687.8203"/><text fill="#000000" font-family="sans-serif" font-size="13" font-weight="bold" lengthAdjust="spacing" textLength="27" x="700" y="700.8872">opt</text><polygon fill="#A80036" points="2152,722.0859,2162,726.0859,2152,730.0859,2156,726.0859" style="stroke:#A80036;stroke-width:1.0;"/><line style="stroke:#A80036;stroke-width:1.0;" x1="828" x2="2158" y1="726.0859" y2="726.0859"/><text fill="#000000" font-family="sans-serif" font-size="13" font-weight="bold" lengthAdjust="spacing" textLength="18" x="835" y="721.02">17</text><text fill="#000000" font-family="sans-serif" font-size="13" lengthAdjust="spacing" textLength="130" x="857" y="721.02">ordenarPorData(list)</text><path d="M429,755.0859 L501,755.0859 L501,762.0859 L491,772.0859 L429,772.0859 L429,755.0859 " fill="#EEEEEE" style="stroke:#000000;stroke-width:1.0;"/><rect fill="none" height="285.3281" style="stroke:#000000;stroke-width:2.0;" width="1838.5" x="429" y="755.0859"/><text fill="#000000" font-family="sans-serif" font-size="13" font-weight="bold" lengthAdjust="spacing" textLength="27" x="444" y="768.1528">opt</text><polygon fill="#A80036" points="806,789.3516,816,793.3516,806,797.3516,810,793.3516" style="stroke:#A80036;stroke-width:1.0;"/><line style="stroke:#A80036;stroke-width:1.0;" x1="542" x2="812" y1="793.3516" y2="793.3516"/><text fill="#000000" font-family="sans-serif" font-size="13" font-weight="bold" lengthAdjust="spacing" textLength="18" x="549" y="788.2856">18</text><text fill="#000000" font-family="sans-serif" font-size="13" lengthAdjust="spacing" textLength="230" x="571" y="788.2856">buscarTarefasAprovacaoUtilizador()</text><polygon fill="#A80036" points="1366.5,818.4844,1376.5,822.4844,1366.5,826.4844,1370.5,822.4844" style="stroke:#A80036;stroke-width:1.0;"/><line style="stroke:#A80036;stroke-width:1.0;" x1="828" x2="1372.5" y1="822.4844" y2="822.4844"/><text fill="#000000" font-family="sans-serif" font-size="13" font-weight="bold" lengthAdjust="spacing" textLength="18" x="835" y="817.4185">19</text><text fill="#000000" font-family="sans-serif" font-size="13" lengthAdjust="spacing" textLength="295" x="857" y="817.4185">buscarTarefasAprovacaoUtilizador(username)</text><polygon fill="#A80036" points="839,847.6172,829,851.6172,839,855.6172,835,851.6172" style="stroke:#A80036;stroke-width:1.0;"/><line style="stroke:#A80036;stroke-width:1.0;stroke-dasharray:2.0,2.0;" x1="833" x2="1377.5" y1="851.6172" y2="851.6172"/><text fill="#000000" font-family="sans-serif" font-size="13" font-weight="bold" lengthAdjust="spacing" textLength="19" x="845" y="846.5513">20</text><text fill="#000000" font-family="sans-serif" font-size="13" lengthAdjust="spacing" textLength="18" x="868" y="846.5513">list</text><path d="M685,866.6172 L757,866.6172 L757,873.6172 L747,883.6172 L685,883.6172 L685,866.6172 " fill="#EEEEEE" style="stroke:#000000;stroke-width:1.0;"/><rect fill="none" height="46.2656" style="stroke:#000000;stroke-width:2.0;" width="1572.5" x="685" y="866.6172"/><text fill="#000000" font-family="sans-serif" font-size="13" font-weight="bold" lengthAdjust="spacing" textLength="27" x="700" y="879.6841">opt</text><polygon fill="#A80036" points="2152,900.8828,2162,904.8828,2152,908.8828,2156,904.8828" style="stroke:#A80036;stroke-width:1.0;"/><line style="stroke:#A80036;stroke-width:1.0;" x1="828" x2="2158" y1="904.8828" y2="904.8828"/><text fill="#000000" font-family="sans-serif" font-size="13" font-weight="bold" lengthAdjust="spacing" textLength="18" x="835" y="899.8169">21</text><text fill="#000000" font-family="sans-serif" font-size="13" lengthAdjust="spacing" textLength="166" x="857" y="899.8169">ordenarPorCriticidade(list)</text><path d="M685,926.8828 L757,926.8828 L757,933.8828 L747,943.8828 L685,943.8828 L685,926.8828 " fill="#EEEEEE" style="stroke:#000000;stroke-width:1.0;"/><rect fill="none" height="46.2656" style="stroke:#000000;stroke-width:2.0;" width="1572.5" x="685" y="926.8828"/><text fill="#000000" font-family="sans-serif" font-size="13" font-weight="bold" lengthAdjust="spacing" textLength="27" x="700" y="939.9497">opt</text><polygon fill="#A80036" points="2152,961.1484,2162,965.1484,2152,969.1484,2156,965.1484" style="stroke:#A80036;stroke-width:1.0;"/><line style="stroke:#A80036;stroke-width:1.0;" x1="828" x2="2158" y1="965.1484" y2="965.1484"/><text fill="#000000" font-family="sans-serif" font-size="13" font-weight="bold" lengthAdjust="spacing" textLength="18" x="835" y="960.0825">22</text><text fill="#000000" font-family="sans-serif" font-size="13" lengthAdjust="spacing" textLength="155" x="857" y="960.0825">ordenarPorUrgencia(list)</text><path d="M685,987.1484 L757,987.1484 L757,994.1484 L747,1004.1484 L685,1004.1484 L685,987.1484 " fill="#EEEEEE" style="stroke:#000000;stroke-width:1.0;"/><rect fill="none" height="46.2656" style="stroke:#000000;stroke-width:2.0;" width="1572.5" x="685" y="987.1484"/><text fill="#000000" font-family="sans-serif" font-size="13" font-weight="bold" lengthAdjust="spacing" textLength="27" x="700" y="1000.2153">opt</text><polygon fill="#A80036" points="2152,1021.4141,2162,1025.4141,2152,1029.4141,2156,1025.4141" style="stroke:#A80036;stroke-width:1.0;"/><line style="stroke:#A80036;stroke-width:1.0;" x1="828" x2="2158" y1="1025.4141" y2="1025.4141"/><text fill="#000000" font-family="sans-serif" font-size="13" font-weight="bold" lengthAdjust="spacing" textLength="17" x="835" y="1020.3481">23</text><text fill="#000000" font-family="sans-serif" font-size="13" lengthAdjust="spacing" textLength="130" x="856" y="1020.3481">ordenarPorData(list)</text><polygon fill="#A80036" points="553,1064.5469,543,1068.5469,553,1072.5469,549,1068.5469" style="stroke:#A80036;stroke-width:1.0;"/><line style="stroke:#A80036;stroke-width:1.0;" x1="547" x2="822" y1="1068.5469" y2="1068.5469"/><text fill="#000000" font-family="sans-serif" font-size="13" font-weight="bold" lengthAdjust="spacing" textLength="18" x="559" y="1063.481">24</text><text fill="#000000" font-family="sans-serif" font-size="13" lengthAdjust="spacing" textLength="18" x="581" y="1063.481">list</text><polygon fill="#A80036" points="53,1093.6797,43,1097.6797,53,1101.6797,49,1097.6797" style="stroke:#A80036;stroke-width:1.0;"/><line style="stroke:#A80036;stroke-width:1.0;" x1="47" x2="536" y1="1097.6797" y2="1097.6797"/><text fill="#000000" font-family="sans-serif" font-size="13" font-weight="bold" lengthAdjust="spacing" textLength="18" x="59" y="1092.6138">25</text><text fill="#000000" font-family="sans-serif" font-size="13" lengthAdjust="spacing" textLength="374" x="81" y="1092.6138">mostra a lista ordenada da maneira que o user selecionou</text><!--MD5=[e9dc403d438dbed7ebdd152297fd97f0]
@startuml
autonumber
actor "Utilizador" as USER

participant " ListarTarefasUtilizadorUI" as UI
participant " ListarTarefasUtilizadorController" as CTRL
participant " PersistenceContext " as PC
participant " RepositoryFactory" as RF
participant " TarefaRepository" as TR
participant " AuthzRegistry" as  AUR
participant " athz : Authorization Service" as AUT
participant " us : UserSession" as US
participant "OrdenarListaService " as SER 
  


USER -> UI : começa o processo de listagem de Tarefas que estão atribuidas ao utili
activate UI
UI-> CTRL :buscarColaborador
activate CTRL
CTRL-> PC : repositories()
activate PC
PC -> RF : create
deactivate PC
activate RF
RF -> TR : create
activate TR
deactivate RF
deactivate TR
CTRL -> AUR : authorizationService()
activate AUR
AUR -> AUT : session()
deactivate AUR
activate AUT 
AUT -> US : authenticatedUser().identity().toString()
deactivate AUT
US - -> CTRL : username
UI -> USER : pergunta ao utlizador que tipo de tarefas pretende ver
USER-> UI : seleciona opção
opt 
UI-> CTRL: buscarTarefasResolucaoUtilizador()
CTRL-> TR : buscarTarefasResolucaoUtilizador(username)
TR - -> CTRL : list
opt
CTRL->SER :ordenarPorCriticidade(list)
end opt

opt
CTRL->SER :ordenarPorUrgencia(list)
end opt

opt
CTRL->SER :ordenarPorData(list)
end opt

end opt

opt 
UI-> CTRL: buscarTarefasAprovacaoUtilizador()
CTRL-> TR : buscarTarefasAprovacaoUtilizador(username)
TR - -> CTRL : list

opt
CTRL->SER :ordenarPorCriticidade(list)
end opt

opt
CTRL->SER :ordenarPorUrgencia(list)
end opt

opt
CTRL->SER :ordenarPorData(list)
end opt

end opt
CTRL-> UI : list
deactivate CTRL 
UI-> USER : mostra a lista ordenada da maneira que o user selecionou
deactivate UI
@enduml

PlantUML version 1.2021.7(Sun May 23 12:40:07 UTC 2021)
(GPL source distribution)
Java Runtime: Java(TM) SE Runtime Environment
JVM: Java HotSpot(TM) 64-Bit Server VM
Default Encoding: UTF-8
Language: en
Country: US
--></g></svg>